<svg id="Calque_1" data-name="Calque 1" xmlns="http://www.w3.org/2000/svg" xmlns:xlink="http://www.w3.org/1999/xlink" viewBox="0 0 607.07 607.07"><defs><style>.cls-1,.cls-7,.cls-8{fill:none;}.cls-2{fill:#df719d;}.cls-3{clip-path:url(#clip-path);}.cls-4{fill:#d74a83;}.cls-10,.cls-5,.cls-9{fill:#f3f6e6;}.cls-6{fill:#3d3f49;}.cls-7{stroke:#3d3f49;}.cls-7,.cls-8{stroke-miterlimit:10;stroke-width:6px;}.cls-8{stroke:#f3f6e6;}.cls-9{font-size:74.57px;}.cls-10,.cls-9{font-family:Palatino-Bold, Palatino;font-weight:700;}.cls-10{font-size:46.23px;}.cls-11{fill:#f1f4e5;}.cls-12{fill:#f4de49;}.cls-13{fill:#3d3d4a;}.cls-14{fill:#393b49;}.cls-15{fill:#f0f3e3;}.cls-16{clip-path:url(#clip-path-2);}.cls-17{fill:#3d3c4a;}.cls-18{fill:#df709d;}.cls-19{fill:#f5df49;}.cls-20{fill:#a9c5fa;}.cls-21{fill:#d64b83;}</style><clipPath id="clip-path"><circle class="cls-1" cx="303.54" cy="312.07" r="242.37"/></clipPath><clipPath id="clip-path-2"><circle class="cls-1" cx="194.27" cy="458.73" r="101.06"/></clipPath></defs><title>DATA_RVB</title><circle class="cls-2" cx="303.54" cy="312.07" r="242.37"/><g class="cls-3"><path class="cls-4" d="M47.3,114.9H-6.35V61.25H47.3ZM-3,111.54H43.94V64.6H-3Z"/><path class="cls-4" d="M97.39,114.9H43.75V61.25H97.39ZM47.1,111.54H94V64.6H47.1Z"/><path class="cls-4" d="M147.49,114.9H93.84V61.25h53.65ZM97.2,111.54h46.94V64.6H97.2Z"/><path class="cls-4" d="M197.59,114.9H143.94V61.25h53.65Zm-50.29-3.36h46.94V64.6H147.3Z"/><path class="cls-4" d="M247.69,114.9H194V61.25h53.65Zm-50.3-3.36h46.94V64.6H197.39Z"/><path class="cls-4" d="M297.93,114.9H244.28V61.25h53.65Zm-50.3-3.36h46.94V64.6H247.63Z"/><path class="cls-4" d="M348.17,114.9H294.52V61.25h53.65Zm-50.3-3.36h46.94V64.6H297.87Z"/><path class="cls-4" d="M398.41,114.9H344.76V61.25h53.65Zm-50.3-3.36h46.94V64.6H348.11Z"/><path class="cls-4" d="M47.3,165.23H-6.35V111.58H47.3ZM-3,161.88H43.94V114.94H-3Z"/><path class="cls-4" d="M97.39,165.23H43.75V111.58H97.39ZM47.1,161.88H94V114.94H47.1Z"/><path class="cls-4" d="M147.49,165.23H93.84V111.58h53.65ZM97.2,161.88h46.94V114.94H97.2Z"/><path class="cls-4" d="M197.59,165.23H143.94V111.58h53.65Zm-50.29-3.35h46.94V114.94H147.3Z"/><path class="cls-4" d="M247.69,165.23H194V111.58h53.65Zm-50.3-3.35h46.94V114.94H197.39Z"/><path class="cls-4" d="M297.93,165.23H244.28V111.58h53.65Zm-50.3-3.35h46.94V114.94H247.63Z"/><path class="cls-4" d="M348.17,165.23H294.52V111.58h53.65Zm-50.3-3.35h46.94V114.94H297.87Z"/><path class="cls-4" d="M398.41,165.23H344.76V111.58h53.65Zm-50.3-3.35h46.94V114.94H348.11Z"/><path class="cls-4" d="M47.3,215.56H-6.35V161.92H47.3ZM-3,212.21H43.94V165.27H-3Z"/><path class="cls-4" d="M97.39,215.56H43.75V161.92H97.39ZM47.1,212.21H94V165.27H47.1Z"/><path class="cls-4" d="M147.49,215.56H93.84V161.92h53.65ZM97.2,212.21h46.94V165.27H97.2Z"/><path class="cls-4" d="M197.59,215.56H143.94V161.92h53.65Zm-50.29-3.35h46.94V165.27H147.3Z"/><path class="cls-4" d="M247.69,215.56H194V161.92h53.65Zm-50.3-3.35h46.94V165.27H197.39Z"/><path class="cls-4" d="M297.93,215.56H244.28V161.92h53.65Zm-50.3-3.35h46.94V165.27H247.63Z"/><path class="cls-4" d="M348.17,215.56H294.52V161.92h53.65Zm-50.3-3.35h46.94V165.27H297.87Z"/><path class="cls-4" d="M398.41,215.56H344.76V161.92h53.65Zm-50.3-3.35h46.94V165.27H348.11Z"/><path class="cls-4" d="M47.3,265.9H-6.35V212.25H47.3ZM-3,262.54H43.94V215.6H-3Z"/><path class="cls-4" d="M97.39,265.9H43.75V212.25H97.39ZM47.1,262.54H94V215.6H47.1Z"/><path class="cls-4" d="M147.49,265.9H93.84V212.25h53.65ZM97.2,262.54h46.94V215.6H97.2Z"/><path class="cls-4" d="M197.59,265.9H143.94V212.25h53.65Zm-50.29-3.36h46.94V215.6H147.3Z"/><path class="cls-4" d="M247.69,265.9H194V212.25h53.65Zm-50.3-3.36h46.94V215.6H197.39Z"/><path class="cls-4" d="M297.93,265.9H244.28V212.25h53.65Zm-50.3-3.36h46.94V215.6H247.63Z"/><path class="cls-4" d="M348.17,265.9H294.52V212.25h53.65Zm-50.3-3.36h46.94V215.6H297.87Z"/><path class="cls-4" d="M398.41,265.9H344.76V212.25h53.65Zm-50.3-3.36h46.94V215.6H348.11Z"/><path class="cls-4" d="M47.3,316.23H-6.35V262.58H47.3ZM-3,312.88H43.94V265.94H-3Z"/><path class="cls-4" d="M97.39,316.23H43.75V262.58H97.39ZM47.1,312.88H94V265.94H47.1Z"/><path class="cls-4" d="M147.49,316.23H93.84V262.58h53.65ZM97.2,312.88h46.94V265.94H97.2Z"/><path class="cls-4" d="M197.59,316.23H143.94V262.58h53.65Zm-50.29-3.35h46.94V265.94H147.3Z"/><path class="cls-4" d="M247.69,316.23H194V262.58h53.65Zm-50.3-3.35h46.94V265.94H197.39Z"/><path class="cls-4" d="M297.93,316.23H244.28V262.58h53.65Zm-50.3-3.35h46.94V265.94H247.63Z"/><path class="cls-4" d="M348.17,316.23H294.52V262.58h53.65Zm-50.3-3.35h46.94V265.94H297.87Z"/><path class="cls-4" d="M398.41,316.23H344.76V262.58h53.65Zm-50.3-3.35h46.94V265.94H348.11Z"/><path class="cls-4" d="M47.3,366.56H-6.35V312.92H47.3ZM-3,363.21H43.94V316.27H-3Z"/><path class="cls-4" d="M97.39,366.56H43.75V312.92H97.39ZM47.1,363.21H94V316.27H47.1Z"/><path class="cls-4" d="M147.49,366.56H93.84V312.92h53.65ZM97.2,363.21h46.94V316.27H97.2Z"/><path class="cls-4" d="M197.59,366.56H143.94V312.92h53.65Zm-50.29-3.35h46.94V316.27H147.3Z"/><path class="cls-4" d="M247.69,366.56H194V312.92h53.65Zm-50.3-3.35h46.94V316.27H197.39Z"/><path class="cls-4" d="M297.93,366.56H244.28V312.92h53.65Zm-50.3-3.35h46.94V316.27H247.63Z"/><path class="cls-4" d="M348.17,366.56H294.52V312.92h53.65Zm-50.3-3.35h46.94V316.27H297.87Z"/><path class="cls-4" d="M398.41,366.56H344.76V312.92h53.65Zm-50.3-3.35h46.94V316.27H348.11Z"/><path class="cls-4" d="M47.3,416.9H-6.35V363.25H47.3ZM-3,413.54H43.94V366.6H-3Z"/><path class="cls-4" d="M97.39,416.9H43.75V363.25H97.39ZM47.1,413.54H94V366.6H47.1Z"/><path class="cls-4" d="M147.49,416.9H93.84V363.25h53.65ZM97.2,413.54h46.94V366.6H97.2Z"/><path class="cls-4" d="M197.59,416.9H143.94V363.25h53.65Zm-50.29-3.36h46.94V366.6H147.3Z"/><path class="cls-4" d="M247.69,416.9H194V363.25h53.65Zm-50.3-3.36h46.94V366.6H197.39Z"/><path class="cls-4" d="M297.93,416.9H244.28V363.25h53.65Zm-50.3-3.36h46.94V366.6H247.63Z"/><path class="cls-4" d="M348.17,416.9H294.52V363.25h53.65Zm-50.3-3.36h46.94V366.6H297.87Z"/><path class="cls-4" d="M398.41,416.9H344.76V363.25h53.65Zm-50.3-3.36h46.94V366.6H348.11Z"/><path class="cls-4" d="M47.3,467.23H-6.35V413.58H47.3ZM-3,463.88H43.94V416.94H-3Z"/><path class="cls-4" d="M97.39,467.23H43.75V413.58H97.39ZM47.1,463.88H94V416.94H47.1Z"/><path class="cls-4" d="M147.49,467.23H93.84V413.58h53.65ZM97.2,463.88h46.94V416.94H97.2Z"/><path class="cls-4" d="M197.59,467.23H143.94V413.58h53.65Zm-50.29-3.35h46.94V416.94H147.3Z"/><path class="cls-4" d="M247.69,467.23H194V413.58h53.65Zm-50.3-3.35h46.94V416.94H197.39Z"/><path class="cls-4" d="M297.93,467.23H244.28V413.58h53.65Zm-50.3-3.35h46.94V416.94H247.63Z"/><path class="cls-4" d="M348.17,467.23H294.52V413.58h53.65Zm-50.3-3.35h46.94V416.94H297.87Z"/><path class="cls-4" d="M398.41,467.23H344.76V413.58h53.65Zm-50.3-3.35h46.94V416.94H348.11Z"/><path class="cls-4" d="M47.3,517.56H-6.35V463.92H47.3ZM-3,514.21H43.94V467.27H-3Z"/><path class="cls-4" d="M97.39,517.56H43.75V463.92H97.39ZM47.1,514.21H94V467.27H47.1Z"/><path class="cls-4" d="M147.49,517.56H93.84V463.92h53.65ZM97.2,514.21h46.94V467.27H97.2Z"/><path class="cls-4" d="M197.59,517.56H143.94V463.92h53.65Zm-50.29-3.35h46.94V467.27H147.3Z"/><path class="cls-4" d="M247.69,517.56H194V463.92h53.65Zm-50.3-3.35h46.94V467.27H197.39Z"/><path class="cls-4" d="M297.93,517.56H244.28V463.92h53.65Zm-50.3-3.35h46.94V467.27H247.63Z"/><path class="cls-4" d="M348.17,517.56H294.52V463.92h53.65Zm-50.3-3.35h46.94V467.27H297.87Z"/><path class="cls-4" d="M398.41,517.56H344.76V463.92h53.65Zm-50.3-3.35h46.94V467.27H348.11Z"/><path class="cls-4" d="M47.3,567.9H-6.35V514.25H47.3ZM-3,564.54H43.94V517.6H-3Z"/><path class="cls-4" d="M97.39,567.9H43.75V514.25H97.39ZM47.1,564.54H94V517.6H47.1Z"/><path class="cls-4" d="M147.49,567.9H93.84V514.25h53.65ZM97.2,564.54h46.94V517.6H97.2Z"/><path class="cls-4" d="M197.59,567.9H143.94V514.25h53.65Zm-50.29-3.36h46.94V517.6H147.3Z"/><path class="cls-4" d="M247.69,567.9H194V514.25h53.65Zm-50.3-3.36h46.94V517.6H197.39Z"/><path class="cls-4" d="M297.93,567.9H244.28V514.25h53.65Zm-50.3-3.36h46.94V517.6H247.63Z"/><path class="cls-4" d="M348.17,567.9H294.52V514.25h53.65Zm-50.3-3.36h46.94V517.6H297.87Z"/><path class="cls-4" d="M398.41,567.9H344.76V514.25h53.65Zm-50.3-3.36h46.94V517.6H348.11Z"/><path class="cls-4" d="M448.89,114.9H395.24V61.25h53.65Zm-50.3-3.36h46.94V64.6H398.59Z"/><path class="cls-4" d="M499,114.9H445.34V61.25H499Zm-50.29-3.36h46.94V64.6H448.69Z"/><path class="cls-4" d="M549.08,114.9H495.44V61.25h53.64Zm-50.29-3.36h46.94V64.6H498.79Z"/><path class="cls-4" d="M599.18,114.9H545.53V61.25h53.65Zm-50.29-3.36h46.94V64.6H548.89Z"/><path class="cls-4" d="M649.28,114.9H595.63V61.25h53.65ZM599,111.54h46.94V64.6H599Z"/><path class="cls-4" d="M448.89,165.23H395.24V111.58h53.65Zm-50.3-3.35h46.94V114.94H398.59Z"/><path class="cls-4" d="M499,165.23H445.34V111.58H499Zm-50.29-3.35h46.94V114.94H448.69Z"/><path class="cls-4" d="M549.08,165.23H495.44V111.58h53.64Zm-50.29-3.35h46.94V114.94H498.79Z"/><path class="cls-4" d="M599.18,165.23H545.53V111.58h53.65Zm-50.29-3.35h46.94V114.94H548.89Z"/><path class="cls-4" d="M649.28,165.23H595.63V111.58h53.65ZM599,161.88h46.94V114.94H599Z"/><path class="cls-4" d="M448.89,215.56H395.24V161.92h53.65Zm-50.3-3.35h46.94V165.27H398.59Z"/><path class="cls-4" d="M499,215.56H445.34V161.92H499Zm-50.29-3.35h46.94V165.27H448.69Z"/><path class="cls-4" d="M549.08,215.56H495.44V161.92h53.64Zm-50.29-3.35h46.94V165.27H498.79Z"/><path class="cls-4" d="M599.18,215.56H545.53V161.92h53.65Zm-50.29-3.35h46.94V165.27H548.89Z"/><path class="cls-4" d="M649.28,215.56H595.63V161.92h53.65ZM599,212.21h46.94V165.27H599Z"/><path class="cls-4" d="M448.89,265.9H395.24V212.25h53.65Zm-50.3-3.36h46.94V215.6H398.59Z"/><path class="cls-4" d="M499,265.9H445.34V212.25H499Zm-50.29-3.36h46.94V215.6H448.69Z"/><path class="cls-4" d="M549.08,265.9H495.44V212.25h53.64Zm-50.29-3.36h46.94V215.6H498.79Z"/><path class="cls-4" d="M599.18,265.9H545.53V212.25h53.65Zm-50.29-3.36h46.94V215.6H548.89Z"/><path class="cls-4" d="M649.28,265.9H595.63V212.25h53.65ZM599,262.54h46.94V215.6H599Z"/><path class="cls-4" d="M448.89,316.23H395.24V262.58h53.65Zm-50.3-3.35h46.94V265.94H398.59Z"/><path class="cls-4" d="M499,316.23H445.34V262.58H499Zm-50.29-3.35h46.94V265.94H448.69Z"/><path class="cls-4" d="M549.08,316.23H495.44V262.58h53.64Zm-50.29-3.35h46.94V265.94H498.79Z"/><path class="cls-4" d="M599.18,316.23H545.53V262.58h53.65Zm-50.29-3.35h46.94V265.94H548.89Z"/><path class="cls-4" d="M649.28,316.23H595.63V262.58h53.65ZM599,312.88h46.94V265.94H599Z"/><path class="cls-4" d="M448.89,366.56H395.24V312.92h53.65Zm-50.3-3.35h46.94V316.27H398.59Z"/><path class="cls-4" d="M499,366.56H445.34V312.92H499Zm-50.29-3.35h46.94V316.27H448.69Z"/><path class="cls-4" d="M549.08,366.56H495.44V312.92h53.64Zm-50.29-3.35h46.94V316.27H498.79Z"/><path class="cls-4" d="M599.18,366.56H545.53V312.92h53.65Zm-50.29-3.35h46.94V316.27H548.89Z"/><path class="cls-4" d="M649.28,366.56H595.63V312.92h53.65ZM599,363.21h46.94V316.27H599Z"/><path class="cls-4" d="M448.89,416.9H395.24V363.25h53.65Zm-50.3-3.36h46.94V366.6H398.59Z"/><path class="cls-4" d="M499,416.9H445.34V363.25H499Zm-50.29-3.36h46.94V366.6H448.69Z"/><path class="cls-4" d="M549.08,416.9H495.44V363.25h53.64Zm-50.29-3.36h46.94V366.6H498.79Z"/><path class="cls-4" d="M599.18,416.9H545.53V363.25h53.65Zm-50.29-3.36h46.94V366.6H548.89Z"/><path class="cls-4" d="M649.28,416.9H595.63V363.25h53.65ZM599,413.54h46.94V366.6H599Z"/><path class="cls-4" d="M448.89,467.23H395.24V413.58h53.65Zm-50.3-3.35h46.94V416.94H398.59Z"/><path class="cls-4" d="M499,467.23H445.34V413.58H499Zm-50.29-3.35h46.94V416.94H448.69Z"/><path class="cls-4" d="M549.08,467.23H495.44V413.58h53.64Zm-50.29-3.35h46.94V416.94H498.79Z"/><path class="cls-4" d="M599.18,467.23H545.53V413.58h53.65Zm-50.29-3.35h46.94V416.94H548.89Z"/><path class="cls-4" d="M649.28,467.23H595.63V413.58h53.65ZM599,463.88h46.94V416.94H599Z"/><path class="cls-4" d="M448.89,517.56H395.24V463.92h53.65Zm-50.3-3.35h46.94V467.27H398.59Z"/><path class="cls-4" d="M499,517.56H445.34V463.92H499Zm-50.29-3.35h46.94V467.27H448.69Z"/><path class="cls-4" d="M549.08,517.56H495.44V463.92h53.64Zm-50.29-3.35h46.94V467.27H498.79Z"/><path class="cls-4" d="M599.18,517.56H545.53V463.92h53.65Zm-50.29-3.35h46.94V467.27H548.89Z"/><path class="cls-4" d="M649.28,517.56H595.63V463.92h53.65ZM599,514.21h46.94V467.27H599Z"/><path class="cls-4" d="M448.89,567.9H395.24V514.25h53.65Zm-50.3-3.36h46.94V517.6H398.59Z"/><path class="cls-4" d="M499,567.9H445.34V514.25H499Zm-50.29-3.36h46.94V517.6H448.69Z"/><path class="cls-4" d="M549.08,567.9H495.44V514.25h53.64Zm-50.29-3.36h46.94V517.6H498.79Z"/><path class="cls-4" d="M599.18,567.9H545.53V514.25h53.65Zm-50.29-3.36h46.94V517.6H548.89Z"/><path class="cls-4" d="M649.28,567.9H595.63V514.25h53.65ZM599,564.54h46.94V517.6H599Z"/><circle class="cls-5" cx="147.3" cy="312.88" r="15.18"/><circle class="cls-6" cx="94.86" cy="265.9" r="15.18"/><circle class="cls-6" cx="247.63" cy="215.6" r="15.18"/><circle class="cls-5" cx="247.11" cy="312.82" r="15.18"/><circle class="cls-6" cx="398.41" cy="265.9" r="15.18"/><circle class="cls-5" cx="398.41" cy="163.11" r="15.18"/><circle class="cls-6" cx="497.41" cy="213.6" r="15.18"/><polyline class="cls-7" points="545.73 165.27 497.41 213.6 398.41 265.9 247.63 215.6 94.86 265.9 61.16 316.23"/><polyline class="cls-8" points="42.86 365.06 147.3 312.88 247.11 312.82 398.41 163.11 545.73 114.94"/><text class="cls-9" transform="translate(131.65 141.19)">120%</text></g><polygon class="cls-5" points="358.82 108.26 350.27 108.26 350.27 99.72 343.35 99.72 343.35 108.26 334.8 108.26 334.8 115.18 343.35 115.18 343.35 123.73 350.27 123.73 350.27 115.18 358.82 115.18 358.82 108.26"/><polygon class="cls-5" points="159.6 208.68 151.06 208.68 151.06 200.14 144.14 200.14 144.14 208.68 135.59 208.68 135.59 215.6 144.14 215.6 144.14 224.15 151.06 224.15 151.06 215.6 159.6 215.6 159.6 208.68"/><text class="cls-10" transform="translate(320.57 500.05)">x² + y</text><path class="cls-11" d="M464.09,453q-45.39,0-90.79.05c-2.25,0-2.87-.55-2.86-2.83q.1-48.81,0-97.63c0-2.07.46-2.76,2.67-2.75q91.33.56,182.66.9c2.18,0,2.48.72,2.48,2.64q-.09,48.41,0,96.81c0,2.24-.53,2.87-2.83,2.86Q509.77,453,464.09,453Zm31.43-82.71c-3.3,0-6,.11-8.73,0a4.29,4.29,0,0,0-4.08,2q-24,31.53-48.1,63c-.4.53-1.13.95-.93,2,2.8,0,5.61-.12,8.4.05a4,4,0,0,0,3.83-1.95c6.46-8.59,13-17.11,19.53-25.65Zm-45.11-.49c-5.65-1.31-10.08.83-13.87,4.86a4.64,4.64,0,0,0-1.38,2.26c-1.28,6-2.62,12.07-3.89,18.11-.62,3,3.34,7.71,6.43,7.72h11.19c3.71,0,9.4-4.63,10.18-8.3,1.2-5.6,2.29-11.21,3.62-16.78.39-1.63-.12-2.62-.93-3.94-2-3.24-4.61-4.6-8.35-4A17.66,17.66,0,0,1,450.41,369.82Zm27.71,68c5,.72,9.43-.13,13.1-4.11a9.06,9.06,0,0,0,2.5-4.59c1.1-5.34,2.26-10.67,3.53-16a5.12,5.12,0,0,0-1-4.48c-2-3-4.36-4.25-7.93-3.78a27.52,27.52,0,0,1-6.54,0c-3.44-.39-6,.84-8.57,3.07a10.91,10.91,0,0,0-4.1,6.69c-.9,5.1-2.12,10.14-3.27,15.2a4.71,4.71,0,0,0,.93,4c2,3.14,4.54,4.73,8.34,4A16.67,16.67,0,0,1,478.12,437.78Z"/><path class="cls-12" d="M464.36,345.32q-45.53,0-91.05.05c-2.21,0-2.94-.46-2.92-2.81q.18-21.88,0-43.75c0-2.4.79-2.79,2.95-2.77q59.88.36,119.77.6l61.52.28c3.55,0,3.55,0,3.55,3.52q0,21.06,0,42.11c0,4.13.7,3.69-3.84,3.69h-90Zm-78.5-24.17a9.31,9.31,0,1,0,18.61-.24,9.22,9.22,0,0,0-9.31-9.08A9.12,9.12,0,0,0,385.86,321.15Zm32.59-9.32a9.24,9.24,0,0,0-9.37,9.3,9.33,9.33,0,0,0,18.66.08A9.24,9.24,0,0,0,418.45,311.83ZM451,321.05a9.31,9.31,0,0,0-18.61,0,9.31,9.31,0,1,0,18.61,0Z"/><path class="cls-13" d="M495.52,370.31,465.44,409.7c-6.52,8.54-13.07,17.06-19.53,25.65a4,4,0,0,1-3.83,1.95c-2.79-.17-5.6-.05-8.4-.05-.2-1.05.53-1.47.93-2q24.06-31.5,48.1-63a4.29,4.29,0,0,1,4.08-2C489.5,370.42,492.22,370.31,495.52,370.31Z"/><path class="cls-14" d="M450.41,369.82a17.66,17.66,0,0,0,3,0c3.74-.64,6.37.72,8.35,4,.81,1.32,1.32,2.31.93,3.94-1.33,5.57-2.42,11.18-3.62,16.78-.78,3.67-6.47,8.3-10.18,8.3H437.7c-3.09,0-7.05-4.74-6.43-7.72,1.27-6,2.61-12.07,3.89-18.11a4.64,4.64,0,0,1,1.38-2.26C440.33,370.65,444.76,368.51,450.41,369.82Zm-1.48,7.83c-2.62,0-4.05.87-4.51,2.93-.89,4-1.67,8-2.54,12a1.74,1.74,0,0,0,.78,2.11,5,5,0,0,0,7.09-3.22c.74-3.37,1.42-6.74,2.13-10.11C452.56,378.12,452.19,377.65,448.93,377.65Z"/><path class="cls-14" d="M478.12,437.78a16.67,16.67,0,0,0-3,0c-3.8.71-6.31-.88-8.34-4a4.71,4.71,0,0,1-.93-4c1.15-5.06,2.37-10.1,3.27-15.2a10.91,10.91,0,0,1,4.1-6.69c2.56-2.23,5.13-3.46,8.57-3.07a27.52,27.52,0,0,0,6.54,0c3.57-.47,6,.82,7.93,3.78a5.12,5.12,0,0,1,1,4.48c-1.27,5.31-2.43,10.64-3.53,16a9.06,9.06,0,0,1-2.5,4.59C487.55,437.65,483.14,438.5,478.12,437.78Zm1.64-7.89c2.13.21,3.91-.56,4.45-2.87.94-4,1.63-8,2.49-12a1.76,1.76,0,0,0-.72-2.12c-2.39-1.51-6.42.13-7,2.91-.79,3.53-1.51,7.09-2.22,10.64C476.1,429.56,476.41,429.9,479.76,429.89Z"/><path class="cls-13" d="M385.86,321.15a9.12,9.12,0,0,1,9.3-9.32,9.22,9.22,0,0,1,9.31,9.08,9.31,9.31,0,1,1-18.61.24Zm9.24,4.61a4.55,4.55,0,0,0,4.67-4.59,4.7,4.7,0,0,0-4.61-4.73,4.82,4.82,0,0,0-4.71,4.66A4.66,4.66,0,0,0,395.1,325.76Z"/><path class="cls-13" d="M418.45,311.83a9.24,9.24,0,0,1,9.29,9.38,9.33,9.33,0,0,1-18.66-.08A9.24,9.24,0,0,1,418.45,311.83Zm0,13.93a4.57,4.57,0,0,0,4.66-4.61,4.66,4.66,0,1,0-9.31,0A4.56,4.56,0,0,0,418.41,325.76Z"/><path class="cls-13" d="M451,321.05a9.31,9.31,0,1,1-18.61,0,9.31,9.31,0,0,1,18.61,0Zm-9.3-4.61a4.75,4.75,0,0,0-4.65,4.7,4.59,4.59,0,0,0,4.66,4.62,4.65,4.65,0,0,0,4.68-4.63A4.84,4.84,0,0,0,441.68,316.44Z"/><path class="cls-15" d="M448.93,377.65c3.26,0,3.63.47,2.95,3.68-.71,3.37-1.39,6.74-2.13,10.11a5,5,0,0,1-7.09,3.22,1.74,1.74,0,0,1-.78-2.11c.87-4,1.65-8,2.54-12C444.88,378.52,446.31,377.66,448.93,377.65Z"/><path class="cls-15" d="M479.76,429.89c-3.35,0-3.66-.33-3-3.42.71-3.55,1.43-7.11,2.22-10.64.62-2.78,4.65-4.42,7-2.91a1.76,1.76,0,0,1,.72,2.12c-.86,4-1.55,8-2.49,12C483.67,429.33,481.89,430.1,479.76,429.89Z"/><path class="cls-12" d="M395.1,325.76a4.66,4.66,0,0,1-4.65-4.66,4.82,4.82,0,0,1,4.71-4.66,4.7,4.7,0,0,1,4.61,4.73A4.55,4.55,0,0,1,395.1,325.76Z"/><path class="cls-12" d="M418.41,325.76a4.56,4.56,0,0,1-4.65-4.62,4.66,4.66,0,1,1,9.31,0A4.57,4.57,0,0,1,418.41,325.76Z"/><path class="cls-12" d="M441.68,316.44a4.84,4.84,0,0,1,4.69,4.69,4.65,4.65,0,0,1-4.68,4.63,4.59,4.59,0,0,1-4.66-4.62A4.75,4.75,0,0,1,441.68,316.44Z"/><path class="cls-13" d="M561.87,291.94H366.63c-.79.61-.93,1.78-1.07,4.2v49.18c0,1.48,0,3,.05,4.45q0,11.12.05,22.23c0,1.09.1,2.18.1,3.27q0,38.91,0,77.82c0,1.55-.09,3.1,1.12,4.33,1.19,0,2.37.12,3.55.12l187.86,0c4.26,0,4.54-.27,4.55-4.44q.09-54.29.16-108.56,0-25.69,0-51.39A3.1,3.1,0,0,0,561.87,291.94ZM370.39,342.56q.18-21.88,0-43.75c0-2.4.79-2.79,2.95-2.77q59.88.36,119.77.6l61.52.29c3.55,0,3.55,0,3.55,3.51q0,21.06,0,42.11c0,4.13.7,3.69-3.84,3.69h-90v-.93q-45.53,0-91.05.05C371.1,345.37,370.37,344.91,370.39,342.56Zm185,110.51q-45.66-.12-91.34-.05-45.39,0-90.79.05c-2.25,0-2.87-.55-2.86-2.83q.1-48.81,0-97.63c0-2.07.46-2.76,2.67-2.75q91.33.56,182.67.9c2.17,0,2.47.72,2.47,2.64q-.09,48.41,0,96.81C558.26,452.45,557.73,453.08,555.43,453.07Z"/><rect class="cls-13" x="368.68" y="344.17" width="191.44" height="7.11"/><g class="cls-16"><path class="cls-13" d="M251.37,568a2.07,2.07,0,0,1-.6,2.85,2.08,2.08,0,1,1-2.26-3.48A2.1,2.1,0,0,1,251.37,568Z"/><path class="cls-17" d="M246.18,559a2.08,2.08,0,0,1-.75,2.82,2,2,0,0,1-2.93-.83,1.9,1.9,0,0,1,.86-2.74A2.07,2.07,0,0,1,246.18,559Z"/><path class="cls-17" d="M242.3,573.23a2,2,0,0,1-.58,2.84,1.9,1.9,0,0,1-2.83-.48,1.93,1.93,0,0,1,.57-3A2.05,2.05,0,0,1,242.3,573.23Z"/><path class="cls-17" d="M209.14,582.9a2.06,2.06,0,0,1-2.78-.82,1.92,1.92,0,0,1,.91-2.89,1.85,1.85,0,0,1,2.69.93A2,2,0,0,1,209.14,582.9Z"/><path class="cls-17" d="M237.09,564.19c.49,1.27.3,2.32-.8,2.94a1.91,1.91,0,0,1-2.79-.82,1.87,1.87,0,0,1,.79-2.78A2.06,2.06,0,0,1,237.09,564.19Z"/><path class="cls-17" d="M175.38,566.15a2,2,0,0,1-2.79-.71,1.89,1.89,0,0,1,.62-2.8,1.93,1.93,0,0,1,2.95.73A2,2,0,0,1,175.38,566.15Z"/><path class="cls-17" d="M161.8,559.42a2,2,0,0,1-.56,2.85,1.88,1.88,0,0,1-2.82-.48,1.92,1.92,0,0,1,.55-3A2,2,0,0,1,161.8,559.42Z"/><path class="cls-17" d="M195.68,576.18c.44,1.21.32,2.23-.8,2.85a2,2,0,1,1-1.95-3.6A2.06,2.06,0,0,1,195.68,576.18Z"/><path class="cls-17" d="M228.07,569.61a2,2,0,0,1-.81,2.74,1.91,1.91,0,0,1-2.88-.93,1.86,1.86,0,0,1,.92-2.69A2,2,0,0,1,228.07,569.61Z"/><path class="cls-17" d="M216.13,574a2,2,0,0,1,2.84.79,2,2,0,1,1-3.55,2A2,2,0,0,1,216.13,574Z"/><path class="cls-17" d="M233.26,578.54a2,2,0,0,1-.74,2.86,1.91,1.91,0,0,1-2.89-.9,1.88,1.88,0,0,1,.9-2.71A2,2,0,0,1,233.26,578.54Z"/><path class="cls-17" d="M213.84,565.89a1.94,1.94,0,0,1-1,2.71,1.89,1.89,0,0,1-2.73-1,1.86,1.86,0,0,1,1-2.71A1.92,1.92,0,0,1,213.84,565.89Z"/><path class="cls-17" d="M222.85,560.6a2,2,0,0,1-.92,2.75,2,2,0,1,1-1.86-3.62A2,2,0,0,1,222.85,560.6Z"/><path class="cls-17" d="M164.21,567.79a2,2,0,0,1,2.84.76,1.89,1.89,0,0,1-.73,2.8,1.85,1.85,0,0,1-2.79-.71A2,2,0,0,1,164.21,567.79Z"/><path class="cls-17" d="M204.74,571.05a1.94,1.94,0,0,1-.86,2.76,2,2,0,1,1-1.94-3.59A2,2,0,0,1,204.74,571.05Z"/><path class="cls-17" d="M147.55,555.75a2,2,0,0,1-.78,2.81,2.06,2.06,0,0,1-2-3.59A2,2,0,0,1,147.55,555.75Z"/><path class="cls-17" d="M181.4,572.31a2.06,2.06,0,0,1-.75,2.83,2,2,0,1,1-2.14-3.45A2.07,2.07,0,0,1,181.4,572.31Z"/><path class="cls-17" d="M189.54,570a2,2,0,1,1-1.9-3.61,1.89,1.89,0,0,1,2.78.82A1.92,1.92,0,0,1,189.54,570Z"/><path class="cls-17" d="M198.6,564.77a1.93,1.93,0,0,1-2.74-.83,1.89,1.89,0,0,1,.82-2.77,1.85,1.85,0,0,1,2.76.8A1.91,1.91,0,0,1,198.6,564.77Z"/><path class="cls-13" d="M254.8,539.62c.46-1,1.47-1.29,2.27-1.86-.17.77.52.64.88.86a2.09,2.09,0,0,1,1.17,2.68,1.86,1.86,0,0,1-2.13,1.33,2,2,0,0,1-1.87-2.2C255.13,540.11,255.19,539.78,254.8,539.62Z"/><path class="cls-13" d="M259.74,565.71a2.1,2.1,0,0,1-2.84-.61,2,2,0,0,1,.67-3,1.93,1.93,0,0,1,2.8.72A2.09,2.09,0,0,1,259.74,565.71Z"/><path class="cls-13" d="M285.46,522.5a.18.18,0,0,0-.23,0,11.12,11.12,0,0,1,.93,1.38,2,2,0,0,1-1,2.89,1.87,1.87,0,0,1-2.77-1.21c-.51-1.36.21-2.17,1.45-2.68C284.38,522.62,285,523.11,285.46,522.5Z"/><path class="cls-13" d="M255.2,553.84a2,2,0,0,1-.79,2.81,2,2,0,0,1-2.93-.91,1.94,1.94,0,0,1,.94-2.73A2,2,0,0,1,255.2,553.84Z"/><path class="cls-13" d="M260.54,550.57a2,2,0,0,1,.88-2.76,1.85,1.85,0,0,1,2.75.75,1.91,1.91,0,0,1-.85,2.92A2.06,2.06,0,0,1,260.54,550.57Z"/><path class="cls-13" d="M269.38,557.54a1.93,1.93,0,0,1-.54,2.84,2,2,0,0,1-3-.69,2.06,2.06,0,0,1,3.52-2.15Z"/><path class="cls-13" d="M290.82,535.62c-1.21.56-2.23.47-2.94-.58a1.87,1.87,0,0,1,.48-2.82,2,2,0,0,1,3,.59A2.14,2.14,0,0,1,290.82,535.62Z"/><path class="cls-13" d="M281.54,541a2.09,2.09,0,0,1-2.8-.85,1.84,1.84,0,0,1,.69-2.76,1.9,1.9,0,0,1,2.92.81A2.08,2.08,0,0,1,281.54,541Z"/><path class="cls-13" d="M272.59,546.17a2.05,2.05,0,0,1-2.81-.67,1.86,1.86,0,0,1,.51-2.81,1.88,1.88,0,0,1,3,.63A2.06,2.06,0,0,1,272.59,546.17Z"/><path class="cls-13" d="M265.1,533.62a2.05,2.05,0,1,1,2.16,3.49,1.87,1.87,0,0,1-2.76-.72A1.91,1.91,0,0,1,265.1,533.62Z"/><path class="cls-13" d="M276.47,531.85c-1.29.56-2.27.41-2.93-.69a1.82,1.82,0,0,1,.62-2.76,1.91,1.91,0,0,1,2.94.74A2,2,0,0,1,276.47,531.85Z"/><path class="cls-13" d="M289.24,508.15a.17.17,0,0,0-.23,0,9.46,9.46,0,0,1,.92,1.38,2,2,0,0,1-1,2.89,1.88,1.88,0,0,1-2.77-1.21c-.5-1.36.21-2.18,1.45-2.68C288.16,508.27,288.81,508.76,289.24,508.15Z"/><path class="cls-13" d="M294.6,521.27c-1.22.56-2.23.47-3-.58a1.87,1.87,0,0,1,.48-2.82,2,2,0,0,1,3,.59A2.14,2.14,0,0,1,294.6,521.27Z"/><path class="cls-13" d="M285.31,526.65a2.08,2.08,0,0,1-2.79-.85,1.84,1.84,0,0,1,.68-2.77,1.92,1.92,0,0,1,2.93.82A2.08,2.08,0,0,1,285.31,526.65Z"/><path class="cls-13" d="M280.24,517.5c-1.28.56-2.26.41-2.92-.69a1.82,1.82,0,0,1,.62-2.77,1.92,1.92,0,0,1,2.94.74A2,2,0,0,1,280.24,517.5Z"/><path class="cls-13" d="M278.46,552.31a2.06,2.06,0,1,1-3.53,2.1,1.89,1.89,0,0,1,.74-2.78A1.92,1.92,0,0,1,278.46,552.31Z"/><path class="cls-18" d="M171.81,415.38c-7.5-12.95-14.95-25.94-22.56-38.83-1.22-2.07-.83-2.89,1.18-3.89,24.17-12,49.14-14,74.71-5.46,24.71,8.21,42.93,24.29,55.12,47.23a95.15,95.15,0,0,1,7.56,19.34c.46,1.69.32,2.5-1.64,2.92q-44.33,9.54-88.62,19.26c-1.87.41-2.5-.37-3.27-1.71Q183.08,434.79,171.81,415.38Z"/><path class="cls-18" d="M221.24,500.72c-7.38-12.73-14.72-25.49-22.17-38.18-1.19-2-.78-2.45,1.36-2.91q42.87-9.24,85.71-18.63c3.22-.7,3.3-.71,3.71,2.53q7.35,57.5-38.3,93.25c-2,1.58-4.46,4.09-6.46,3.88-2.17-.23-2.91-3.9-4.2-6.09-6.59-11.26-13.1-22.57-19.64-33.86Z"/><path class="cls-19" d="M167.47,416.7c7.41,12.8,14.8,25.62,22.28,38.39,1,1.74.87,2.22-1.19,2.57q-43.8,7.43-87.59,15c-1.88.32-2.45-.13-2.63-2-3.3-34.68,8-63.54,34.37-86.39a80.69,80.69,0,0,1,9.09-6.67c1.73-1.13,2.52-1,3.59.84C152.68,391.25,160.09,404,167.47,416.7Z"/><path class="cls-20" d="M110.84,507.34A97.46,97.46,0,0,1,99.93,479.7c-.41-1.79-.23-2.58,1.87-2.93q43.58-7.36,87.13-14.92c1.94-.34,2.46-.17,1.87,2Q179,506.51,167.39,549.25c-.5,1.85-1.08,2.14-2.83,1.55-20.22-6.76-36.63-18.66-49-36.07-.87-1.23-1.77-2.44-2.58-3.71S111.56,508.57,110.84,507.34Z"/><path class="cls-11" d="M195.07,465c.85.35,1,1.14,1.37,1.75Q218.19,504,240,541.26c1.08,1.86.81,2.59-1.05,3.51-21.13,10.43-43.16,13.51-66.25,8.32-1.32-.29-1.8-.62-1.39-2.1q11.78-42.69,23.46-85.4A2.89,2.89,0,0,1,195.07,465Z"/><path class="cls-2" d="M240.51,549.25l-.36-.18.45-.35Z"/><path class="cls-21" d="M283.9,411.86l.24.57Z"/><path class="cls-17" d="M291.24,519.78c.34-2,1.51-2.59,3.38-2,1.16,1.26,1.34,2.63-.22,3.54S291.75,521.41,291.24,519.78Z"/><path class="cls-17" d="M293.73,495.23a2,2,0,0,1-.86,2.82,1.89,1.89,0,0,1-2.77-.81,1.92,1.92,0,0,1,.84-2.79A2,2,0,0,1,293.73,495.23Z"/><path class="cls-17" d="M301.3,466.59a2,2,0,0,1-.66,2.85,2.06,2.06,0,0,1-2.16-3.51A1.94,1.94,0,0,1,301.3,466.59Z"/><path class="cls-17" d="M303.78,474.89a2.06,2.06,0,0,1,2.82.89,2,2,0,1,1-3.58,1.93A2.06,2.06,0,0,1,303.78,474.89Z"/><path class="cls-17" d="M296.8,507.46l-.61-.19a2.13,2.13,0,0,1-.77-3,1.89,1.89,0,0,1,2.12-.95,1.91,1.91,0,0,1,1.66,1.9C299.25,506.79,298.18,507.32,296.8,507.46Z"/><path class="cls-13" d="M302.76,455.56c-1.08-.75-1.93-1.66-1.29-3.06a1.94,1.94,0,0,1,2.24-1.14c1.39.26,1.75,1.3,1.8,2.55l-1.41,1.59Z"/><path class="cls-17" d="M302.73,490a1.9,1.9,0,0,1-.79,2.81,1.87,1.87,0,0,1-2.76-.81,1.9,1.9,0,0,1,.8-2.77A1.92,1.92,0,0,1,302.73,490Z"/><path class="cls-17" d="M298.84,446.43c-2.79-.33-3.27-1.15-2.14-3.68,1.22-.61,2.43-.72,3.19.6S300,445.67,298.84,446.43Z"/><path class="cls-17" d="M279,403.57a132.24,132.24,0,0,0-16.18-19.24A173.2,173.2,0,0,0,248,373.13l-4.37-2.59a109.07,109.07,0,0,0-32.72-11.33,149.69,149.69,0,0,0-15.67-1.51h-4.71c-6.07.48-12.09,1.29-18.09,2.29A145.88,145.88,0,0,0,149.85,368a120.74,120.74,0,0,0-20.27,13.32c-19.61,16.56-31.83,37.51-35,62.88-5.25,41.93,10.17,75.09,44.76,99.35.71.5,1.73.71,1.94,1.84-1.51.48-3.35.74-2.69,3a1.85,1.85,0,0,0,2.58,1.31c2.09-.8,1.32-2.46.69-4.35L152,550.45c.51.25.62.68.76,1.19.47,1.87,1.64,2.44,3.37,1.54.46-.24.84-.54,1.39-.35,3.07,1.06,6.18,2.06,9.22,3.22.88.34,1.38,1.51,2.56,1.35,3.67-.5,7,1.22,10.61,1.44a1.89,1.89,0,0,1,1.53,1.1c1,1.67,2.43,1.77,3.66.29.7-.83,1.42-.68,2.23-.62a90.12,90.12,0,0,0,16.26-.22c1.36-.14,2.57.65,3.93.22,6.87-2.18,14.11-2.88,21.31-5.85-.81,2-1.44,3.65.61,4.47a1.83,1.83,0,0,0,2.49-1.07c.91-2.1-.89-2.62-2.44-3.48,2.16-.93,4.05-1.79,6-2.56.53-.21,1.25-.67,1.63.38.56,1.55,1.7,2.14,3.14,1.24s1.12-2.25.29-3.49l-.36-.18.45-.35,2.59-1.19c1.23-1,2.38-2,3.76-.06a1.66,1.66,0,0,0,2.29.1c.77-.49,1.36-1.41.86-2.08-1.66-2.22.38-2.63,1.52-3.5l3.18-2.37c.46-1,1.47-1.29,2.27-1.86a85.14,85.14,0,0,0,17.22-17.32l5.31-7.34a2,2,0,0,1,.52-.73,10.13,10.13,0,0,1,1.26-2.23c.79-1.4,1.83-3.3,2.8-5.18a2.9,2.9,0,0,1,.17-.39,106.91,106.91,0,0,0,8.21-22c.06-.21.28-.37.57-.74,1,1.36,1.89,3.09,3.87,1.76a1.77,1.77,0,0,0,.59-2.44c-1.1-2.07-2.64-1.05-4-.5a1.37,1.37,0,0,1-.28-1.45,97.46,97.46,0,0,0,2-17.37,4.49,4.49,0,0,1,1.21-2.65c.14-1.62-1.84-2.76-1-4.53-.67-5.5-1-11-2.21-16.46-.06-.25.2-.58.31-.86,2-2,1.92-3-.65-4.12a2,2,0,0,1-1.25-1.4,110.35,110.35,0,0,0-7.05-18.42l-.48-1-.24-.57c-.29-.55-.58-1.1-.88-1.65l-2.25-3.91ZM98.34,470.69c-3.3-34.68,8-63.54,34.37-86.39a80.69,80.69,0,0,1,9.09-6.67c1.73-1.13,2.52-1,3.59.84,7.29,12.78,14.7,25.49,22.08,38.23s14.8,25.62,22.28,38.39c1,1.74.87,2.22-1.19,2.57q-43.8,7.43-87.59,15C99.09,473,98.52,472.56,98.34,470.69Zm66.22,80.11c-20.22-6.76-36.63-18.66-49-36.07-.87-1.23-1.77-2.44-2.58-3.71s-1.43-2.45-2.15-3.68A97.46,97.46,0,0,1,99.93,479.7c-.41-1.79-.23-2.58,1.87-2.93q43.58-7.36,87.13-14.92c1.94-.34,2.46-.17,1.87,2Q179,506.51,167.39,549.25C166.89,551.1,166.31,551.39,164.56,550.8Zm74.35-6c-21.13,10.43-43.16,13.51-66.25,8.32-1.32-.29-1.8-.62-1.39-2.1q11.78-42.69,23.46-85.4a2.89,2.89,0,0,1,.34-.61c.85.35,1,1.14,1.37,1.75Q218.19,504,240,541.26C241,543.12,240.77,543.85,238.91,544.77Zm50.94-101.24q7.35,57.5-38.3,93.25c-2,1.58-4.46,4.09-6.46,3.88-2.17-.23-2.91-3.9-4.2-6.09-6.59-11.26-13.1-22.57-19.64-33.86h0c-7.38-12.73-14.72-25.49-22.17-38.18-1.19-2-.78-2.45,1.36-2.91q42.87-9.24,85.71-18.63C289.36,440.3,289.44,440.29,289.85,443.53Zm-9.59-29.1a95.15,95.15,0,0,1,7.56,19.34c.46,1.69.32,2.5-1.64,2.92q-44.33,9.54-88.62,19.26c-1.87.41-2.5-.37-3.27-1.71q-11.21-19.46-22.48-38.86c-7.5-12.95-14.95-25.94-22.56-38.83-1.22-2.07-.83-2.89,1.18-3.89,24.17-12,49.14-14,74.71-5.46C249.85,375.41,268.07,391.49,280.26,414.43Z"/></g></svg>