<svg id="Calque_1" data-name="Calque 1" xmlns="http://www.w3.org/2000/svg" xmlns:xlink="http://www.w3.org/1999/xlink" viewBox="0 0 607.07 607.07"><defs><style>.cls-1,.cls-20{fill:none;}.cls-2{fill:#7fd6c2;}.cls-3{fill:#f2f4e5;}.cls-4{fill:#7dd2bf;}.cls-5{fill:#a8c3f8;}.cls-6{fill:#f4de49;}.cls-7{fill:#7ed4c0;}.cls-8{fill:#f6e049;}.cls-9{fill:#3d3f4d;}.cls-10{fill:#3a3c4a;}.cls-11{fill:#383a48;}.cls-12{fill:#de709d;}.cls-13{fill:#7fd5c1;}.cls-14{fill:#3f4354;}.cls-15{fill:#fff;}.cls-16{fill:#e0e0e0;}.cls-17{fill:#df729e;}.cls-18{clip-path:url(#clip-path);}.cls-19{fill:#f3f6e6;}.cls-20{stroke:#3d3f4d;stroke-linecap:round;stroke-linejoin:round;stroke-width:4px;}</style><clipPath id="clip-path"><circle class="cls-1" cx="303.54" cy="312.07" r="242.37"/></clipPath></defs><title>design_RVB</title><circle class="cls-2" cx="303.54" cy="311.41" r="242.37"/><path class="cls-3" d="M288.07,296.14c-7.57,3.16-15.16,6.28-22.7,9.5-1.48.63-2.1-.31-2.82-1.11-1.5-1.67-2.83-1.56-4.38,0-5.71,5.81-11.48,11.55-17.23,17.32q-27,27-54,54.07a4.16,4.16,0,0,1-3.19,1.35q-47.31,0-94.64,0c-1.62,0-2.24-.33-2.24-2.13q.08-66.43,0-132.87A4.38,4.38,0,0,1,88.48,239q17.4-17.35,34.76-34.75a23.32,23.32,0,0,0,1.62-1.68,2.08,2.08,0,0,0-.07-3,2,2,0,0,0-3,0c-.52.45-1,1-1.48,1.46q-15.45,15.45-30.88,30.9A19.82,19.82,0,0,0,87.75,234c-1.21-.82-.84-1.58-.84-2.19,0-15.87,0-31.73-.08-47.59,0-2.16.71-2.54,2.66-2.53q140.94.06,281.86,0c2.23,0,2.69.66,2.69,2.77q-.09,95,0,190.07c0,2.09-.4,2.77-2.65,2.76q-36.52-.12-73.06,0c-2.44,0-2.63-.62-2-2.75,2.59-8.52,5-17.1,7.54-25.64.47-1.57.57-2.92-.89-3.91s-1.37-2.23-.73-3.78c5.65-13.66,11.17-27.38,16.87-41,1-2.46.82-4.18-1.26-5.91a41.41,41.41,0,0,1-5-4.95c-1.55-1.82-3.17-2.16-5.25-1.07a18.47,18.47,0,0,1-2.65.93c-1.11-.48-2.2-1-3.32-1.44-12.32-4.76-23.39-11.3-31.6-22-2.45-3.18-2.39-3.16.23-6.35,5.35-6.54,10.3-13.33,12.23-21.78,2.64-11.53-5.52-21.29-17.07-20.2-7.12.68-11.49,5.35-14.2,11.54-4.12,9.38-3.43,19-.34,28.43.66,2,.31,3.18-1.23,4.41-3.31,2.65-6.44,5.54-9.84,8.08-10.84,8.07-22.34,14.93-35.71,18-13,3-21.65-.75-27.08-11.49-2.4-4.74-2.4-4.74,1.76-8.13.4-.33.82-.63,1.21-1,5.71-5,10.84-10.54,13.1-18.06,2-6.72.68-12.68-4.52-17.58A11.38,11.38,0,0,0,175,229.86a21.32,21.32,0,0,0-8.53,8.87,46.37,46.37,0,0,0-5.67,23.21,3.82,3.82,0,0,1-2.61,4.11A69.12,69.12,0,0,1,145,270.76c-8,1.74-15.79,2-23-2.9-3.65-2.46-7.44-1.79-9.6,1.41s-1.28,6.89,2.28,9.48a32.79,32.79,0,0,0,14.59,5.81c11.11,1.7,21.52-1,31.59-5.32,2-.89,2.79-.77,3.78,1.38,4.95,10.67,12.48,18.48,24.52,20.86,7.41,1.47,14.68.43,21.81-1.67,17.13-5,31.72-14.54,45.08-26.09,1.74-1.51,2.45-1.48,3.89.4C267.36,283.87,277,291,288.07,296.14Zm64-75.91c0-1.7-.86-2.32-3.38-2.57-7.37-.75-11.87-4.67-13.58-11.88a26.74,26.74,0,0,1-.76-6.18,2.12,2.12,0,0,0-2.13-2.43c-1.57-.09-2.09,1-2.28,2.3-.12.85-.13,1.72-.18,2.59-.56,9.28-5.33,14.41-14.54,15.63a7.8,7.8,0,0,0-1.53.29,2,2,0,0,0-1.5,2.17,2.05,2.05,0,0,0,1.8,1.94c.42.09.86.07,1.29.12,8,.84,12.58,5,14.1,12.91.36,1.86.35,3.79.59,5.68.16,1.23.83,2.15,2.21,2.08a2.17,2.17,0,0,0,2.16-2.18c.07-.69,0-1.39.08-2.08.55-5.91,2.18-11.25,7.78-14.45a16.92,16.92,0,0,1,7.46-2C351.05,222.08,351.94,221.48,352.06,220.23Zm-206,111.12c-.27-1.38-1.3-1.92-2.75-2-2.62-.19-4-1.79-4.56-4.23-.23-1-.3-2.05-.55-3.06a1.91,1.91,0,0,0-1.85-1.54,2,2,0,0,0-2.16,1.5,17.51,17.51,0,0,0-.33,2.05c-.64,3.61-1.57,4.57-5.27,5.31-1.34.27-2.31.88-2.24,2.36s1.11,2,2.44,2.19c3.29.57,4.38,1.68,5,5,.13.68.18,1.38.31,2.05a2.1,2.1,0,0,0,4.15.07c.07-.33.09-.68.13-1,.42-3.38,1.61-6,5.64-6.16C145.31,333.76,146.06,332.85,146.1,331.35Z"/><path class="cls-4" d="M70.61,250.71a3.58,3.58,0,0,1-.49-2.59c0-26.35,0-52.7-.06-79.05,0-2.23.49-2.93,2.84-2.93q157.57.09,315.15,0c2.31,0,2.9.65,2.9,2.93q-.09,110.51,0,221c0,2.1-.5,2.82-2.72,2.81q-47.19-.11-94.39,0c-2.3,0-2.9-.5-2.07-2.71,1-2.67,1-6.23,2.84-7.9s5.46-.51,8.29-.52q35.63-.06,71.25,0c3.84,0,4.33-.49,4.33-4.35V181.6c0-3.82-.37-4.19-4.13-4.19H86.76c-4,0-4.18.21-4.18,4.08,0,18.2,0,36.4,0,54.6a5.44,5.44,0,0,1-1.76,4.34C77.42,243.73,74.12,247.17,70.61,250.71Z"/><path class="cls-5" d="M255.58,145.63q78.53,0,157.06,0c2.54,0,3.32.5,3.31,3.22q-.12,110.13,0,220.25c0,2.63-.63,3.43-3.3,3.3a136.23,136.23,0,0,0-14.29,0c-2.81.16-3.18-.88-3.18-3.35q.1-71,.05-142V166.18c0-3.92,0-3.93-3.92-4.33-.76-.07-1.29-.08-1.29-1.1a1.93,1.93,0,0,0-2.17-2.06,1.84,1.84,0,0,0-2,1.93c0,1.13-.55,1.26-1.44,1.23-1.12,0-2.25,0-3.38,0s-2,0-2-1.55c0-.93-.78-1.49-1.75-1.61s-2,.29-2.09,1.12c-.15,2.36-1.67,2.09-3.2,2-1.74-.06-3.83.68-4.11-2.25-.07-.75-1.11-1-2-.91a1.84,1.84,0,0,0-1.81,1.6c-.13,2.69-2.14,1.47-3.25,1.47s-3.08,1.21-3.38-1.36a1.93,1.93,0,0,0-2-1.72c-1.11,0-2,.5-2.11,1.52-.12,1.84-1.26,1.72-2.48,1.65-1.85-.12-4,.82-4.72-2.26-.34-1.48-3.15-1.29-3.44.27-.42,2.27-1.8,2-3.33,2s-3.65.64-3.94-2.13c-.08-.77-1.05-1.09-1.9-1s-1.84.57-1.85,1.5c0,1.89-1.18,1.71-2.39,1.68-.87,0-1.74,0-2.6,0-1,0-1.8,0-1.8-1.43a1.8,1.8,0,0,0-1.91-1.74c-1.09-.07-2.1.47-2.11,1.49,0,1.89-1.17,1.71-2.38,1.67-.78,0-1.56,0-2.34,0-1.2.07-2.17.07-2.16-1.63,0-.93-.85-1.47-1.82-1.54s-2.1.44-2.15,1.45c-.08,1.79-1.1,1.83-2.37,1.71-1.89-.18-4.23,1-4.9-2.33-.29-1.4-3.19-1.14-3.44.41-.36,2.16-1.61,2-3.08,1.93-1.79,0-3.58.47-4.23-2.25-.38-1.58-3.19-1.27-3.58.47-.69,3.08-2.95,1.38-4.49,1.73-1.23.28-2.29.11-2.42-1.65-.08-1-1-1.54-2.14-1.48s-1.81.58-1.83,1.52c-.05,1.61-.9,1.77-2.17,1.66a13.29,13.29,0,0,0-2.6,0c-1.36.16-2-.24-2.11-1.73-.09-1-1.06-1.53-2.15-1.45s-1.83.59-1.83,1.52c0,1.67-.92,1.73-2.15,1.65a24.81,24.81,0,0,0-2.86,0c-1.06.05-1.77-.06-1.78-1.45a1.77,1.77,0,0,0-1.92-1.72c-1.1-.05-2.09.51-2.1,1.51,0,1.93-1.22,1.67-2.41,1.65-.86,0-1.73,0-2.6,0-1,0-1.81,0-1.81-1.43a1.79,1.79,0,0,0-1.91-1.74c-1.1-.07-2.09.49-2.13,1.49-.07,1.85-1.18,1.72-2.41,1.68-1,0-1.9,0-2.86,0s-1.45-.05-1.48-1.21a2.1,2.1,0,0,0-4.18-.18c-.08,1.41-.85,1.5-1.86,1.38-1.94-.23-4.41,1.09-5.24-2.28-.36-1.47-3.13-1.23-3.43.35-.4,2.1-1.62,2-3.1,1.95-1.74-.07-3.84.72-4.18-2.2-.09-.77-1.08-1-1.93-1s-1.72.52-1.71,1.31c0,2.26-1.49,1.92-2.8,1.84-1.73-.1-4,1-4.4-2.17-.08-.76-1.08-1-1.94-1s-1.74.53-1.72,1.3c.06,2.26-1.46,2-2.76,1.83-1.69-.14-4.06,1.06-4.38-2.15-.08-.75-1.08-1-1.93-1s-1.82.65-1.83,1.53c0,1.68-.94,1.72-2.17,1.64a22.74,22.74,0,0,0-2.86,0c-1.08.07-1.74-.12-1.78-1.47a1.77,1.77,0,0,0-1.94-1.7,1.88,1.88,0,0,0-2.17,1.78c-.06,1.44-.86,1.45-1.86,1.38-2.08-.16-4.54,1-5.43-2.45-.38-1.46-3.15-.87-3.52.92-.61,3-2.75,1.11-4.13,1.46-1,.24-2.48.68-2.54-1.42a1.86,1.86,0,0,0-2-1.68c-1.1,0-2,.52-2.06,1.56-.06,2-1.37,1.65-2.52,1.59-1.84-.08-4.18.92-4.64-2.25-.11-.76-1.14-1-2-.88s-1.68.59-1.65,1.39c.08,2.16-1.37,1.82-2.61,1.74-1.8-.11-4.21,1-4.61-2.24-.09-.75-1.12-1-2-.89s-1.71.61-1.66,1.38c.11,2.18-1.35,1.85-2.57,1.74-1.77-.15-4.09,1.1-4.66-2.21-.24-1.44-3.21-1.29-3.45.24-.37,2.29-1.72,2-3.25,2-1.76,0-3.62.53-4.15-2.28-.27-1.43-3.15-1.26-3.45.29-.42,2.22-1.75,2.06-3.29,2s-3.71.67-4-2.17c-.07-.77-1.06-1-1.92-1s-1.72.49-1.76,1.27c-.1,2.06-1.38,2-2.82,1.91-1.83-.09-3.28.26-4.63-2.16-.87-1.56-1.9-2.8-1.84-4.67,0-1.42-.25-2.69,1.67-3.52,1.51-.65,1.23-2.34-.16-3.38-.63-.47-1.81-.39-1.48-1.67s1.57-.77,2.37-.78c6.68-.06,13.35,0,20,0ZM411.77,323.28a2.17,2.17,0,0,0-2.12-2.16,2,2,0,0,0-2.24,2.27,2,2,0,0,0,2.2,2.06A2.2,2.2,0,0,0,411.77,323.28Zm-13.08-143c-1.31.18-2.12.86-2.1,2.19a2,2,0,0,0,2.08,2.15,2,2,0,0,0,2.2-2.29A2.12,2.12,0,0,0,398.69,180.26Zm10.89,0a2.1,2.1,0,0,0-2.17,2.11,2,2,0,0,0,2,2.23,2.06,2.06,0,0,0,2.31-2.21A2.11,2.11,0,0,0,409.58,180.26Zm2.2,67.2a2.18,2.18,0,0,0-2.15-2.17,2,2,0,0,0-2.21,2,2,2,0,0,0,2.21,2.28C410.92,249.59,411.59,248.69,411.78,247.46Zm-10.85-.12a2.15,2.15,0,0,0-2.19-2.05,2,2,0,0,0-2.14,2.07,2,2,0,0,0,2.24,2.24C400.1,249.55,400.79,248.68,400.93,247.34Zm0,11a2.16,2.16,0,0,0-2.08-2.22,2.16,2.16,0,1,0-.11,4.32A2.15,2.15,0,0,0,400.92,258.34Zm10.85-.17a2.18,2.18,0,0,0-2.27-2.05,2,2,0,0,0-2.07,2.41,2,2,0,0,0,2.32,1.9A2.18,2.18,0,0,0,411.77,258.17Zm0-21.51c-.17-1.26-.77-2.13-2.11-2.19a2,2,0,0,0-2.25,2,2,2,0,0,0,2.17,2.32C410.9,238.76,411.54,237.87,411.78,236.66Zm0-43.49c-.26-1.25-1-2.11-2.27-2a2,2,0,0,0-2.07,2.42,2,2,0,0,0,2.32,1.9A2.2,2.2,0,0,0,411.77,193.17Zm-4.41,75.93c.2,1.3.87,2.13,2.2,2.12a2,2,0,0,0,2.17-2.07,2,2,0,0,0-2.29-2.22C408.12,267,407.53,267.9,407.36,269.1Zm2.24,30.34a2,2,0,0,0-2.19,2.06,2,2,0,0,0,2,2.24,2.15,2.15,0,1,0,.2-4.3Zm-8.67,12.89a2.16,2.16,0,0,0-2.19-2,2,2,0,0,0-2.14,2.07,2,2,0,0,0,2.24,2.23A2.18,2.18,0,0,0,400.93,312.33Zm8.68,2.34a2.22,2.22,0,0,0,2.11-2.14,2,2,0,0,0-2.26-2.24,2,2,0,0,0-2,2.19C407.43,313.75,408.29,314.46,409.61,314.67Zm-8.7,8.47a2.11,2.11,0,0,0-2.23-2,2,2,0,0,0-2.07,2.4,2,2,0,0,0,2.29,1.9A2.12,2.12,0,0,0,400.91,323.14Zm10.87,43.49c-.17-1.24-.77-2.11-2.11-2.17a2,2,0,0,0-2.25,2,2,2,0,0,0,2.16,2.33C410.89,368.76,411.55,367.87,411.78,366.63ZM400.93,193.19a2.18,2.18,0,0,0-2.15-2.07,2.16,2.16,0,1,0,0,4.32C400,195.42,400.79,194.58,400.93,193.19Zm8.6,13a2.15,2.15,0,1,0,0-4.3,2,2,0,0,0-2.07,2.17A2,2,0,0,0,409.53,206.23Zm.25,17.43c-1.5,0-2.29.73-2.36,2a1.94,1.94,0,0,0,1.94,2.25,2,2,0,0,0,2.36-2.11A2,2,0,0,0,409.78,223.66Zm-8.86,142.7a2.16,2.16,0,0,0-2.25-1.89,1.92,1.92,0,0,0-2.06,2.11,2,2,0,0,0,2.29,2.14C400.17,368.63,400.82,367.75,400.92,366.36Zm0-162.36c-.22-1.25-.92-2.1-2.2-2.06a2,2,0,0,0-2.09,2.35,1.91,1.91,0,0,0,2.25,1.9A2.09,2.09,0,0,0,400.91,204ZM292.66,149.82c-.29-1.18-.91-2.07-2.25-2a2,2,0,0,0-2.12,2.35,2,2,0,0,0,2.3,1.9C291.94,152,292.49,151.08,292.66,149.82Zm116.6,8.83a2,2,0,0,0-1.84,2.17,2,2,0,0,0,2.12,2.09,2,2,0,0,0,2.18-2.29C411.64,159.38,410.8,158.64,409.26,158.65Zm-54-6.59a2,2,0,0,0,2.3-2.09,2.16,2.16,0,1,0-4.31,0A1.94,1.94,0,0,0,355.28,152.06Zm56.5,127.87c-.21-1.21-.79-2.1-2.13-2.13a2,2,0,0,0-2.24,2.24,2,2,0,0,0,2.2,2C411,282,411.56,281.18,411.78,279.93Zm0,75.84c-.23-1.25-.83-2.09-2.18-2.11a2,2,0,0,0-2.18,2,2,2,0,0,0,2.24,2.22C411,357.87,411.59,357,411.78,355.77Zm0-65c-.22-1.23-.81-2.09-2.16-2.12a1.94,1.94,0,0,0-2.2,2,2,2,0,0,0,2.22,2.25C411,292.88,411.58,292,411.78,290.78Zm0-119.29c-.29-1.1-.84-2-2.2-2a2,2,0,0,0-2.19,2,2,2,0,0,0,2.24,2.24C411,173.7,411.59,172.82,411.8,171.49Zm0,162.54c-.25-1.24-.9-2.12-2.21-2.11a2,2,0,0,0-2.15,2.33,2,2,0,0,0,2.26,1.94A2.16,2.16,0,0,0,411.78,334ZM108.49,150c-.16-1.2-.7-2.14-2-2.21a2,2,0,0,0-2.31,2.16,2,2,0,0,0,2.12,2.09C107.59,152.08,108.25,151.28,108.49,150ZM411.78,344.83c-.29-1.24-.93-2.1-2.27-2a2,2,0,0,0-2.08,2.37,2,2,0,0,0,2.32,1.87C411.1,346.93,411.63,346,411.78,344.83ZM162.69,149.93c-.21-1.23-.81-2.11-2.14-2.13a2,2,0,0,0-2.21,2.25,1.93,1.93,0,0,0,2.19,2C161.87,152,162.48,151.17,162.69,149.93Zm8.39-2.16a2.07,2.07,0,0,0-2,2.21,2,2,0,0,0,2.4,2.05,1.94,1.94,0,0,0,1.9-2.28A2.09,2.09,0,0,0,171.08,147.77Zm54.39,4.3a2.14,2.14,0,1,0-.15-4.27,2,2,0,0,0-2,2.21A2,2,0,0,0,225.47,152.07Zm186.31-2.16c-.24-1.23-.85-2.11-2.19-2.12a2,2,0,0,0-2.17,2.3,2,2,0,0,0,2.24,2C411,152,411.58,151.13,411.78,149.91Zm0,65c-.26-1.27-.92-2.12-2.25-2.07a2,2,0,0,0-2.11,2.35,2,2,0,0,0,2.3,1.89A2.14,2.14,0,0,0,411.78,214.87Zm-65-65c-.26-1.07-.79-2-2.14-2a2,2,0,0,0-2.23,2.23,1.94,1.94,0,0,0,2.18,2C346,152,346.57,151.19,346.81,149.84Zm51.85,127.92a2,2,0,0,0-2.05,2.07,1.9,1.9,0,0,0,1.95,2.2,2,2,0,0,0,2.3-2.13C400.86,278.62,400,277.91,398.66,277.76Zm2.26,13c-.23-1.25-.87-2.07-2.21-2.06a2,2,0,0,0-2.1,2.32,1.92,1.92,0,0,0,2.25,1.92A2.12,2.12,0,0,0,400.92,290.72ZM398.7,162.93a2,2,0,0,0,2.16-2,2,2,0,0,0-2.23-2.23,1.92,1.92,0,0,0-2,2.15A2,2,0,0,0,398.7,162.93ZM119.27,149.86a2,2,0,0,0-2.1-2.06,2,2,0,0,0-2.18,2.27,2,2,0,0,0,2.22,2C118.56,152,119.17,151.19,119.27,149.86Zm281.65,75.83c-.25-1.23-.9-2.05-2.23-2a1.94,1.94,0,0,0-2.07,2.34,1.9,1.9,0,0,0,2.26,1.89C400.22,227.81,400.78,226.94,400.92,225.69Zm-2.16-77.92a2.05,2.05,0,0,0-2.15,2.08,1.89,1.89,0,0,0,2,2.18,2,2,0,0,0,2.29-2.15A2.06,2.06,0,0,0,398.76,147.77Zm-32.78,0a2.14,2.14,0,0,0-1.9,2.15,2,2,0,0,0,2.3,2.13,1.89,1.89,0,0,0,1.94-2.19C368.27,148.52,367.47,147.87,366,147.75ZM184.24,150a2.13,2.13,0,0,0-4.26-.09A1.94,1.94,0,0,0,182,152C183.4,152.09,184.11,151.34,184.24,150ZM400.91,345a2.11,2.11,0,0,0-2-2.18,2.12,2.12,0,1,0-.17,4.23C400,347.06,400.68,346.25,400.91,345Zm0-130.09c-.21-1.28-.88-2.11-2.22-2.1a1.94,1.94,0,0,0-2.08,2.16,1.9,1.9,0,0,0,2.14,2.07C400.11,217,400.74,216.17,400.91,214.9Zm-2.2,138.74a2,2,0,0,0-2.11,2.11,1.92,1.92,0,0,0,2,2.15,2,2,0,0,0,2.24-2.21A2,2,0,0,0,398.71,353.64ZM303.4,150a2.05,2.05,0,0,0-2-2.2,2,2,0,0,0-2.34,2.11,2,2,0,0,0,2.08,2.12C302.51,152.09,303.21,151.35,303.4,150Zm-21.59-.11c-.22-1.22-.84-2.1-2.17-2.1a2,2,0,0,0-2.17,2.28,1.91,1.91,0,0,0,2.21,2A2.13,2.13,0,0,0,281.81,149.9Zm-43.39-.06c-.22-1.27-.88-2.11-2.21-2a2,2,0,0,0-2.1,2.36,2,2,0,0,0,2.31,1.88C237.79,152,238.32,151.08,238.42,149.84Zm-21.61,0c-.27-1.22-.92-2.08-2.24-2a2,2,0,0,0-2,2.37,1.89,1.89,0,0,0,2.27,1.86C216.11,151.93,216.68,151.07,216.81,149.82Zm184.12,151.7a2.14,2.14,0,0,0-2.14-2,1.91,1.91,0,0,0-2.17,2,2,2,0,0,0,2.05,2.2C400,303.78,400.68,302.93,400.93,301.52ZM260.07,149.94a2,2,0,0,0-2.1-2.13,2,2,0,0,0-2.14,2.1,1.91,1.91,0,0,0,2.08,2.12A2,2,0,0,0,260.07,149.94Zm130-.37a2.1,2.1,0,0,0-2.27-1.76,2,2,0,0,0-2,2.25,1.91,1.91,0,0,0,2.23,2C389.39,152,390,151.12,390.06,149.57Zm-65,.37a2,2,0,0,0-2-2.13,1.94,1.94,0,0,0-2.23,2,1.91,1.91,0,0,0,2,2.23C324.14,152.1,324.89,151.39,325.08,149.94ZM398.65,336.2a2,2,0,0,0,2.21-2,2,2,0,0,0-2-2.23,1.94,1.94,0,0,0-2.2,2A2,2,0,0,0,398.65,336.2ZM249.22,149.93a2,2,0,0,0-2.12-2.12,2.11,2.11,0,1,0,0,4.22C248.44,152.05,249.11,151.26,249.22,149.93Zm84.27-2.17a2.07,2.07,0,0,0-1.85,2.25,1.9,1.9,0,0,0,2.19,2,2,2,0,0,0,2-2.18C335.81,148.53,335,147.86,333.49,147.76Zm45.7,2.2a2,2,0,0,0-2.08-2.15,2,2,0,0,0-2.16,2.07A1.92,1.92,0,0,0,377,152,2,2,0,0,0,379.19,150ZM203.6,152.05c1.34,0,2.21-.65,2.29-2a2,2,0,0,0-2-2.26,2.13,2.13,0,0,0-.31,4.24Zm-10.91-4.29a2.11,2.11,0,0,0-1.85,2.24,1.94,1.94,0,0,0,2.19,2,1.9,1.9,0,0,0,2-2.17C195,148.51,194.18,147.87,192.69,147.76Zm-53.94,4.3A2,2,0,0,0,140.9,150a2.11,2.11,0,1,0-4.22-.1C136.64,151.25,137.42,151.92,138.75,152.06Zm260,119.15a2,2,0,0,0,2.08-2.1,2,2,0,0,0-2.09-2.17,2,2,0,0,0-2.14,2.1C396.58,270.39,397.35,271.09,398.78,271.21Zm2.13-99.59c-.18-1.28-.82-2.1-2.17-2.12a1.89,1.89,0,0,0-2.11,2.09,2,2,0,0,0,2.09,2.14A2.13,2.13,0,0,0,400.91,171.62Zm-2.17,67.16c1.26-.19,2.13-.87,2.12-2.18a2,2,0,0,0-2.14-2.1,1.9,1.9,0,0,0-2.1,2.1A2.09,2.09,0,0,0,398.74,238.78ZM151.83,149.7a2.16,2.16,0,0,0-2.29-1.89,2,2,0,0,0-2,2.22,1.92,1.92,0,0,0,2.21,2C151.09,152,151.7,151.11,151.83,149.7Zm160.26,2.37a2.13,2.13,0,1,0-2.13-2.23C309.89,151.17,310.68,151.88,312.09,152.07Zm-43.31-4.3a2,2,0,0,0-2.12,2.16,1.89,1.89,0,0,0,2.1,2.1,1.94,1.94,0,0,0,2.12-2.1A2.08,2.08,0,0,0,268.78,147.77ZM130.1,149.86a2,2,0,0,0-2.09-2.05,2,2,0,0,0-2.16,2.08,1.94,1.94,0,0,0,2.08,2.14C129.28,152.07,130,151.3,130.1,149.86Z"/><path class="cls-6" d="M170.37,475.13c1.83-11.4-.73-21.38-8.91-29.43s-18.21-10.47-29.46-8.34c.27-1,1.07-1.5,1.66-2.09Q174,394.91,214.3,354.52c1.65-1.65,2.49-1.73,4.17,0q17.34,17.58,34.92,34.93c1.37,1.36,1.41,2.05,0,3.44q-40.5,40.36-80.91,80.84A3.71,3.71,0,0,1,170.37,475.13Zm14.29-38.51c1.89.12,5.08-.95,7.59-3.43,8.87-8.77,17.77-17.5,26.41-26.49,5-5.15,4.43-13.61-.67-18.57s-13.61-5.35-18.64-.47c-8.88,8.63-17.66,17.37-26.24,26.29-3.93,4.1-4.71,9.25-2.37,14.49S177.2,436.42,184.66,436.62Z"/><path class="cls-7" d="M180.93,381.75c-3.85,3.89-7.17,7.26-10.51,10.6-.69.69-1.62.5-2.47.5q-47.71,0-95.43,0c-2,0-2.45-.61-2.45-2.51q.08-65.52,0-131a3.51,3.51,0,0,1,.86-2.86c3.7-3.63,7.34-7.33,11.16-11.15.72,1.1.43,2.14.43,3.09q0,64.35,0,128.7c0,4.49.15,4.63,4.73,4.63h93.63Z"/><path class="cls-8" d="M166.55,468.48a27.28,27.28,0,1,1-26.8-27.43A27.14,27.14,0,0,1,166.55,468.48Z"/><path class="cls-9" d="M217.4,242.64c.38.14,1,.36,1.66.61l8.64,3.39c1.17.46,1.94,1.21,1.38,2.52s-1.58,1.2-2.64.79l-10-3.94a1.7,1.7,0,0,1-1.2-2.11C215.48,242.93,216.16,242.58,217.4,242.64Z"/><path class="cls-9" d="M241.5,233.73a2,2,0,0,1-1,1.63,1.51,1.51,0,0,1-1.92-.23c-2.74-2.81-5.47-5.63-8.13-8.51a1.7,1.7,0,0,1,2.39-2.38c2.81,2.84,5.55,5.75,8.29,8.66A2.29,2.29,0,0,1,241.5,233.73Z"/><path class="cls-9" d="M220.67,266.77l.83-.06c1.24-.11,2.51-.12,2.62,1.53s-1.09,1.83-2.37,1.93c-3.31.25-6.62.55-9.92.87-1.26.12-2.31-.1-2.41-1.56s.9-1.81,2.16-1.91c3-.24,6.06-.55,9.09-.83Z"/><path class="cls-10" d="M297.21,286.78c-4.29,0-8.58,0-12.87,0-2.94,0-3.56-.87-2.54-3.51q10-26.14,20.06-52.27c.54-1.43,1.21-2.37,2.95-2.32a2.31,2.31,0,0,1,2.6,2.31l3.39,31.78q1.13,10.53,2.24,21.05c.25,2.25-.28,2.93-2.53,2.95C306.08,286.81,301.65,286.78,297.21,286.78Zm-2.86-3.63c4.83,0,9.32,0,13.81,0,1.06,0,1.24-.31,1.12-1.32-.71-6.25-1.35-12.51-2-18.76-.35-3.28-.72-6.56-1.08-9.84h-.35Z"/><path class="cls-10" d="M360.4,330.6q-4.31-26.64-8.6-53.26-4.47-27.66-9-55.31c-1.17-7.23-2.31-14.48-3.5-21.71-.46-2.76-.63-2.85-3.53-2.86h-8.08c-.1,0-27.55.52-33.36.52a6,6,0,0,0-4.65,1.93c-.14.29-.36.57-.46.83l-1.36,3.18h0q-5.32,12.52-10.66,25-23,54-46,108c-.46,1.07-1.17,2.13-.13,3.25a4.15,4.15,0,0,0,2.22.39h36.94a4.35,4.35,0,0,0,2.22-.36c2.21-4.16,3.66-8.64,5.49-13,1.94-4.58,3.83-9.18,5.63-13.82a2.15,2.15,0,0,1,2.38-1.66c7.83.07,15.65.06,23.48,0,1.24,0,1.77.23,1.93,1.62,1,8.1,2.11,16.19,3.15,24.29a4.49,4.49,0,0,0,1.09,2.83c14.6.26,29.2.18,43.81.08,1.73,0,2.42-.75,2.16-2.43C361.21,335.64,360.8,333.12,360.4,330.6Zm-12.85,6.57q-14-.09-28.06,0c-1.14,0-1.51-.37-1.66-1.52-1-8.31-2.2-16.6-3.22-24.91-.23-1.91-1.08-2.63-2.95-2.63q-18.07.06-36.16,0a2.92,2.92,0,0,0-3.09,2.14c-3.37,8.41-6.82,16.79-10.26,25.16-.32.77-.39,1.77-1.69,1.76-8.37,0-16.74,0-25.49,0,3-7,5.77-13.59,8.58-20.2Q267.81,260.07,292,203.19c.72-1.7,1.5-2.37,3.44-2.34,9.9.12,19.81.09,29.72,0,1.56,0,2.08.43,2.34,2q5.85,36.69,11.85,73.35,4.78,29.61,9.59,59.22C349.15,336.72,348.94,337.17,347.55,337.17Z"/><path class="cls-6" d="M235,337.14c3-7,5.77-13.59,8.58-20.2Q267.81,260.07,292,203.19c.72-1.7,1.5-2.37,3.44-2.34,9.9.12,19.81.09,29.72,0,1.56,0,2.08.43,2.34,2q5.85,36.69,11.85,73.35,4.78,29.61,9.59,59.22c.2,1.26,0,1.71-1.4,1.71q-14-.09-28.06,0c-1.14,0-1.51-.37-1.66-1.52-1-8.31-2.2-16.6-3.22-24.91-.23-1.91-1.08-2.63-2.95-2.63q-18.07.06-36.16,0a2.92,2.92,0,0,0-3.09,2.14c-3.37,8.41-6.82,16.79-10.26,25.16-.32.77-.39,1.77-1.69,1.76C252.09,337.12,243.72,337.14,235,337.14Zm62.24-50.36c4.44,0,8.87,0,13.3,0,2.25,0,2.78-.7,2.53-2.95q-1.12-10.51-2.24-21.05L307.41,231a2.31,2.31,0,0,0-2.6-2.31c-1.74-.05-2.41.89-2.95,2.32q-10,26.14-20.06,52.27c-1,2.64-.4,3.5,2.54,3.51C288.63,286.79,292.92,286.78,297.21,286.78Z"/><path class="cls-11" d="M315.1,297.17a3.25,3.25,0,0,1-4.6-.11h0a3.24,3.24,0,0,1,.11-4.59l5.06-4.84a3.26,3.26,0,0,1,4.6.11h0a3.25,3.25,0,0,1-.11,4.6Z"/><path class="cls-12" d="M309.36,292.4c1.33.54,2,1.89,3.09,2.67,2.57,1.79,2.58,3.71,1.36,6.57-5.1,11.93-9.92,24-14.75,36-.77,1.91-1.24,2.26-2.85.63q-13.4-13.6-27-27c-1.31-1.31-1.6-1.92.43-2.74,12.76-5.14,25.48-10.39,38.21-15.6C308.33,292.75,308.82,292.59,309.36,292.4Z"/><path class="cls-8" d="M298.58,347.49c-.34.39-.72.86-1.14,1.28-3.48,3.5-7,7-10.44,10.49-1,1-1.58,1.18-2.67.09q-17.94-18.06-36-36c-1-1-1.18-1.67-.08-2.73q5.41-5.25,10.66-10.65c1.17-1.21,1.8-.93,2.88.15Q279.55,328,297.4,345.77C297.87,346.24,298.54,346.57,298.58,347.49Z"/><path class="cls-6" d="M232.55,336.5c.46.42.86.75,1.21,1.1q18.09,18.09,36.18,36.17c.95.94,1,1.51,0,2.48q-5.4,5.25-10.64,10.66c-1,1-1.56.82-2.45-.07q-18.06-18.12-36.17-36.17c-.92-.92-1.07-1.51-.06-2.5,3.61-3.49,7.12-7.08,10.68-10.62C231.69,337.2,232.1,336.89,232.55,336.5Z"/><path class="cls-6" d="M282.23,363.75c-2.69,2.7-5.3,5.33-8,7.91a5,5,0,0,1-1.17-.9q-18.1-18.09-36.21-36.18c-1.07-1.06-1-1.7,0-2.67a62.44,62.44,0,0,0,5.14-5.15c1.26-1.45,2-1.45,3.43,0,9.92,10,19.93,20,29.91,30,1.9,1.9,3.81,3.79,5.69,5.7C281.51,362.83,281.87,363.32,282.23,363.75Z"/><path class="cls-13" d="M585.67,259.19c-.13.09-.31.28-.38.25-.31-.15-.19-.4-.06-.63Z"/><polygon class="cls-6" points="170.28 475.75 170.23 475.58 170.38 475.6 170.28 475.75"/><path class="cls-6" d="M236.65,214c-.12,1.26-1,1.86-2.41,1.95a16.77,16.77,0,0,0-7.46,2c-5.59,3.21-7.23,8.55-7.78,14.46-.07.69,0,1.39-.08,2.08a2.17,2.17,0,0,1-2.16,2.18c-1.38.06-2-.86-2.21-2.09-.24-1.89-.22-3.82-.58-5.68-1.53-7.9-6.14-12.06-14.11-12.91-.43,0-.87,0-1.29-.11a2.08,2.08,0,0,1-1.8-2,2,2,0,0,1,1.5-2.17,8.62,8.62,0,0,1,1.53-.29c9.21-1.22,14-6.35,14.54-15.63,0-.86.06-1.74.18-2.59.19-1.3.71-2.38,2.28-2.3a2.13,2.13,0,0,1,2.13,2.44,26.65,26.65,0,0,0,.76,6.17c1.71,7.21,6.21,11.14,13.58,11.88C235.79,211.71,236.68,212.33,236.65,214Z"/><path class="cls-6" d="M368.35,198.3c0,1.5-.79,2.41-2,2.46-4,.16-5.22,2.77-5.64,6.16,0,.35-.06.69-.13,1a2.1,2.1,0,0,1-4.15-.07c-.14-.68-.18-1.37-.31-2-.63-3.29-1.72-4.4-5-5-1.32-.23-2.37-.7-2.44-2.19s.91-2.09,2.25-2.36c3.7-.74,4.63-1.71,5.27-5.31a17.17,17.17,0,0,1,.33-2.05,2,2,0,0,1,2.16-1.5,1.91,1.91,0,0,1,1.85,1.54c.25,1,.32,2,.54,3.06.55,2.44,1.94,4,4.57,4.22C367.05,196.38,368.07,196.92,368.35,198.3Z"/><path class="cls-14" d="M411.77,323.28a2.2,2.2,0,0,1-2.16,2.17,2,2,0,0,1-2.2-2.06,2,2,0,0,1,2.24-2.27A2.17,2.17,0,0,1,411.77,323.28Z"/><path class="cls-14" d="M398.69,180.26a2.12,2.12,0,0,1,2.18,2.05,2,2,0,0,1-2.2,2.29,2,2,0,0,1-2.08-2.15C396.57,181.12,397.38,180.44,398.69,180.26Z"/><path class="cls-14" d="M409.58,180.26a2.11,2.11,0,0,1,2.15,2.13,2.06,2.06,0,0,1-2.31,2.21,2,2,0,0,1-2-2.23A2.1,2.1,0,0,1,409.58,180.26Z"/><path class="cls-14" d="M411.78,247.46c-.19,1.23-.86,2.13-2.15,2.14a2,2,0,0,1-2.21-2.28,2,2,0,0,1,2.21-2A2.18,2.18,0,0,1,411.78,247.46Z"/><path class="cls-14" d="M400.93,247.34c-.14,1.34-.83,2.21-2.09,2.26a2,2,0,0,1-2.24-2.24,2,2,0,0,1,2.14-2.07A2.15,2.15,0,0,1,400.93,247.34Z"/><path class="cls-14" d="M400.92,258.34a2.15,2.15,0,0,1-2.19,2.1,2.16,2.16,0,1,1,.11-4.32A2.16,2.16,0,0,1,400.92,258.34Z"/><path class="cls-14" d="M411.77,258.17a2.18,2.18,0,0,1-2,2.26,2,2,0,0,1-2.32-1.9,2,2,0,0,1,2.07-2.41A2.18,2.18,0,0,1,411.77,258.17Z"/><path class="cls-14" d="M411.78,236.66c-.24,1.21-.88,2.1-2.19,2.09a2,2,0,0,1-2.17-2.32,2,2,0,0,1,2.25-2C411,234.53,411.61,235.4,411.78,236.66Z"/><path class="cls-14" d="M411.77,193.17a2.2,2.2,0,0,1-2,2.27,2,2,0,0,1-2.32-1.9,2,2,0,0,1,2.07-2.42C410.77,191.06,411.51,191.92,411.77,193.17Z"/><path class="cls-14" d="M407.36,269.1c.17-1.2.76-2.12,2.08-2.17a2,2,0,0,1,2.29,2.22,2,2,0,0,1-2.17,2.07C408.23,271.23,407.56,270.4,407.36,269.1Z"/><path class="cls-14" d="M409.6,299.44a2.15,2.15,0,1,1-.2,4.3,2,2,0,0,1-2-2.24A2,2,0,0,1,409.6,299.44Z"/><path class="cls-14" d="M400.93,312.33a2.18,2.18,0,0,1-2.09,2.26,2,2,0,0,1-2.24-2.23,2,2,0,0,1,2.14-2.07A2.16,2.16,0,0,1,400.93,312.33Z"/><path class="cls-14" d="M409.61,314.67c-1.32-.21-2.18-.92-2.2-2.19a2,2,0,0,1,2-2.19,2,2,0,0,1,2.26,2.24A2.22,2.22,0,0,1,409.61,314.67Z"/><path class="cls-14" d="M400.91,323.14a2.12,2.12,0,0,1-2,2.28,2,2,0,0,1-2.29-1.9,2,2,0,0,1,2.07-2.4A2.11,2.11,0,0,1,400.91,323.14Z"/><path class="cls-14" d="M411.78,366.63c-.23,1.24-.89,2.13-2.2,2.12a2,2,0,0,1-2.16-2.33,2,2,0,0,1,2.25-2C411,364.52,411.61,365.39,411.78,366.63Z"/><path class="cls-14" d="M400.93,193.19c-.14,1.39-.9,2.23-2.14,2.25a2.16,2.16,0,1,1,0-4.32A2.18,2.18,0,0,1,400.93,193.19Z"/><path class="cls-14" d="M409.53,206.23a2,2,0,0,1-2.12-2.13,2,2,0,0,1,2.07-2.17,2.15,2.15,0,1,1,0,4.3Z"/><path class="cls-14" d="M409.78,223.66a2,2,0,0,1,1.94,2.13,2,2,0,0,1-2.36,2.11,1.94,1.94,0,0,1-1.94-2.25C407.49,224.39,408.28,223.64,409.78,223.66Z"/><path class="cls-9" d="M400.92,366.36c-.1,1.39-.75,2.27-2,2.36a2,2,0,0,1-2.29-2.14,1.92,1.92,0,0,1,2.06-2.11A2.16,2.16,0,0,1,400.92,366.36Z"/><path class="cls-9" d="M400.91,204a2.09,2.09,0,0,1-2,2.19,1.91,1.91,0,0,1-2.25-1.9,2,2,0,0,1,2.09-2.35C400,201.9,400.69,202.75,400.91,204Z"/><path class="cls-14" d="M292.66,149.82c-.17,1.26-.72,2.14-2.07,2.22a2,2,0,0,1-2.3-1.9,2,2,0,0,1,2.12-2.35C291.75,147.75,292.37,148.64,292.66,149.82Z"/><path class="cls-14" d="M409.26,158.65c1.54,0,2.38.73,2.46,2a2,2,0,0,1-2.18,2.29,2,2,0,0,1-2.12-2.09A2,2,0,0,1,409.26,158.65Z"/><path class="cls-14" d="M355.28,152.06a1.94,1.94,0,0,1-2-2.05,2.16,2.16,0,1,1,4.31,0A2,2,0,0,1,355.28,152.06Z"/><path class="cls-14" d="M411.78,279.93c-.22,1.25-.83,2.09-2.17,2.12a2,2,0,0,1-2.2-2,2,2,0,0,1,2.24-2.24C411,277.83,411.57,278.72,411.78,279.93Z"/><path class="cls-14" d="M411.78,355.77c-.19,1.22-.78,2.1-2.12,2.14a2,2,0,0,1-2.24-2.22,2,2,0,0,1,2.18-2C411,353.68,411.55,354.52,411.78,355.77Z"/><path class="cls-14" d="M411.78,290.78c-.2,1.23-.8,2.1-2.14,2.13a2,2,0,0,1-2.22-2.25,1.94,1.94,0,0,1,2.2-2C411,288.69,411.56,289.55,411.78,290.78Z"/><path class="cls-14" d="M411.8,171.49c-.21,1.33-.85,2.21-2.15,2.25a2,2,0,0,1-2.24-2.24,2,2,0,0,1,2.19-2C411,169.49,411.51,170.39,411.8,171.49Z"/><path class="cls-14" d="M411.78,334a2.16,2.16,0,0,1-2.1,2.16,2,2,0,0,1-2.26-1.94,2,2,0,0,1,2.15-2.33C410.88,331.91,411.53,332.79,411.78,334Z"/><path class="cls-14" d="M108.49,150c-.24,1.27-.9,2.07-2.24,2a2,2,0,0,1-2.12-2.09,2,2,0,0,1,2.31-2.16C107.79,147.87,108.33,148.81,108.49,150Z"/><path class="cls-14" d="M411.78,344.83c-.15,1.21-.68,2.1-2,2.21a2,2,0,0,1-2.32-1.87,2,2,0,0,1,2.08-2.37C410.85,342.73,411.49,343.59,411.78,344.83Z"/><path class="cls-14" d="M162.69,149.93c-.21,1.24-.82,2.08-2.16,2.12a1.93,1.93,0,0,1-2.19-2,2,2,0,0,1,2.21-2.25C161.88,147.82,162.48,148.7,162.69,149.93Z"/><path class="cls-14" d="M171.08,147.77a2.09,2.09,0,0,1,2.33,2,1.94,1.94,0,0,1-1.9,2.28,2,2,0,0,1-2.4-2.05A2.07,2.07,0,0,1,171.08,147.77Z"/><path class="cls-14" d="M225.47,152.06a2.13,2.13,0,0,1-.15-4.26,2.13,2.13,0,1,1,.15,4.26Z"/><path class="cls-14" d="M411.78,149.91c-.2,1.22-.78,2.08-2.12,2.14a2,2,0,0,1-2.24-2,2,2,0,0,1,2.17-2.3C410.93,147.8,411.54,148.68,411.78,149.91Z"/><path class="cls-14" d="M411.78,214.87a2.14,2.14,0,0,1-2.06,2.17,2,2,0,0,1-2.3-1.89,2,2,0,0,1,2.11-2.35C410.86,212.75,411.52,213.6,411.78,214.87Z"/><path class="cls-14" d="M346.81,149.84c-.24,1.35-.85,2.18-2.19,2.21a1.94,1.94,0,0,1-2.18-2,2,2,0,0,1,2.23-2.23C346,147.82,346.55,148.77,346.81,149.84Z"/><path class="cls-9" d="M398.66,277.76c1.38.15,2.2.86,2.2,2.14a2,2,0,0,1-2.3,2.13,1.9,1.9,0,0,1-1.95-2.2A2,2,0,0,1,398.66,277.76Z"/><path class="cls-14" d="M400.92,290.72a2.12,2.12,0,0,1-2.06,2.18,1.92,1.92,0,0,1-2.25-1.92,2,2,0,0,1,2.1-2.32C400.05,288.65,400.69,289.47,400.92,290.72Z"/><path class="cls-14" d="M398.7,162.93a2,2,0,0,1-2.09-2.12,1.92,1.92,0,0,1,2-2.15,2,2,0,0,1,2.23,2.23A2,2,0,0,1,398.7,162.93Z"/><path class="cls-9" d="M119.27,149.86c-.1,1.33-.71,2.14-2.06,2.18a2,2,0,0,1-2.22-2,2,2,0,0,1,2.18-2.27A2,2,0,0,1,119.27,149.86Z"/><path class="cls-14" d="M400.92,225.69c-.14,1.25-.7,2.12-2,2.21a1.9,1.9,0,0,1-2.26-1.89,1.94,1.94,0,0,1,2.07-2.34C400,223.64,400.67,224.46,400.92,225.69Z"/><path class="cls-9" d="M398.76,147.77a2.06,2.06,0,0,1,2.1,2.11,2,2,0,0,1-2.29,2.15,1.89,1.89,0,0,1-2-2.18A2.05,2.05,0,0,1,398.76,147.77Z"/><path class="cls-9" d="M366,147.75c1.49.12,2.29.77,2.34,2.09a1.89,1.89,0,0,1-1.94,2.19,2,2,0,0,1-2.3-2.13A2.14,2.14,0,0,1,366,147.75Z"/><path class="cls-9" d="M184.24,150c-.13,1.39-.84,2.14-2.2,2.08a1.94,1.94,0,0,1-2.06-2.17,2.13,2.13,0,0,1,4.26.09Z"/><path class="cls-9" d="M400.91,345c-.23,1.26-.89,2.07-2.21,2.05a2.12,2.12,0,1,1,.17-4.23A2.11,2.11,0,0,1,400.91,345Z"/><path class="cls-9" d="M400.91,214.9c-.17,1.27-.8,2.1-2.16,2.13a1.9,1.9,0,0,1-2.14-2.07,1.94,1.94,0,0,1,2.08-2.16C400,212.79,400.7,213.62,400.91,214.9Z"/><path class="cls-14" d="M398.71,353.64a2,2,0,0,1,2.16,2.05,2,2,0,0,1-2.24,2.21,1.92,1.92,0,0,1-2-2.15A2,2,0,0,1,398.71,353.64Z"/><path class="cls-14" d="M303.4,150c-.19,1.34-.89,2.08-2.23,2a2,2,0,0,1-2.08-2.12,2,2,0,0,1,2.34-2.11A2.05,2.05,0,0,1,303.4,150Z"/><path class="cls-14" d="M281.81,149.9a2.13,2.13,0,0,1-2.13,2.14,1.91,1.91,0,0,1-2.21-2,2,2,0,0,1,2.17-2.28C281,147.8,281.59,148.68,281.81,149.9Z"/><path class="cls-14" d="M238.42,149.84c-.1,1.24-.63,2.12-2,2.2a2,2,0,0,1-2.31-1.88,2,2,0,0,1,2.1-2.36C237.54,147.73,238.2,148.57,238.42,149.84Z"/><path class="cls-9" d="M216.81,149.82c-.13,1.25-.7,2.11-2,2.21a1.89,1.89,0,0,1-2.27-1.86,2,2,0,0,1,2-2.37C215.89,147.74,216.54,148.6,216.81,149.82Z"/><path class="cls-9" d="M400.93,301.52c-.25,1.41-.94,2.26-2.26,2.21a2,2,0,0,1-2.05-2.2,1.91,1.91,0,0,1,2.17-2A2.14,2.14,0,0,1,400.93,301.52Z"/><path class="cls-9" d="M260.07,149.94a2,2,0,0,1-2.16,2.09,1.91,1.91,0,0,1-2.08-2.12,2,2,0,0,1,2.14-2.1A2,2,0,0,1,260.07,149.94Z"/><path class="cls-9" d="M390.06,149.57c-.05,1.55-.67,2.4-2,2.46a1.91,1.91,0,0,1-2.23-2,2,2,0,0,1,2-2.25A2.1,2.1,0,0,1,390.06,149.57Z"/><path class="cls-9" d="M325.08,149.94c-.19,1.45-.94,2.16-2.28,2.09a1.91,1.91,0,0,1-2-2.23,1.94,1.94,0,0,1,2.23-2A2,2,0,0,1,325.08,149.94Z"/><path class="cls-9" d="M398.65,336.2a2,2,0,0,1-2-2.23,1.94,1.94,0,0,1,2.2-2,2,2,0,0,1,2,2.23A2,2,0,0,1,398.65,336.2Z"/><path class="cls-9" d="M249.22,149.93c-.11,1.33-.78,2.12-2.14,2.1a2.11,2.11,0,1,1,0-4.22A2,2,0,0,1,249.22,149.93Z"/><path class="cls-9" d="M333.49,147.76c1.47.1,2.32.77,2.38,2.08a2,2,0,0,1-2,2.18,1.9,1.9,0,0,1-2.19-2A2.07,2.07,0,0,1,333.49,147.76Z"/><path class="cls-9" d="M379.19,150A2,2,0,0,1,377,152a1.92,1.92,0,0,1-2.06-2.15,2,2,0,0,1,2.16-2.07A2,2,0,0,1,379.19,150Z"/><path class="cls-9" d="M203.6,152.05a2.13,2.13,0,0,1,.31-4.24,2,2,0,0,1,2,2.26C205.81,151.4,204.94,152,203.6,152.05Z"/><path class="cls-9" d="M192.69,147.76c1.49.11,2.31.75,2.36,2.1a1.9,1.9,0,0,1-2,2.17,1.94,1.94,0,0,1-2.19-2A2.11,2.11,0,0,1,192.69,147.76Z"/><path class="cls-9" d="M138.75,152.06c-1.33-.14-2.11-.81-2.07-2.18a2.11,2.11,0,1,1,4.22.1A2,2,0,0,1,138.75,152.06Z"/><path class="cls-9" d="M398.78,271.21c-1.43-.12-2.2-.82-2.15-2.17a2,2,0,0,1,2.14-2.1,2,2,0,0,1,2.09,2.17A2,2,0,0,1,398.78,271.21Z"/><path class="cls-9" d="M400.91,171.62a2.13,2.13,0,0,1-2.19,2.11,2,2,0,0,1-2.09-2.14,1.89,1.89,0,0,1,2.11-2.09C400.09,169.52,400.73,170.34,400.91,171.62Z"/><path class="cls-9" d="M398.74,238.78a2.09,2.09,0,0,1-2.12-2.18,1.9,1.9,0,0,1,2.1-2.1,2,2,0,0,1,2.14,2.1C400.87,237.91,400,238.59,398.74,238.78Z"/><path class="cls-9" d="M151.83,149.7c-.13,1.41-.74,2.26-2.09,2.33a1.92,1.92,0,0,1-2.21-2,2,2,0,0,1,2-2.22A2.16,2.16,0,0,1,151.83,149.7Z"/><path class="cls-9" d="M312.09,152.07c-1.41-.19-2.2-.9-2.13-2.23a2.11,2.11,0,1,1,2.13,2.23Z"/><path class="cls-9" d="M268.78,147.77a2.08,2.08,0,0,1,2.1,2.16,1.94,1.94,0,0,1-2.12,2.1,1.89,1.89,0,0,1-2.1-2.1A2,2,0,0,1,268.78,147.77Z"/><path class="cls-9" d="M130.1,149.86c-.12,1.44-.82,2.21-2.17,2.17a1.94,1.94,0,0,1-2.08-2.14,2,2,0,0,1,2.16-2.08A2,2,0,0,1,130.1,149.86Z"/><path class="cls-3" d="M262.16,248.43c-1.08-6.18-.76-11.43,2.39-16.24.85-1.29,2-2.16,3.73-1.34s1.7,2.09,1.38,3.51C268.51,239.52,265.62,243.74,262.16,248.43Z"/><path class="cls-3" d="M180.07,242.08c1.44,3-.91,8.07-5.35,11.63C175.75,249.25,177.2,245.45,180.07,242.08Z"/><path class="cls-8" d="M184.66,436.62c-7.46-.2-11.59-3-13.92-8.18s-1.56-10.39,2.37-14.49c8.58-8.92,17.36-17.66,26.24-26.29,5-4.88,13.55-4.48,18.64.47s5.63,13.42.67,18.57c-8.64,9-17.54,17.72-26.41,26.49C189.74,435.67,186.55,436.74,184.66,436.62Z"/><path class="cls-10" d="M442.58,329.18a7.47,7.47,0,0,1-.21-2.63c0-3.47,0-6.93,0-10.4l.12-35.61c0-1.12-.13-2.24-.13-3.36q0-75,0-149.95c0-1.54.24-3.14-1-4.39-1.56,0-3.12-.12-4.68-.12H117.87c-.61,0-1.22,0-1.82,0-2.51-.22-3.37,1-3.31,3.41.11,4.24-.06,8.49.07,12.73,0,1.87-.63,2.35-2.39,2.32-5.37-.09-10.75,0-16.12,0-3,0-3.67.65-3.69,3.66,0,4.85-.09,9.71,0,14.56,0,1.89-.43,2.56-2.44,2.52-6-.13-12,0-17.94,0-4.41,0-4.64.23-4.64,4.75q0,43.15,0,86.32a5.75,5.75,0,0,1-1.84,4.57C58,263.16,52.27,269,46.5,274.72c-1.17,1.17-2.34,2.44-.82,4s2.81.3,4-.85c4.66-4.65,9.31-9.32,14-13.95.5-.5.84-1.36,2-1.19V392.16c0,5,.16,5.17,5,5.17h94a2.12,2.12,0,0,1-1,1.81c-15.22,15.18-30.32,30.48-45.7,45.49-13.79,13.47-13.66,34.17-.2,46.86,2.38,2.23,17.54,15,40.68,2.1,1.43-1.19,2.75-2.3,3.95-3.5q45.52-45.49,91-91.06a5.23,5.23,0,0,1,4.09-1.66q33.68,0,67.34,0h66.57c3.41,0,3.88-.48,3.88-3.91,0-4.6.12-9.19,0-13.78-.08-2.28.44-3.14,2.94-3.06,6.32.19,12.65,0,19,.08,2.19,0,3.15-.87,3.12-3.09-.07-4.34.08-8.67-.06-13-.06-2,.62-2.53,2.53-2.5,5.46.11,10.92,0,16.38.06,2.33,0,3.35-1,3.29-3.26s0-4.33,0-6.5V337l.21.12ZM72.52,392.89c-2,0-2.45-.61-2.45-2.51q.08-65.52,0-131a3.54,3.54,0,0,1,.85-2.86c3.71-3.63,7.35-7.33,11.17-11.15.72,1.1.43,2.14.43,3.09q0,64.35,0,128.7c0,4.49.15,4.63,4.73,4.63h93.63c-3.85,3.89-7.17,7.26-10.51,10.6-.69.69-1.62.5-2.47.5Q120.23,392.85,72.52,392.89ZM374,374.55c0,2.09-.4,2.77-2.65,2.76q-36.52-.12-73.06,0c-2.44,0-2.63-.62-2-2.75,2.59-8.52,5-17.1,7.54-25.64.47-1.57.57-2.92-.89-3.91s-1.37-2.23-.73-3.78c5.65-13.66,11.17-27.38,16.87-41,1-2.46.82-4.18-1.26-5.91a41.41,41.41,0,0,1-5-4.95c-1.55-1.82-3.17-2.16-5.25-1.07a18.47,18.47,0,0,1-2.65.93c-5.53,2.6-11.2,4.88-16.95,6.93-7.57,3.16-15.16,6.28-22.7,9.5-1.48.63-2.1-.31-2.82-1.11-1.5-1.67-2.83-1.56-4.38,0-5.71,5.81-11.48,11.55-17.23,17.32q-27,27-54,54.07a4.16,4.16,0,0,1-3.19,1.35q-47.31,0-94.64,0c-1.62,0-2.24-.33-2.24-2.13q.08-66.43,0-132.87A4.38,4.38,0,0,1,88.48,239q17.4-17.35,34.76-34.75a23.32,23.32,0,0,0,1.62-1.68,2.08,2.08,0,0,0-.07-3,2,2,0,0,0-3,0c-.52.45-1,1-1.48,1.46q-15.45,15.45-30.88,30.9A19.82,19.82,0,0,0,87.75,234c-1.21-.82-.84-1.58-.84-2.19,0-15.87,0-31.73-.08-47.59,0-2.16.71-2.54,2.66-2.53q140.94.06,281.86,0c2.23,0,2.69.66,2.69,2.77Q374,279.51,374,374.55Zm-75-36.87c-.77,1.91-1.24,2.26-2.85.63q-13.4-13.6-27-27c-1.31-1.31-1.6-1.92.43-2.74,12.76-5.14,25.48-10.39,38.21-15.6.48-.2,1-.36,1.51-.55,1.33.54,2,1.89,3.09,2.67,2.57,1.79,2.58,3.71,1.36,6.57C308.71,313.57,303.89,325.63,299.06,337.68ZM139.12,495.56a27.26,27.26,0,1,1,27.43-27.08A27.28,27.28,0,0,1,139.12,495.56Zm31.16-19.81-.05-.17.15,0Zm83.12-82.88q-40.5,40.36-80.91,80.84a3.71,3.71,0,0,1-2.12,1.42c1.83-11.4-.73-21.38-8.91-29.43s-18.21-10.47-29.46-8.34c.27-1,1.07-1.5,1.66-2.09q40.34-40.36,80.65-80.75c1.64-1.65,2.48-1.73,4.16,0q17.34,17.58,34.92,34.93C254.76,390.79,254.8,391.48,253.4,392.87ZM270,376.25q-5.4,5.25-10.64,10.66c-1,1-1.56.82-2.45-.07q-18.06-18.12-36.17-36.17c-.92-.92-1.07-1.51-.06-2.5,3.61-3.49,7.12-7.08,10.68-10.62.35-.35.76-.66,1.21-1.05.46.42.86.75,1.21,1.1q18.09,18.09,36.18,36.17C270.89,374.71,271,375.28,270,376.25Zm4.27-4.59a5,5,0,0,1-1.17-.9q-18.1-18.09-36.21-36.18c-1.07-1.06-1-1.7,0-2.67a62.44,62.44,0,0,0,5.14-5.15c1.26-1.45,2-1.45,3.43,0,9.92,10,19.93,20,29.91,30,1.9,1.9,3.81,3.79,5.69,5.7.42.42.78.91,1.14,1.34C279.54,366.45,276.93,369.08,274.25,371.66Zm10.08-12.31q-17.94-18.06-36-36c-1-1-1.18-1.67-.08-2.73q5.41-5.25,10.66-10.65c1.17-1.21,1.8-.93,2.88.15Q279.55,328,297.4,345.77c.47.47,1.14.8,1.18,1.72-.34.39-.72.86-1.14,1.28-3.48,3.5-7,7-10.44,10.49C286,360.27,285.42,360.44,284.33,359.35ZM391,390.09c0,2.1-.5,2.82-2.72,2.81q-47.19-.11-94.39,0c-2.3,0-2.9-.5-2.07-2.71,1-2.67,1-6.23,2.84-7.9s5.46-.51,8.29-.52q35.63-.06,71.25,0c3.84,0,4.33-.49,4.33-4.35V181.6c0-3.82-.37-4.19-4.13-4.19H86.76c-4,0-4.18.21-4.18,4.08q0,27.3,0,54.6a5.44,5.44,0,0,1-1.76,4.34c-3.43,3.3-6.73,6.74-10.24,10.28a3.58,3.58,0,0,1-.49-2.59c0-26.35,0-52.7-.06-79.05,0-2.23.49-2.93,2.84-2.93q157.57.09,315.15,0c2.31,0,2.9.65,2.9,2.93Q390.86,279.58,391,390.09Zm25-21c0,2.63-.63,3.43-3.3,3.3a136.23,136.23,0,0,0-14.29,0c-2.81.16-3.18-.88-3.18-3.35q.1-71,.05-142V166.18c0-3.92,0-3.93-3.92-4.33-.76-.07-1.29-.08-1.29-1.1a1.93,1.93,0,0,0-2.17-2.06,1.84,1.84,0,0,0-2,1.93c0,1.13-.55,1.26-1.44,1.23-1.12,0-2.25,0-3.38,0s-2,0-2-1.55c0-.93-.78-1.49-1.75-1.61s-2,.29-2.09,1.12c-.15,2.36-1.67,2.09-3.2,2-1.74-.06-3.83.68-4.11-2.25-.07-.75-1.11-1-2-.91a1.84,1.84,0,0,0-1.81,1.6c-.13,2.69-2.14,1.47-3.25,1.47s-3.08,1.21-3.38-1.36a1.93,1.93,0,0,0-2-1.72c-1.11,0-2,.5-2.11,1.52-.12,1.84-1.26,1.72-2.48,1.65-1.85-.12-4,.82-4.72-2.26-.34-1.48-3.15-1.29-3.44.27-.42,2.27-1.8,2-3.33,2s-3.65.64-3.94-2.13c-.08-.77-1.05-1.09-1.9-1s-1.84.57-1.85,1.5c0,1.89-1.18,1.71-2.39,1.68-.87,0-1.74,0-2.6,0-1,0-1.8,0-1.8-1.43a1.8,1.8,0,0,0-1.91-1.74c-1.09-.07-2.1.47-2.11,1.49,0,1.89-1.17,1.71-2.38,1.67-.78,0-1.56,0-2.34,0-1.2.07-2.17.07-2.16-1.63,0-.93-.85-1.47-1.82-1.54s-2.1.44-2.15,1.45c-.08,1.79-1.1,1.83-2.37,1.71-1.89-.18-4.23,1-4.9-2.33-.29-1.4-3.19-1.14-3.44.41-.36,2.16-1.61,2-3.08,1.93-1.79,0-3.58.47-4.23-2.25-.38-1.58-3.19-1.27-3.58.47-.69,3.08-2.95,1.38-4.49,1.73-1.23.28-2.29.11-2.42-1.65-.08-1-1-1.54-2.14-1.48s-1.81.58-1.83,1.52c-.05,1.61-.9,1.77-2.17,1.66a13.29,13.29,0,0,0-2.6,0c-1.36.16-2-.24-2.11-1.73-.09-1-1.06-1.53-2.15-1.45s-1.83.59-1.83,1.52c0,1.67-.92,1.73-2.15,1.65a24.81,24.81,0,0,0-2.86,0c-1.06.05-1.77-.06-1.78-1.45a1.77,1.77,0,0,0-1.92-1.72c-1.1-.05-2.09.51-2.1,1.51,0,1.93-1.22,1.67-2.41,1.65-.86,0-1.73,0-2.6,0-1,0-1.81,0-1.81-1.43a1.79,1.79,0,0,0-1.91-1.74c-1.1-.07-2.09.49-2.13,1.49-.07,1.85-1.18,1.72-2.41,1.68-1,0-1.9,0-2.86,0s-1.45-.05-1.48-1.21a2.1,2.1,0,0,0-4.18-.18c-.08,1.41-.85,1.5-1.86,1.38-1.94-.23-4.41,1.09-5.24-2.28-.36-1.47-3.13-1.23-3.43.35-.4,2.1-1.62,2-3.1,1.95-1.74-.07-3.84.72-4.18-2.2-.09-.77-1.08-1-1.93-1s-1.72.52-1.71,1.31c0,2.26-1.49,1.92-2.8,1.84-1.73-.1-4,1-4.4-2.17-.08-.76-1.08-1-1.94-1s-1.74.53-1.72,1.3c.06,2.26-1.46,2-2.76,1.83-1.69-.14-4.06,1.06-4.38-2.15-.08-.75-1.08-1-1.93-1s-1.82.65-1.83,1.53c0,1.68-.94,1.72-2.17,1.64a22.74,22.74,0,0,0-2.86,0c-1.08.07-1.74-.12-1.78-1.47a1.77,1.77,0,0,0-1.94-1.7,1.88,1.88,0,0,0-2.17,1.78c-.06,1.44-.86,1.45-1.86,1.38-2.08-.16-4.54,1-5.43-2.45-.38-1.46-3.15-.87-3.52.92-.61,3-2.75,1.11-4.13,1.46-1,.24-2.48.68-2.54-1.42a1.86,1.86,0,0,0-2-1.68c-1.1,0-2,.52-2.06,1.56-.06,2-1.37,1.65-2.52,1.59-1.84-.08-4.18.92-4.64-2.25-.11-.76-1.14-1-2-.88s-1.68.59-1.65,1.39c.08,2.16-1.37,1.82-2.61,1.74-1.8-.11-4.21,1-4.61-2.24-.09-.75-1.12-1-2-.89s-1.71.61-1.66,1.38c.11,2.18-1.35,1.85-2.57,1.74-1.77-.15-4.09,1.1-4.66-2.21-.24-1.44-3.21-1.29-3.45.24-.37,2.29-1.72,2-3.25,2-1.76,0-3.62.53-4.15-2.28-.27-1.43-3.15-1.26-3.45.29-.42,2.22-1.75,2.06-3.29,2s-3.71.67-4-2.17c-.07-.77-1.06-1-1.92-1s-1.72.49-1.76,1.27c-.1,2.06-1.38,2-2.82,1.91-1.83-.09-3.28.26-4.63-2.16-.87-1.56-1.9-2.8-1.84-4.67,0-1.42-.25-2.69,1.67-3.52,1.51-.65,1.23-2.34-.16-3.38-.63-.47-1.81-.39-1.48-1.67s1.57-.77,2.37-.78c6.68-.06,13.35,0,20,0H255.58q78.53,0,157.06,0c2.54,0,3.32.5,3.31,3.22Q415.83,258.93,416,369.05Z"/><path class="cls-15" d="M184.17,376.3H90.86A2.27,2.27,0,0,1,88.59,374V250.61l156.74,48.85Z"/><rect class="cls-16" x="106.77" y="306.11" width="12.32" height="12.32"/><rect class="cls-16" x="132.27" y="306.11" width="12.32" height="12.32"/><rect class="cls-16" x="157.76" y="306.11" width="12.32" height="12.32"/><rect class="cls-16" x="119.73" y="318.53" width="12.32" height="12.32"/><rect class="cls-16" x="145.22" y="318.53" width="12.32" height="12.32"/><rect class="cls-16" x="170.72" y="318.53" width="12.32" height="12.32"/><rect class="cls-16" x="119.73" y="343.39" width="12.32" height="12.32"/><rect class="cls-16" x="145.22" y="343.39" width="12.32" height="12.32"/><rect class="cls-16" x="170.72" y="343.39" width="12.32" height="12.32"/><rect class="cls-16" x="106.77" y="330.96" width="12.32" height="12.32"/><rect class="cls-16" x="132.27" y="330.96" width="12.32" height="12.32"/><rect class="cls-16" x="157.76" y="330.96" width="12.32" height="12.32"/><rect class="cls-16" x="106.77" y="355.82" width="12.32" height="12.32"/><rect class="cls-16" x="132.27" y="355.82" width="12.32" height="12.32"/><rect class="cls-16" x="157.76" y="355.82" width="12.32" height="12.32"/><path class="cls-17" d="M288.07,296.14c-11.09-5.17-20.71-12.27-28.19-22-1.44-1.88-2.15-1.91-3.89-.4-13.36,11.55-28,21-45.08,26.09-7.13,2.1-14.4,3.14-21.81,1.67-12-2.38-19.57-10.19-24.52-20.86-1-2.15-1.73-2.27-3.78-1.38-10.07,4.35-20.48,7-31.59,5.32a32.79,32.79,0,0,1-14.59-5.81c-3.56-2.59-4.42-6.32-2.28-9.48s6-3.87,9.6-1.41c7.22,4.86,15,4.64,23,2.9a69.12,69.12,0,0,0,13.19-4.71,3.82,3.82,0,0,0,2.61-4.11,46.37,46.37,0,0,1,5.67-23.21,21.32,21.32,0,0,1,8.53-8.87,11.38,11.38,0,0,1,13.69,1.84c5.2,4.9,6.53,10.86,4.52,17.58-2.26,7.52-7.39,13-13.1,18.06-.39.35-.81.65-1.21,1-4.16,3.39-4.16,3.39-1.76,8.13,5.43,10.74,14.1,14.47,27.08,11.49,13.37-3.07,24.87-9.93,35.71-18,3.4-2.54,6.53-5.43,9.84-8.08,1.54-1.23,1.89-2.37,1.23-4.41-3.09-9.47-3.78-19,.34-28.43,2.71-6.19,7.08-10.86,14.2-11.54,11.55-1.09,19.71,8.67,17.07,20.2-1.93,8.45-6.88,15.24-12.23,21.78-2.62,3.19-2.68,3.17-.23,6.35,8.21,10.66,19.28,17.2,31.6,22,1.12.43,2.21,1,3.32,1.44C299.49,291.81,293.82,294.09,288.07,296.14Zm-25.91-47.71c3.46-4.69,6.35-8.91,7.5-14.07.32-1.42.2-2.76-1.38-3.51s-2.88.05-3.73,1.34C261.4,237,261.08,242.25,262.16,248.43Zm-82.09-6.35c-2.87,3.37-4.32,7.17-5.35,11.63C179.16,250.15,181.51,245.11,180.07,242.08Z"/><g class="cls-18"><path class="cls-9" d="M252.84,558.86c1.47-.06,2.71,1.59,1.92,2.83a12.78,12.78,0,0,1-4.68,4.47,2,2,0,0,1-2.7-2.08C247.51,562.91,251.7,558.92,252.84,558.86Z"/><path class="cls-9" d="M329.32,489.08a3.18,3.18,0,0,1-.5,1.12,46,46,0,0,1-3.81,3.71,1.89,1.89,0,0,1-2.82-.28,1.82,1.82,0,0,1,.06-2.64,35.16,35.16,0,0,1,3.88-3.65A2,2,0,0,1,329.32,489.08Z"/><path class="cls-9" d="M311.3,506.36a1.92,1.92,0,0,1-1.71-2.91,14.22,14.22,0,0,1,4.51-4.29,1.93,1.93,0,0,1,2.77,1.95C316.79,502.48,312.65,506.39,311.3,506.36Z"/><path class="cls-9" d="M299,518.42a2.08,2.08,0,0,1-1.79-1,1.62,1.62,0,0,1,.05-2,35.23,35.23,0,0,1,4.17-4,2,2,0,0,1,3.1,1.71C304.5,514.28,300.31,518.38,299,518.42Z"/><path class="cls-9" d="M265.26,546.9a2,2,0,0,1,1.82,1,1.87,1.87,0,0,1-.16,2.27c-1.29,1.33-2.65,2.6-4,3.82a1.7,1.7,0,0,1-2.24,0,1.91,1.91,0,0,1-.81-1.9C260,550.83,264.06,546.94,265.26,546.9Z"/><path class="cls-9" d="M242.62,572.91c0,1.42-4.32,5.49-5.71,5.38a1.92,1.92,0,0,1-1.66-2.8,14.46,14.46,0,0,1,4.46-4.35A2,2,0,0,1,242.62,572.91Z"/><path class="cls-9" d="M217.83,597c-.07,1.29-4.34,5.32-5.6,5.3a2,2,0,0,1-1.58-3.14,23.64,23.64,0,0,1,4.18-4A2,2,0,0,1,217.83,597Z"/><path class="cls-9" d="M200.3,614.28c-1.18,0-1.79-.27-2.18-1a1.81,1.81,0,0,1,.18-2.25,46,46,0,0,1,3.83-3.69,1.87,1.87,0,0,1,2.8.27,1.8,1.8,0,0,1-.06,2.62C203.36,611.76,202.09,613.59,200.3,614.28Z"/><path class="cls-9" d="M360.88,458.39a2,2,0,0,1-1.52-3.31q1.84-1.9,3.83-3.68a1.76,1.76,0,0,1,2.24-.14,1.93,1.93,0,0,1,1,1.83C366.34,454.44,362.23,458.4,360.88,458.39Z"/><path class="cls-9" d="M224.72,590.38a2,2,0,0,1-1.8-1,1.78,1.78,0,0,1,.17-2.25c1.22-1.29,2.49-2.54,3.82-3.72a2,2,0,0,1,3.29,1.6C230.17,586.25,226,590.34,224.72,590.38Z"/><path class="cls-9" d="M286.61,530.37a1.94,1.94,0,0,1-1.78-1,1.88,1.88,0,0,1,.24-2.26c1.23-1.27,2.5-2.51,3.82-3.7a1.76,1.76,0,0,1,2.24-.15,2,2,0,0,1,1,1.81C292.12,526.32,287.93,530.35,286.61,530.37Z"/><path class="cls-9" d="M341.65,477c0,1.27-4.2,5.36-5.48,5.37s-2.55-1.46-1.88-2.67a11.8,11.8,0,0,1,4.78-4.64C340.3,474.43,341.69,475.6,341.65,477Z"/><path class="cls-9" d="M354.06,464.76c0,1.62-4.33,5.71-5.72,5.61a1.93,1.93,0,0,1-1.42-3.19,39.26,39.26,0,0,1,3.78-3.74,2,2,0,0,1,2.27-.23A2,2,0,0,1,354.06,464.76Z"/><path class="cls-9" d="M277.65,535a1.9,1.9,0,0,1,1.81,1,1.73,1.73,0,0,1-.16,2.24q-1.83,1.92-3.8,3.71a1.92,1.92,0,0,1-2.27.22,2,2,0,0,1-1.08-1.78C272.13,539.06,276.33,535,277.65,535Z"/></g><polygon class="cls-19" points="492.66 266.96 482.16 266.96 482.16 256.46 473.66 256.46 473.66 266.96 463.16 266.96 463.16 275.46 473.66 275.46 473.66 285.96 482.16 285.96 482.16 275.46 492.66 275.46 492.66 266.96"/><polygon class="cls-19" points="261.96 454.95 254.03 454.95 254.03 447.02 247.61 447.02 247.61 454.95 239.68 454.95 239.68 461.37 247.61 461.37 247.61 469.3 254.03 469.3 254.03 461.37 261.96 461.37 261.96 454.95"/><polygon class="cls-19" points="494.96 350.81 488.89 350.81 488.89 344.74 483.98 344.74 483.98 350.81 477.91 350.81 477.91 355.72 483.98 355.72 483.98 361.79 488.89 361.79 488.89 355.72 494.96 355.72 494.96 350.81"/><rect class="cls-20" x="153.58" y="193.99" width="10.42" height="10.42" transform="translate(130.22 452.33) rotate(-135)"/></svg>