<?xml version="1.0" encoding="UTF-8"?>
<svg width="145px" height="50px" viewBox="0 0 145 50" version="1.1" xmlns="http://www.w3.org/2000/svg" xmlns:xlink="http://www.w3.org/1999/xlink">
    <!-- Generator: sketchtool 57.1 (101010) - https://sketch.com -->
    <title>47FBAB7E-45DF-4F37-A51D-21327CDC0095</title>
    <desc>Created with sketchtool.</desc>
    <defs>
        <polygon id="path-1" points="0 0.0540217391 20.3481278 0.0540217391 20.3481278 27.9960993 0 27.9960993"></polygon>
        <path d="M1.83203922,9.10326923 C-1.7402549,16.5879808 1.55,25.4957115 9.18147059,28.9993077 L9.18147059,28.9993077 C15.0933529,31.7124038 22.1102941,30.4378269 26.6381176,25.8271731 L26.6381176,25.8271731 C25.9330196,25.0295192 25.3118039,24.1639038 24.7829804,23.2440385 L24.7829804,23.2440385 C20.4065098,28.179 12.7786863,28.7006346 7.74696078,24.4083269 L7.74696078,24.4083269 C2.71462745,20.1160192 2.18276471,12.6354808 6.55984314,7.69992308 L6.55984314,7.69992308 C10.9363137,2.76436538 18.5635294,2.24273077 23.5958627,6.53563462 L23.5958627,6.53563462 C26.233902,8.78551923 27.7474314,12.0464808 27.7468235,15.4749615 L27.7468235,15.4749615 C27.7468235,16.0490577 27.7036667,16.6213654 27.6197843,17.1889038 L27.6197843,17.1889038 C27.8671765,18.8414423 28.4993333,20.4158846 29.4676275,21.7906154 L29.4676275,21.7906154 C33.0399216,14.3059038 29.748451,5.39757692 22.1175882,1.89457692 L22.1175882,1.89457692 C20.0266078,0.934769231 17.825,0.479903846 15.6598627,0.479903846 L15.6598627,0.479903846 C9.92121569,0.479307692 4.42509804,3.66932692 1.83203922,9.10326923" id="path-3"></path>
        <linearGradient x1="49.0663499%" y1="120.974829%" x2="50.0663551%" y2="44.9028873%" id="linearGradient-5">
            <stop stop-color="#21FFDD" offset="0%"></stop>
            <stop stop-color="#4D21FF" offset="100%"></stop>
        </linearGradient>
        <path d="M15.6726275,0.544288462 C11.5119412,0.546673077 7.533,2.22007692 4.66276471,5.17521154 L4.66276471,5.17521154 C5.36968627,5.97167308 5.99394118,6.83669231 6.52519608,7.75596154 L6.52519608,7.75596154 C10.8700588,2.79596154 18.4924118,2.22961538 23.5490588,6.49092308 L23.5490588,6.49092308 C26.1105098,8.64959615 27.6331569,11.7609231 27.7474314,15.0707692 L27.7474314,15.0707692 L27.7285882,15.0707692 C27.7553333,15.2710769 27.7656667,15.4719808 27.7583725,15.6734808 L27.7583725,15.6734808 C27.7067059,22.2162692 22.2567843,27.4779231 15.5857059,27.42725 L15.5857059,27.42725 C9.00823529,27.3771731 3.6804902,22.1733462 3.60268627,15.7229615 L3.60268627,15.7229615 C3.596,15.5047692 3.60633333,15.2871731 3.63307843,15.0707692 L3.63307843,15.0707692 L3.61788235,15.0707692 C3.63064706,14.6564423 3.66529412,14.2427115 3.72182353,13.8313654 L3.72182353,13.8313654 C3.4677451,12.1728654 2.83011765,10.5936538 1.85878431,9.21415385 L1.85878431,9.21415385 C0.965862745,11.1063462 0.489313725,13.1624808 0.460137255,15.2472308 L0.460137255,15.2472308 C0.460137255,15.2841923 0.460137255,15.3241346 0.456490196,15.3664615 L0.456490196,15.3664615 L0.456490196,15.4624423 L0.456490196,15.6716923 C0.51727451,23.9194808 7.38347059,30.5576538 15.7923725,30.4986346 L15.7923725,30.4986346 C24.0967255,30.4396154 30.8225098,23.8652308 30.9088235,15.7205769 L30.9088235,15.7205769 C30.907,15.6406923 30.9063922,15.5476923 30.9057843,15.4624423 L30.9057843,15.4624423 C30.8997059,7.22180769 24.0863922,0.544288462 15.6847843,0.544288462 L15.6847843,0.544288462 C15.6811373,0.544288462 15.6768824,0.544288462 15.6726275,0.544288462" id="path-6"></path>
        <linearGradient x1="48.9647706%" y1="121.986736%" x2="50.0647857%" y2="45.6438995%" id="linearGradient-8">
            <stop stop-color="#21FFDD" offset="0%"></stop>
            <stop stop-color="#4D21FF" offset="100%"></stop>
        </linearGradient>
        <polygon id="path-9" points="0.578497579 0.561344506 10.8479763 0.561344506 10.8479763 17 0.578497579 17"></polygon>
        <polygon id="path-11" points="0.23334571 0.561133214 10.5029169 0.561133214 10.5029169 17 0.23334571 17"></polygon>
    </defs>
    <g id="Style-guide-" stroke="none" stroke-width="1" fill="none" fill-rule="evenodd">
        <g id="Bloc-header" transform="translate(-38.000000, -235.000000)">
            <g id="sticky-/-offer" transform="translate(0.000000, 210.000000)">
                <g id="logo" transform="translate(38.000000, 25.000000)">
                    <g id="Group-10" transform="translate(0.000000, 2.000000)">
                        <g id="Group-3">
                            <mask id="mask-2" fill="white">
                                <use xlink:href="#path-1"></use>
                            </mask>
                            <g id="Clip-2"></g>
                            <path d="M18.6544004,0.0715217391 L9.53023029,0.0715217391 C6.34925519,0.0715217391 3.9438195,0.741086957 2.38130913,2.05952174 C0.801350622,3.39378261 -6.01659751e-05,5.44691304 -6.01659751e-05,8.16169565 L-6.01659751e-05,19.9271739 C-6.01659751e-05,22.6431739 0.801350622,24.6896087 2.38191079,26.0104783 C3.94622614,27.3167391 6.34805187,27.979 9.52962863,27.979 L18.6537988,27.979 C19.4582178,28.1025652 20.2090892,27.5431739 20.3312261,26.7299565 C20.3534876,26.5814348 20.3534876,26.4304783 20.3312261,26.2819565 L20.3312261,21.7776087 C20.4533631,20.9637826 19.9004378,20.2041304 19.0966203,20.0805652 C18.9498154,20.0580435 18.8006037,20.0580435 18.6537988,20.0805652 L11.1378651,20.0805652 C10.6065996,20.1237826 10.0747324,19.9959565 9.61927593,19.7153478 C9.3058112,19.4359565 9.14516805,19.0202174 9.18788589,18.6002174 L9.18788589,9.59882609 C9.14998133,9.1636087 9.31303112,8.73447826 9.62950415,8.43743478 C10.073529,8.13673913 10.6053963,7.99734783 11.1378651,8.0423913 L18.6537988,8.0423913 C19.4582178,8.16534783 20.2090892,7.60534783 20.3312261,6.79152174 C20.3534876,6.6436087 20.3534876,6.49326087 20.3312261,6.34534783 L20.3312261,1.76795652 C20.4533631,0.954130435 19.9004378,0.194478261 19.0966203,0.0709130435 C18.9498154,0.0483913043 18.8006037,0.0483913043 18.6537988,0.0709130435 L18.6544004,0.0715217391 Z" id="Fill-1" fill="#4D22FF" mask="url(#mask-2)"></path>
                        </g>
                        <path d="M45.7267427,0.0715217391 L39.9309544,0.0715217391 C39.1265353,-0.0520434783 38.3750622,0.507956522 38.253527,1.3223913 C38.2312656,1.47030435 38.2312656,1.62065217 38.253527,1.76856522 L38.253527,9.64326087 L32.6707261,9.64326087 L32.6707261,1.76856522 C32.7928631,0.95473913 32.2399378,0.195086957 31.4361203,0.0715217391 C31.2893154,0.049 31.1401037,0.049 30.9939004,0.0715217391 L25.1975104,0.0715217391 C24.3930913,-0.0520434783 23.6416183,0.507956522 23.520083,1.3223913 C23.4978216,1.47030435 23.4978216,1.62065217 23.520083,1.76856522 L23.520083,26.2825652 C23.3985477,27.0963913 23.9520747,27.8560435 24.7564938,27.9796087 C24.9026971,28.0021304 25.0513071,28.0021304 25.1975104,27.9796087 L30.9939004,27.9796087 C31.7983195,28.1031739 32.5491909,27.5431739 32.6707261,26.7293478 C32.6929876,26.5814348 32.6929876,26.431087 32.6707261,26.2825652 L32.6707261,18.2191739 L38.253527,18.2191739 L38.253527,26.2825652 C38.13139,27.0963913 38.684917,27.8560435 39.4899378,27.9796087 C39.6361411,28.0021304 39.784751,28.0021304 39.9309544,27.9796087 L45.7267427,27.9796087 C46.5305602,28.1031739 47.2820332,27.5437826 47.4041701,26.7305652 C47.4264315,26.5820435 47.4264315,26.431087 47.4041701,26.2825652 L47.4041701,1.76856522 C47.5263071,0.95473913 46.9733817,0.195086957 46.1689627,0.0715217391 C46.0227593,0.049 45.8735477,0.049 45.7267427,0.0715217391" id="Fill-4" fill="#4D22FF"></path>
                        <path d="M118.928278,12.2174957 C117.661183,11.2082783 116.138983,10.5794957 114.536162,10.4017565 L108.945539,9.64393043 C108.74639,9.64271304 108.558672,9.5501913 108.434129,9.39314783 C108.301162,9.21297391 108.233174,8.9914087 108.242199,8.7668 C108.231369,8.55071304 108.297552,8.33706087 108.428112,8.16601739 C108.550249,8.02236522 108.734357,7.94749565 108.92027,7.96636522 L117.632905,7.96636522 C118.437324,8.08932174 119.188195,7.52993043 119.30973,6.71610435 C119.331992,6.5681913 119.331992,6.41723478 119.30973,6.26932174 L119.30973,1.76497391 C119.431867,0.951147826 118.878942,0.191495652 118.074523,0.0679304348 C117.92832,0.0454086957 117.77971,0.0454086957 117.632905,0.0679304348 L107.164025,0.0679304348 C104.677967,0.0679304348 102.695498,0.672365217 101.267759,1.86601739 C99.8237759,3.07488696 99.0909544,4.82306087 99.0909544,7.06062609 L99.0909544,11.0329739 C99.0909544,13.2449739 99.6649378,14.8580174 100.797261,15.8276696 C102.055934,16.8411478 103.57332,17.4723652 105.171929,17.6482783 L110.801058,18.4450609 C110.989979,18.4432348 111.169876,18.5223652 111.298631,18.6623652 C111.430996,18.882713 111.489959,19.1401913 111.467697,19.3970609 C111.474917,19.6021913 111.413548,19.8036696 111.293817,19.9686261 C111.180104,20.1080174 111.004419,20.1798435 110.826929,20.1585391 L100.767178,20.1585391 C99.9627593,20.0349739 99.2112863,20.5949739 99.089751,21.4094087 C99.0674896,21.5573217 99.0674896,21.7076696 99.089751,21.8555826 L99.089751,26.2808 C98.9676141,27.0952348 99.5211411,27.854887 100.326162,27.9784522 C100.472365,28.0009739 100.620975,28.0009739 100.767178,27.9784522 L112.583776,27.9784522 C115.044564,27.9784522 117.021017,27.3734087 118.458382,26.1809739 C119.915602,24.972713 120.65444,23.2245391 120.65444,20.9857565 L120.65444,17.0170609 C120.65444,14.8020174 120.073838,13.1883652 118.928278,12.2174957" id="Fill-6" fill="#4D22FF"></path>
                        <path d="M142.721454,7.89155652 C143.525873,8.01451304 144.276745,7.45512174 144.39828,6.64129565 C144.420541,6.49338261 144.420541,6.34242609 144.39828,6.19451304 L144.39828,1.76868696 C144.520417,0.95486087 143.967492,0.195208696 143.163073,0.0716434783 C143.016869,0.0491217391 142.867658,0.0491217391 142.721454,0.0716434783 L125.371392,0.0716434783 C124.566973,-0.0519217391 123.816102,0.507469565 123.693965,1.32068696 C123.671703,1.4692087 123.671703,1.62016522 123.693965,1.76868696 L123.693965,26.2820783 C123.572429,27.096513 124.125956,27.8561652 124.930376,27.9791217 C125.076579,28.0022522 125.225189,28.0022522 125.371392,27.9791217 L142.721454,27.9791217 C143.525873,28.1032957 144.276745,27.5432957 144.39828,26.7294696 C144.420541,26.5815565 144.420541,26.4312087 144.39828,26.2820783 L144.39828,21.8568609 C144.519815,21.0424261 143.966288,20.2827739 143.161869,20.1598174 C143.015666,20.1372957 142.867056,20.1372957 142.721454,20.1598174 L132.733902,20.1598174 L132.733902,17.576513 L139.694504,17.576513 C140.498923,17.7000783 141.249795,17.140687 141.371932,16.3268609 C141.394193,16.1789478 141.394193,16.0279913 141.371932,15.8800783 L141.371932,11.8310348 C141.494068,11.0166 140.93994,10.2569478 140.135521,10.1339913 C139.989317,10.1114696 139.840707,10.1114696 139.694504,10.1339913 L132.732098,10.1339913 L132.732098,7.89094783 L142.721454,7.89155652 Z" id="Fill-8" fill="#4D22FF"></path>
                    </g>
                    <g id="Group-13" transform="translate(46.000000, 0.000000)">
                        <mask id="mask-4" fill="white">
                            <use xlink:href="#path-3"></use>
                        </mask>
                        <g id="Clip-12"></g>
                        <path d="M1.83203922,9.10326923 C-1.7402549,16.5879808 1.55,25.4957115 9.18147059,28.9993077 L9.18147059,28.9993077 C15.0933529,31.7124038 22.1102941,30.4378269 26.6381176,25.8271731 L26.6381176,25.8271731 C25.9330196,25.0295192 25.3118039,24.1639038 24.7829804,23.2440385 L24.7829804,23.2440385 C20.4065098,28.179 12.7786863,28.7006346 7.74696078,24.4083269 L7.74696078,24.4083269 C2.71462745,20.1160192 2.18276471,12.6354808 6.55984314,7.69992308 L6.55984314,7.69992308 C10.9363137,2.76436538 18.5635294,2.24273077 23.5958627,6.53563462 L23.5958627,6.53563462 C26.233902,8.78551923 27.7474314,12.0464808 27.7468235,15.4749615 L27.7468235,15.4749615 C27.7468235,16.0490577 27.7036667,16.6213654 27.6197843,17.1889038 L27.6197843,17.1889038 C27.8671765,18.8414423 28.4993333,20.4158846 29.4676275,21.7906154 L29.4676275,21.7906154 C33.0399216,14.3059038 29.748451,5.39757692 22.1175882,1.89457692 L22.1175882,1.89457692 C20.0266078,0.934769231 17.825,0.479903846 15.6598627,0.479903846 L15.6598627,0.479903846 C9.92121569,0.479307692 4.42509804,3.66932692 1.83203922,9.10326923" id="Fill-11" fill="url(#linearGradient-5)" mask="url(#mask-4)"></path>
                    </g>
                    <g id="Group-16" transform="translate(69.000000, 0.000000)">
                        <mask id="mask-7" fill="white">
                            <use xlink:href="#path-6"></use>
                        </mask>
                        <g id="Clip-15"></g>
                        <path d="M15.6726275,0.544288462 C11.5119412,0.546673077 7.533,2.22007692 4.66276471,5.17521154 L4.66276471,5.17521154 C5.36968627,5.97167308 5.99394118,6.83669231 6.52519608,7.75596154 L6.52519608,7.75596154 C10.8700588,2.79596154 18.4924118,2.22961538 23.5490588,6.49092308 L23.5490588,6.49092308 C26.1105098,8.64959615 27.6331569,11.7609231 27.7474314,15.0707692 L27.7474314,15.0707692 L27.7285882,15.0707692 C27.7553333,15.2710769 27.7656667,15.4719808 27.7583725,15.6734808 L27.7583725,15.6734808 C27.7067059,22.2162692 22.2567843,27.4779231 15.5857059,27.42725 L15.5857059,27.42725 C9.00823529,27.3771731 3.6804902,22.1733462 3.60268627,15.7229615 L3.60268627,15.7229615 C3.596,15.5047692 3.60633333,15.2871731 3.63307843,15.0707692 L3.63307843,15.0707692 L3.61788235,15.0707692 C3.63064706,14.6564423 3.66529412,14.2427115 3.72182353,13.8313654 L3.72182353,13.8313654 C3.4677451,12.1728654 2.83011765,10.5936538 1.85878431,9.21415385 L1.85878431,9.21415385 C0.965862745,11.1063462 0.489313725,13.1624808 0.460137255,15.2472308 L0.460137255,15.2472308 C0.460137255,15.2841923 0.460137255,15.3241346 0.456490196,15.3664615 L0.456490196,15.3664615 L0.456490196,15.4624423 L0.456490196,15.6716923 C0.51727451,23.9194808 7.38347059,30.5576538 15.7923725,30.4986346 L15.7923725,30.4986346 C24.0967255,30.4396154 30.8225098,23.8652308 30.9088235,15.7205769 L30.9088235,15.7205769 C30.907,15.6406923 30.9063922,15.5476923 30.9057843,15.4624423 L30.9057843,15.4624423 C30.8997059,7.22180769 24.0863922,0.544288462 15.6847843,0.544288462 L15.6847843,0.544288462 C15.6811373,0.544288462 15.6768824,0.544288462 15.6726275,0.544288462" id="Fill-14" fill="url(#linearGradient-8)" mask="url(#mask-7)"></path>
                    </g>
                    <g id="Group-35" transform="translate(9.000000, 33.000000)">
                        <polygon id="Fill-17" fill="#4D22FF" points="6.27554554 5.08973929 5.3326723 0.813632143 0.0678460094 0.813632143 3.7504 11.7555607 3.7504 16.7487036 8.51644695 16.7487036 8.51644695 11.7555607 12.2518836 0.815453571 7.17635305 0.815453571"></polygon>
                        <path d="M20.6188169,8.61997143 C20.5635305,7.63397143 20.6632864,6.64554286 20.9138779,5.69172143 C21.0166385,5.43186429 21.2437934,5.08457857 22.0298216,5.08457857 C22.8158498,5.08457857 23.0700469,5.43611429 23.1866291,5.69961429 C23.4642629,6.65404286 23.5748357,7.64975714 23.5135399,8.64243571 L23.5135399,9.43172143 C23.5135399,11.2300786 23.355493,11.9635071 23.2232864,12.2616143 C23.1631925,12.3927571 22.9877183,12.7922571 22.1025352,12.7922571 C21.6356056,12.8614714 21.1740845,12.6331857 20.9421221,12.2185071 C20.7942911,11.9052214 20.618216,11.12565 20.618216,9.21011429 L20.6188169,8.61997143 Z M22.0664789,0.567435714 C19.8430047,0.567435714 18.2144601,1.23104286 17.2217089,2.53822143 C16.2487887,3.82111429 15.7548169,5.88782857 15.7548169,8.6819 C15.7548169,11.4759714 16.2421784,13.5706143 17.2042817,14.91665 C18.1880188,16.2942571 19.8075493,16.9936857 22.0172019,16.9936857 C24.2268545,16.9936857 25.8541972,16.2863643 26.8541596,14.8923643 C27.8324883,13.5293286 28.3282629,11.42315 28.3282629,8.63272143 C28.3282629,5.84350714 27.8433052,3.78165 26.8860094,2.51515 C25.9124883,1.22193571 24.2899531,0.567435714 22.0664789,0.567435714 L22.0664789,0.567435714 Z" id="Fill-19" fill="#4D22FF"></path>
                        <path d="M39.9331155,11.3805893 C39.9685709,11.7211964 39.8934535,12.063625 39.7197822,12.3574821 C39.514261,12.5456964 39.2372282,12.633125 38.9619981,12.5966964 C38.6693408,12.6294821 38.3772845,12.5341607 38.1591437,12.3350179 C37.9746554,12.0624107 37.889923,11.7339464 37.9187681,11.4054821 L37.9187681,0.813875 L33.0301296,0.813875 L33.0301296,11.676875 C33.0301296,13.504375 33.5210967,14.8649821 34.4898103,15.7204464 C35.4459042,16.5649821 36.9019793,16.9954464 38.8165709,16.9954464 C40.7311624,16.9954464 42.2076695,16.564375 43.2118385,15.7149821 C44.2334347,14.851625 44.7496413,13.4770536 44.7496413,11.630125 L44.7496413,0.813875 L39.9343174,0.813875 L39.9331155,11.3805893 Z" id="Fill-21" fill="#4D22FF"></path>
                        <path d="M54.6516732,5.18761071 L55.0008188,5.18761071 C55.2381897,5.15968214 55.4731568,5.25378929 55.6269972,5.43836071 C55.8066779,5.80203929 55.8805934,6.20943214 55.8385277,6.61378929 C55.8823962,7.012075 55.8102836,7.41461071 55.6300019,7.77221786 C55.4641427,7.955575 55.2207624,8.04603929 54.9767812,8.015075 L54.6516732,8.015075 L54.6516732,5.18761071 Z M60.4807812,8.40546786 C60.798077,7.63925357 60.9495136,6.81293214 60.9242742,5.98296786 C60.9242742,4.21375357 60.512631,2.89564643 59.7001615,2.065075 C58.887692,1.23511071 57.6106967,0.813753571 55.9058329,0.813753571 L49.9385089,0.813753571 L49.9385089,16.7463964 L54.6558798,16.7463964 L54.6558798,11.2250393 L56.1852695,16.7463964 L61.3533446,16.7463964 L59.2626779,10.029575 C59.7752789,9.57846786 60.1905277,9.02596786 60.4807812,8.40546786 L60.4807812,8.40546786 Z" id="Fill-23" fill="#4D22FF"></path>
                        <path d="M77.3597146,7.16968929 L77.3597146,7.16968929 C77.3278648,7.21886786 77.2311136,7.37065357 76.8393014,7.37065357 L76.3435268,7.37065357 L76.3435268,4.84008214 L76.8146629,4.84008214 C77.207677,4.84008214 77.3146441,5.00340357 77.3482967,5.056225 C77.5015362,5.38711786 77.5640338,5.75383214 77.5285784,6.11811786 C77.5646347,6.47693929 77.5063437,6.83940357 77.3603155,7.168475 L77.3597146,7.16968929 Z M76.3435268,10.3875464 L76.8146629,10.3875464 C77.3507005,10.3875464 77.4841089,10.6012607 77.5279775,10.6722964 C77.7142685,11.082725 77.7905878,11.5350464 77.749123,11.9855464 C77.749123,12.8349393 77.6163155,13.0990464 77.5580244,13.173725 C77.3500995,13.3461536 77.0808789,13.4232607 76.8146629,13.3850107 L76.3435268,13.3850107 L76.3435268,10.3875464 Z M81.0386629,8.28501071 C82.0278085,7.53518929 82.5884845,6.34276071 82.5410103,5.094475 C82.5410103,3.623975 82.1269634,2.527475 81.3078836,1.83593929 C80.50563,1.15836786 79.2815174,0.813510714 77.6697991,0.813510714 L71.5041653,0.813510714 L71.5041653,16.7461536 L77.7911887,16.7461536 C81.1041653,16.7461536 82.7843906,15.1566536 82.7843906,12.0213679 C82.7837897,10.1762607 82.1978742,8.92008214 81.0386629,8.28501071 L81.0386629,8.28501071 Z" id="Fill-25" fill="#4D22FF"></path>
                        <path d="M91.618554,8.61997143 C91.5632676,7.63397143 91.6624225,6.64615 91.9130141,5.69172143 C92.0157746,5.43186429 92.2429296,5.08457857 93.0289577,5.08457857 C93.8149859,5.08457857 94.0691831,5.43611429 94.1851643,5.69961429 C94.4633991,6.65404286 94.5745728,7.64975714 94.5126761,8.64243571 L94.5126761,9.43172143 C94.5126761,11.2300786 94.35523,11.9635071 94.2230235,12.2616143 C94.1629296,12.3927571 93.9874554,12.7922571 93.1022723,12.7922571 C92.6353427,12.8614714 92.1744225,12.6331857 91.9424601,12.2185071 C91.7946291,11.9052214 91.618554,11.12565 91.618554,9.21011429 L91.618554,8.61997143 Z M93.0638122,0.567435714 C90.840338,0.567435714 89.2117934,1.23104286 88.2196432,2.53822143 C87.2461221,3.82111429 86.7527512,5.88782857 86.7527512,8.6819 C86.7527512,11.4759714 87.2401127,13.5706143 88.202216,14.91665 C89.1859531,16.2942571 90.8054836,16.9936857 93.0151362,16.9936857 C95.2247887,16.9936857 96.8521315,16.2863643 97.8520939,14.8923643 C98.8304225,13.5293286 99.3261972,11.42315 99.3261972,8.63272143 C99.3261972,5.84350714 98.8412394,3.78165 97.8839437,2.51515 C96.9068169,1.22193571 95.2842817,0.567435714 93.0638122,0.567435714 L93.0638122,0.567435714 Z" id="Fill-27" fill="#4D22FF"></path>
                        <g id="Group-31" transform="translate(102.760563, 0.000000)">
                            <mask id="mask-10" fill="white">
                                <use xlink:href="#path-9"></use>
                            </mask>
                            <g id="Clip-30"></g>
                            <path d="M8.82334648,7.73238929 C8.31254836,7.38388929 7.77831362,7.07181786 7.22424789,6.79860357 C6.77895211,6.58428214 6.34447324,6.34749643 5.92381596,6.08763929 C5.66721502,5.92613929 5.51998498,5.76281786 5.51998498,5.63774643 C5.51998498,5.31353214 5.62154366,5.01299643 6.35709296,5.01299643 C7.45500845,5.09738929 8.54270798,5.28438929 9.60636995,5.57156786 L9.93989108,5.64988929 L10.5071775,1.07203214 L10.2211305,1.016175 C8.71097089,0.722925 7.17617277,0.572353571 5.63776901,0.567496429 C4.26101784,0.498282143 2.91912113,1.01556786 1.93838873,1.99488929 C1.01234178,3.01063929 0.524379343,4.356675 0.583271362,5.73671071 C0.563440376,6.60613929 0.765956808,7.46524643 1.17279249,8.23146071 C1.5153277,8.88049643 2.01050141,9.43421071 2.61444507,9.84463929 C3.13185352,10.183425 3.66729014,10.4942821 4.21775023,10.774175 C4.66544977,10.995175 5.09572207,11.250175 5.50556244,11.5373536 C5.73391925,11.6593893 5.89076432,11.8852464 5.92621972,12.1444964 C5.92621972,12.5033179 5.80603192,12.7437464 5.21050141,12.7437464 C4.00321502,12.6338536 2.81155305,12.3812821 1.66135587,11.9921036 L1.29538404,11.8846393 L0.980492019,16.1868536 L1.21125258,16.2627464 C2.67994742,16.7460321 4.21534648,16.991925 5.75975962,16.9913179 C7.14252019,17.0738893 8.4982385,16.5760321 9.50661408,15.6155321 C10.4410742,14.5669964 10.9212244,13.1833179 10.8388958,11.772925 C10.8539192,10.9289964 10.6508019,10.0947821 10.2499756,9.35285357 C9.90683944,8.70685357 9.41767512,8.151925 8.82334648,7.73238929" id="Fill-29" fill="#4D22FF" mask="url(#mask-10)"></path>
                        </g>
                        <g id="Group-34" transform="translate(117.183099, 0.000000)">
                            <mask id="mask-12" fill="white">
                                <use xlink:href="#path-11"></use>
                            </mask>
                            <g id="Clip-33"></g>
                            <path d="M9.90551737,9.35455357 C9.56238122,8.70855357 9.0732169,8.15301786 8.47888826,7.73226786 C7.9674892,7.38376786 7.4338554,7.07169643 6.87978967,6.79848214 C6.43389296,6.58476786 5.99941408,6.347375 5.57875681,6.08751786 C5.32275681,5.926625 5.17552676,5.76269643 5.17552676,5.637625 C5.17552676,5.31341071 5.27708545,5.01348214 6.01263474,5.01348214 C7.11115117,5.09726786 8.19824977,5.28426786 9.26191174,5.57205357 L9.59543286,5.64976786 L10.1621183,1.07191071 L9.87607136,1.01666071 C8.3653108,0.722803571 6.83171455,0.572232143 5.29270986,0.567375 C3.91595869,0.497553571 2.57406197,1.01605357 1.59332958,1.99476786 C0.66668169,3.01051786 0.178719249,4.35716071 0.238212207,5.73658929 C0.217780282,6.60601786 0.420296714,7.465125 0.827132394,8.23133929 C1.17026854,8.880375 1.66484131,9.43408929 2.26938592,9.84451786 C2.78619343,10.1833036 3.32163005,10.4941607 3.87269108,10.7740536 C4.32099155,10.9950536 4.75186479,11.2506607 5.16170516,11.5384464 C5.39066291,11.6604821 5.54750798,11.8863393 5.58296338,12.1455893 C5.58296338,12.5050179 5.46217465,12.7448393 4.86664413,12.7448393 C3.65875681,12.6349464 2.46769577,12.382375 1.31809953,11.9931964 L0.951526761,11.8857321 L0.635432864,16.1867321 L0.866193427,16.262625 C2.33428732,16.7459107 3.86968638,16.9918036 5.41409953,16.9911964 C6.79746103,17.0737679 8.1525784,16.5765179 9.16095399,15.6160179 C10.096015,14.566875 10.5761653,13.1831964 10.4938366,11.7728036 C10.5082592,10.9294821 10.3051418,10.095875 9.90551737,9.35455357" id="Fill-32" fill="#4D22FF" mask="url(#mask-12)"></path>
                        </g>
                    </g>
                </g>
            </g>
        </g>
    </g>
</svg>