<svg id="Calque_1" data-name="Calque 1" xmlns="http://www.w3.org/2000/svg" xmlns:xlink="http://www.w3.org/1999/xlink" viewBox="0 0 607.07 607.07"><defs><style>.cls-1{fill:none;}.cls-2{fill:#aac6fc;}.cls-3{fill:#f1f4e5;}.cls-4{fill:#f5df49;}.cls-5{fill:#3b3d49;}.cls-6{fill:#383a48;}.cls-7{fill:#f3f6e6;}.cls-8{clip-path:url(#clip-path);}.cls-12,.cls-9{fill:#d74a83;}.cls-10{fill:#61cbb4;}.cls-11{fill:#7fd6c2;}.cls-11,.cls-12{stroke:#383a48;stroke-miterlimit:10;stroke-width:4px;}.cls-13{fill:#3c3e4c;}</style><clipPath id="clip-path"><circle class="cls-1" cx="-431.54" cy="312.07" r="242.37"/></clipPath></defs><title>Plan de travail 1 copie 5_RVB</title><circle class="cls-2" cx="303.54" cy="312.07" r="242.37"/><path class="cls-3" d="M341.75,199.19c-1.12-28.66,5.84-54.22,26.71-74.17,23.39-22.37,51.42-27.75,81.79-17.73,34.19,11.28,56.05,35.7,68.1,69,9.44,26.09,9.62,52.44-1.7,78.09-12,27.24-32.89,43.85-62.54,48.21-21.3,3.13-40.95-2.51-59.15-13.61a109.31,109.31,0,0,1-14.54-10.8c-1.7-1.47-1.39-2,.47-2.86,22.35-10.55,44.45-21.68,67.07-31.61,22.1-9.69,27.36-31.91,22-49.21-5.51-17.91-17-29.68-36-32.95-7.36-1.27-14.26.6-20.92,3.79Q378.29,182,343.47,198.53C343.05,198.73,342.6,198.87,341.75,199.19Z"/><path class="cls-4" d="M339,166.27q-13.47,86.89,61.58,132.37c-1.21,0-2.81.11-4.39,0-22.23-1.71-43.65,2.38-64.68,9.06a278,278,0,0,0-51.06,22.21c-2.1,1.17-2.93,1-4-1.26Q256.73,286.76,236.75,245c-1.12-2.33-.55-3,1.5-4,22.6-10.9,44.32-23.26,64.1-38.83a233.43,233.43,0,0,0,35.14-34.21C338,167.3,338.36,166.4,339,166.27Z"/><path class="cls-3" d="M436.05,240c-14.76-1-25.51-9.38-32.19-23.18-5-10.35-5.79-21.17-1.34-32,6.13-14.86,20.69-21.71,36.1-17.18,23.3,6.85,35.59,37,23.46,57.76C456.54,234.87,448.07,239.68,436.05,240Z"/><path class="cls-3" d="M407,230.62c8.82,8.69,14.92,12,25.88,14.62l-26.05,12.09-.56-.43c.1-1.73-.23-3.18-2.35-3.27a2.22,2.22,0,0,0-2.43,2.05c-.26,1.67.93,2.39,2.63,3.12-7.1,3.38-13.93,6.64-20.76,9.87-.48.23-1.12.63-1.31-.35-.43-2.2-1.86-3.25-3.76-2.1-2.16,1.3-1.2,3.13.19,4.5-2.52,2.36-4.26,1.74-6.34-.64a128,128,0,0,1-15.47-21.54c-.59-1.06-1.55-2,.19-3.08a2,2,0,0,0,.51-2.65,2.05,2.05,0,0,0-2.6-1.35c-1.64.66-1.95-.35-2.45-1.44a120.63,120.63,0,0,1-8.72-27.15c-.28-1.45-.72-2.81,1.06-4.06,1.56-1.1.86-2.71-1.75-4.6l21.87-10.35c.17,1.73.31,3.37,2.27,3.62a2.28,2.28,0,0,0,2.55-1.53c.64-1.61-.35-2.56-1.81-3.51,6.78-3.22,13.42-6.36,20-9.54.9-.44,1.27-.39,1.6.66a2.24,2.24,0,0,0,3.25,1.51,2.14,2.14,0,0,0,1.12-3.36c-1-1.39,0-1.61.86-2l5.3-2.44a3,3,0,0,0,.37.43c-3.16,6.31-5.33,12.86-5.45,20A47.8,47.8,0,0,0,403.44,226c.71,1,1.4,2.09,2.09,3.13l-.3.41c-1.92-.71-3.37-.2-3.73,1.87a2.19,2.19,0,0,0,2.37,2.66c1.87,0,2.4-1.31,2.5-2.92ZM379.51,217a2.47,2.47,0,0,0-2.41,2.44,2.25,2.25,0,0,0,2.3,2.47,2.31,2.31,0,0,0,2.56-2.51C381.93,217.91,380.9,217.16,379.51,217Zm0,17.12a2.36,2.36,0,0,0,2.44-2.39,2.3,2.3,0,0,0-2.6-2.46,2.27,2.27,0,0,0-2.26,2.51A2.33,2.33,0,0,0,379.52,234.07ZM369.8,207.2a2.42,2.42,0,0,0-2.45-2.38,2.19,2.19,0,0,0-2.41,2.32,2.25,2.25,0,0,0,2.51,2.51A2.4,2.4,0,0,0,369.8,207.2Zm22.06,26.86a2.3,2.3,0,0,0,2.28-2.49,2.42,2.42,0,1,0-4.83.27A2.33,2.33,0,0,0,391.86,234.06Zm2.33-14.59a2.43,2.43,0,0,0-2.36-2.46,2.43,2.43,0,1,0-.07,4.86A2.43,2.43,0,0,0,394.19,219.47ZM367.39,217c-1.39.18-2.37.85-2.45,2.35a2.22,2.22,0,0,0,2.18,2.55,2.3,2.3,0,0,0,2.63-2.42C369.79,218,368.76,217.24,367.39,217Zm26.8-9.7a2.4,2.4,0,0,0-2.38-2.43,2.27,2.27,0,0,0-2.51,2.26,2.3,2.3,0,0,0,2.48,2.59C393.21,209.66,394,208.66,394.19,207.25ZM382,207.16a2.48,2.48,0,0,0-2.53-2.35,2.26,2.26,0,0,0-2.38,2.4,2.3,2.3,0,0,0,2.62,2.45A2.48,2.48,0,0,0,382,207.16Zm-24.44,12.46a2.28,2.28,0,0,0-2.19-2.6,2.25,2.25,0,0,0-2.6,2.42,2.2,2.2,0,0,0,2.32,2.41A2.26,2.26,0,0,0,357.57,219.62Zm21.69,34a2.4,2.4,0,0,0,.21,4.78,2.24,2.24,0,0,0,2.47-2.54C381.87,254.47,381,253.6,379.26,253.62Zm14.94,2.43c-.21-1.33-.78-2.35-2.33-2.42a2.39,2.39,0,1,0-.15,4.77C393.24,258.43,393.93,257.47,394.2,256.05Zm-2.85-9.88c1.78.07,2.67-.79,2.78-2.19a2.2,2.2,0,0,0-2.15-2.56,2.25,2.25,0,0,0-2.68,2.32A2.18,2.18,0,0,0,391.35,246.17Zm-24.17-17a2.45,2.45,0,0,0-2.25,2.49,2.18,2.18,0,0,0,2.33,2.39,2.25,2.25,0,0,0,2.48-2.54C369.66,230,368.66,229.32,367.18,229.15ZM382,243.82c-.23-1.36-.87-2.35-2.37-2.42a2.39,2.39,0,1,0-.1,4.77C381.07,246.17,381.75,245.21,382,243.82Zm-24.44-36.5a2.27,2.27,0,0,0-2.26-2.49A2.18,2.18,0,0,0,352.8,207a2.25,2.25,0,0,0,2.36,2.65A2.29,2.29,0,0,0,357.58,207.32Zm36.62-12.21c-.2-1.34-.8-2.33-2.34-2.4a2.22,2.22,0,0,0-2.55,2.17,2.27,2.27,0,0,0,2.42,2.61C393.23,197.51,393.93,196.52,394.2,195.11ZM382,194.94c-.32-1.24-1-2.23-2.49-2.24a2.19,2.19,0,0,0-2.42,2.3,2.24,2.24,0,0,0,2.53,2.48C381.15,197.43,381.79,196.41,382,194.94Zm-14.87,46.43a2.27,2.27,0,0,0-2.21,2.5,2.14,2.14,0,0,0,2.38,2.3,2.23,2.23,0,0,0,2.4-2.6A2.32,2.32,0,0,0,367.16,241.37Zm36.47,0a2.38,2.38,0,0,0-2.17,2.39,2.23,2.23,0,0,0,2.58,2.42,2.13,2.13,0,0,0,2.21-2.45C406.2,242.22,405.31,241.48,403.63,241.35ZM369.8,256c-.21-1.39-.88-2.34-2.39-2.39a2.16,2.16,0,0,0-2.46,2.23,2.19,2.19,0,0,0,2.44,2.53C368.9,258.38,369.57,257.41,369.8,256Zm-14.53-21.95a2.31,2.31,0,0,0,2.29-2.35,2.39,2.39,0,1,0-4.77,0C352.78,233.22,353.72,233.91,355.27,234.07Zm63.23,9.65a2.27,2.27,0,0,0-2.33-2.31,2.2,2.2,0,0,0-2.47,2.29,2.17,2.17,0,0,0,2.29,2.46C417.5,246.22,418.32,245.39,418.5,243.72Z"/><path class="cls-3" d="M325.32,423.5c-3.07.19-4.6-1.68-5.75-4.12q-8.81-18.6-17.62-37.17c-4.54-9.58-9-19.17-13.65-28.71-.75-1.55-.71-2.24,1-3,11.11-5.18,22.13-10.52,33.4-15.32,1.78-.75,2.71-1.05,2.7,1.54,0,4.77,1.71,9.12,3.74,13.37Q341.44,376,353.72,402c2.68,5.65,1.86,8-3.7,10.66-6.94,3.3-13.9,6.55-20.83,9.86A7.42,7.42,0,0,1,325.32,423.5Z"/><path class="cls-3" d="M406.09,229.71l.9.91-.62.49c-.11-.48-.81-.86-.23-1.45Z"/><path class="cls-3" d="M406.82,257.33l-.64.26c0-.23.05-.46.08-.69C406.44,257.05,406.63,257.19,406.82,257.33Z"/><path class="cls-3" d="M400,177.25l.66-.08-.29.51A3,3,0,0,1,400,177.25Z"/><path class="cls-4" d="M469.7,304.41l.6-.18-.27.51Z"/><path class="cls-3" d="M405.53,229.09c.19.21.38.41.56.62l.05-.05c-.42.61-.62,0-.91-.16Z"/><path class="cls-5" d="M379.51,217c1.39.21,2.42,1,2.45,2.4a2.31,2.31,0,0,1-2.56,2.51,2.25,2.25,0,0,1-2.3-2.47A2.47,2.47,0,0,1,379.51,217Z"/><path class="cls-5" d="M379.52,234.07a2.33,2.33,0,0,1-2.42-2.34,2.27,2.27,0,0,1,2.26-2.51,2.3,2.3,0,0,1,2.6,2.46A2.36,2.36,0,0,1,379.52,234.07Z"/><path class="cls-5" d="M369.8,207.2a2.4,2.4,0,0,1-2.35,2.45,2.25,2.25,0,0,1-2.51-2.51,2.19,2.19,0,0,1,2.41-2.32A2.42,2.42,0,0,1,369.8,207.2Z"/><path class="cls-5" d="M391.85,234.06a2.33,2.33,0,0,1-2.54-2.22,2.42,2.42,0,1,1,2.54,2.22Z"/><path class="cls-5" d="M394.19,219.47a2.43,2.43,0,0,1-2.43,2.4,2.43,2.43,0,1,1,.07-4.86A2.43,2.43,0,0,1,394.19,219.47Z"/><path class="cls-5" d="M367.39,217c1.37.29,2.4,1,2.36,2.48a2.3,2.3,0,0,1-2.63,2.42,2.22,2.22,0,0,1-2.18-2.55C365,217.8,366,217.13,367.39,217Z"/><path class="cls-5" d="M394.19,207.25c-.21,1.41-1,2.41-2.41,2.42a2.3,2.3,0,0,1-2.48-2.59,2.27,2.27,0,0,1,2.51-2.26A2.4,2.4,0,0,1,394.19,207.25Z"/><path class="cls-5" d="M405.23,229.5c.29.13.49.77.91.16-.58.59.12,1,.23,1.45-.1,1.61-.63,3-2.5,2.92a2.19,2.19,0,0,1-2.37-2.66C401.86,229.3,403.31,228.79,405.23,229.5Z"/><path class="cls-5" d="M382,207.16a2.48,2.48,0,0,1-2.29,2.5,2.3,2.3,0,0,1-2.62-2.45,2.26,2.26,0,0,1,2.38-2.4A2.48,2.48,0,0,1,382,207.16Z"/><path class="cls-5" d="M357.57,219.62a2.26,2.26,0,0,1-2.47,2.23,2.2,2.2,0,0,1-2.32-2.41,2.25,2.25,0,0,1,2.6-2.42A2.28,2.28,0,0,1,357.57,219.62Z"/><path class="cls-5" d="M379.26,253.62c1.7,0,2.61.85,2.68,2.24a2.24,2.24,0,0,1-2.47,2.54,2.4,2.4,0,0,1-.21-4.78Z"/><path class="cls-5" d="M394.2,256.05c-.27,1.42-1,2.38-2.48,2.35a2.39,2.39,0,1,1,.15-4.77C393.42,253.7,394,254.72,394.2,256.05Z"/><path class="cls-5" d="M391.35,246.17a2.18,2.18,0,0,1-2.05-2.43,2.25,2.25,0,0,1,2.68-2.32,2.2,2.2,0,0,1,2.15,2.56C394,245.38,393.13,246.24,391.35,246.17Z"/><path class="cls-5" d="M367.18,229.15c1.48.17,2.48.89,2.56,2.34a2.25,2.25,0,0,1-2.48,2.54,2.18,2.18,0,0,1-2.33-2.39A2.45,2.45,0,0,1,367.18,229.15Z"/><path class="cls-5" d="M382,243.82c-.27,1.39-.95,2.35-2.47,2.35a2.39,2.39,0,1,1,.1-4.77C381.15,241.47,381.79,242.46,382,243.82Z"/><path class="cls-5" d="M357.58,207.32a2.29,2.29,0,0,1-2.42,2.34A2.25,2.25,0,0,1,352.8,207a2.18,2.18,0,0,1,2.52-2.18A2.27,2.27,0,0,1,357.58,207.32Z"/><path class="cls-5" d="M394.2,195.11c-.27,1.41-1,2.4-2.47,2.38a2.27,2.27,0,0,1-2.42-2.61,2.22,2.22,0,0,1,2.55-2.17C393.4,192.78,394,193.77,394.2,195.11Z"/><path class="cls-5" d="M382,194.94c-.24,1.47-.88,2.49-2.38,2.54a2.24,2.24,0,0,1-2.53-2.48,2.19,2.19,0,0,1,2.42-2.3C381.07,192.71,381.71,193.7,382,194.94Z"/><path class="cls-5" d="M367.16,241.37a2.32,2.32,0,0,1,2.57,2.2,2.23,2.23,0,0,1-2.4,2.6,2.14,2.14,0,0,1-2.38-2.3A2.27,2.27,0,0,1,367.16,241.37Z"/><path class="cls-5" d="M403.63,241.35c1.68.13,2.57.87,2.62,2.36a2.13,2.13,0,0,1-2.21,2.45,2.23,2.23,0,0,1-2.58-2.42A2.38,2.38,0,0,1,403.63,241.35Z"/><path class="cls-5" d="M369.8,256c-.23,1.39-.9,2.36-2.41,2.37a2.19,2.19,0,0,1-2.44-2.53,2.16,2.16,0,0,1,2.46-2.23C368.92,253.68,369.59,254.63,369.8,256Z"/><path class="cls-5" d="M355.27,234.07c-1.55-.16-2.49-.85-2.48-2.38a2.39,2.39,0,1,1,4.77,0A2.31,2.31,0,0,1,355.27,234.07Z"/><path class="cls-5" d="M418.5,243.72c-.18,1.67-1,2.5-2.51,2.44a2.17,2.17,0,0,1-2.29-2.46,2.2,2.2,0,0,1,2.47-2.29A2.27,2.27,0,0,1,418.5,243.72Z"/><path class="cls-5" d="M557.81,267.06c-4.59-1.64-9.47-3.33-14.29-5.14a2.19,2.19,0,0,1-1.36-3.1,2.33,2.33,0,0,1,3.1-1.46q7,2.42,14,5a2.31,2.31,0,0,1,1.71,2.95C560.62,266.67,559.57,267.29,557.81,267.06Z"/><path class="cls-5" d="M533.45,111.8a3.15,3.15,0,0,1-1.14,2c-3.64,3-7.27,6.11-10.92,9.14-1.28,1.07-2.7,1.34-3.82-.11-1-1.27-.62-2.57.59-3.58q5.57-4.68,11.15-9.32a2.29,2.29,0,0,1,2.94-.3A2.6,2.6,0,0,1,533.45,111.8Z"/><path class="cls-5" d="M544.85,165.93c-2.11.08-2.93-.55-3.32-1.65a2,2,0,0,1,1.07-2.72q7.46-2.9,15-5.53a2.13,2.13,0,0,1,2.59,1.4,2,2,0,0,1-.71,2.81C554.39,162.34,549.21,164.25,544.85,165.93Z"/><path class="cls-5" d="M482.46,92.24c-2.12,0-3.34-1.75-2.39-3.5,2.43-4.44,5.05-8.77,7.65-13.1a2.42,2.42,0,0,1,4.15,2.49c-2.5,4.4-5.1,8.74-7.68,13.08A1.9,1.9,0,0,1,482.46,92.24Z"/><path class="cls-5" d="M560.09,209.07h7c1.69,0,2.92.62,2.88,2.51-.05,1.69-1.19,2.34-2.75,2.35L552.9,214c-1.59,0-2.72-.74-2.75-2.37,0-1.83,1.23-2.49,2.92-2.49,2.34,0,4.68,0,7,0Z"/><path class="cls-5" d="M291.47,165.26a2.36,2.36,0,0,1-2.15-1.24,2.17,2.17,0,0,1,.19-2.7c1.55-1.58,3.15-3.13,4.82-4.58a2.19,2.19,0,0,1,2.71-.07,2.32,2.32,0,0,1,1.12,2.21C298.08,160.36,293,165.23,291.47,165.26Z"/><path class="cls-5" d="M306.1,150.33c-2.07,0-3.38-1.88-2.36-3.47a37.11,37.11,0,0,1,4.42-5.37,2.35,2.35,0,0,1,3.64,2.79,62.74,62.74,0,0,1-4.6,5.6C306.93,150.2,306.33,150.24,306.1,150.33Z"/><path class="cls-5" d="M349.51,94.16c-.06,1.76-5.3,6.44-7,6.27a2.31,2.31,0,0,1-1.7-3.69,28.5,28.5,0,0,1,5.38-4.85C347.64,90.86,349.57,92.32,349.51,94.16Z"/><path class="cls-5" d="M329.37,116.16a2.44,2.44,0,0,1-2.13-3.84,44.53,44.53,0,0,1,3.68-4.88,2.28,2.28,0,0,1,3.16-.46,2,2,0,0,1,1,2.75,24.64,24.64,0,0,1-4.58,6A2.91,2.91,0,0,1,329.37,116.16Z"/><path class="cls-5" d="M366.31,82.07a2.47,2.47,0,0,1-1.1,2c-1.63,1.07-3.24,2.17-4.94,3.11a2.41,2.41,0,0,1-3.53-.93c-.81-1.35-.22-2.47.94-3.26a43.85,43.85,0,0,1,5-3A2.38,2.38,0,0,1,366.31,82.07Z"/><path class="cls-5" d="M419.93,68.11c-1.94-.15-4.87,1-5-2.26s2.88-2.33,4.82-2.56a18.4,18.4,0,0,1,3.48,0,2.2,2.2,0,0,1,2.26,2.19,2.28,2.28,0,0,1-2.11,2.64A25.23,25.23,0,0,1,419.93,68.11Z"/><path class="cls-5" d="M318.63,133.89c-1.82-.18-3-1.16-2.54-2.68a17.14,17.14,0,0,1,3.66-6.85,1.92,1.92,0,0,1,2.43-.31,2.08,2.08,0,0,1,1.39,2.32,20.16,20.16,0,0,1-3.56,6.9C319.72,133.66,319,133.73,318.63,133.89Z"/><path class="cls-5" d="M397.18,71.11c-1.6-.06-2.5-.71-2.76-2A2.12,2.12,0,0,1,396,66.38a64.08,64.08,0,0,1,6.54-1.3,2.07,2.07,0,0,1,2.34,1.76,2.17,2.17,0,0,1-1.45,2.81C401.3,70.28,399.1,70.67,397.18,71.11Z"/><path class="cls-5" d="M385.05,72.65c-.1,2.17-1.53,2.77-2.94,3.09-2.22.51-4.26,3.18-6.7,1.06-1.51-1.3-.94-3,.71-3.82a32.89,32.89,0,0,1,5.67-2.31C383.67,70.08,384.69,71.14,385.05,72.65Z"/><path class="cls-5" d="M282.61,172.4c-.05,1.68-3.12,4.3-4.79,4.18a2.18,2.18,0,0,1-2.28-2.44c0-1.49,3.17-4.22,4.74-4.08A2.41,2.41,0,0,1,282.61,172.4Z"/><path class="cls-5" d="M220,244.39c-8.18,4-17.66,6-23.65,13.78,0,0,1.93,8.79,1.93,23.81h0q13.84,29.16,27.67,58.33c5.15,10.85,14.83,14.31,25.69,9.18,7.22-3.41,14.45-6.79,21.6-10.32,1.88-.93,2.59-.49,3.43,1.28q19,40.24,38.16,80.42c.2.44.38.8.51,1.12h0s2.71,6.64,7.8,6.68h.1c5.14,0,16.22-5.61,16.22-5.61L352.26,417c7.63-3.6,9.63-9.11,6-16.69-8.29-17.52-16.16-35.24-25-52.47a26.77,26.77,0,0,1,19.28-38.93c10.35-1.72,20.62-4.11,31.1-4.74,14-.83,28-.81,41.86,2.31a82.59,82.59,0,0,0,41.36-1.36c1.27-.54,24.33-10.37,38.14-23.67.42-.43.82-.86,1.2-1.3,19.14-22.32,26-48.56,23.12-77.29-3.05-30.57-16.12-56.57-38.78-77.42-17.06-15.7-37.11-25.76-60.42-27.16-36.64-2.19-63.94,13.49-81.89,45.46a90.29,90.29,0,0,1-5.29,9.06,230.78,230.78,0,0,1-56.32,54.82C265.65,222.1,242.83,233.25,220,244.39ZM353.72,402c2.68,5.65,1.86,8-3.7,10.66-6.94,3.3-13.9,6.55-20.83,9.86a7.42,7.42,0,0,1-3.87,1c-3.07.19-4.6-1.68-5.75-4.12q-8.81-18.6-17.62-37.17c-4.54-9.58-9-19.17-13.65-28.71-.75-1.55-.71-2.24,1-3,11.11-5.18,22.13-10.52,33.4-15.32,1.78-.75,2.71-1.05,2.7,1.54,0,4.77,1.71,9.12,3.74,13.37Q341.44,376,353.72,402Zm14.74-277c23.39-22.37,51.42-27.75,81.79-17.73,34.19,11.28,56.05,35.7,68.1,69,9.44,26.08,9.62,52.44-1.7,78.09-12,27.24-32.89,43.85-62.54,48.21-21.3,3.13-40.95-2.51-59.15-13.61a109.31,109.31,0,0,1-14.54-10.8c-1.7-1.47-1.39-2,.47-2.86,22.35-10.55,44.45-21.68,67.07-31.61,22.1-9.69,27.36-31.91,22-49.21-5.51-17.91-17-29.68-36-32.95-7.36-1.27-14.26.6-20.92,3.79Q378.29,182,343.47,198.53c-.42.2-.87.34-1.72.66C340.63,170.53,347.59,145,368.46,125Zm10,145.7c-2.52,2.36-4.26,1.74-6.34-.64a128,128,0,0,1-15.47-21.54c-.59-1.06-1.55-2,.19-3.08a2,2,0,0,0,.51-2.65,2.05,2.05,0,0,0-2.6-1.35c-1.64.66-1.95-.35-2.45-1.44a120.63,120.63,0,0,1-8.72-27.15c-.28-1.45-.72-2.81,1.06-4.06,1.56-1.1.86-2.71-1.75-4.6l21.87-10.35c.17,1.73.31,3.37,2.27,3.62a2.28,2.28,0,0,0,2.55-1.53c.64-1.61-.35-2.56-1.81-3.51,6.78-3.22,13.42-6.36,20-9.54.9-.44,1.27-.39,1.6.66a2.24,2.24,0,0,0,3.25,1.51,2.14,2.14,0,0,0,1.12-3.36c-1-1.39,0-1.61.86-2l5.3-2.44.66-.08c-.09.17-.19.34-.29.51-3.16,6.31-5.33,12.86-5.45,20A47.8,47.8,0,0,0,403.44,226c.71,1,1.4,2.09,2.09,3.13.19.21.38.41.56.62l.9.91c8.82,8.69,14.92,12,25.88,14.62l-26.05,12.09-.64.26c0-.23.05-.46.08-.69.1-1.73-.23-3.18-2.35-3.27a2.22,2.22,0,0,0-2.43,2.05c-.26,1.67.93,2.39,2.63,3.12-7.1,3.38-13.93,6.64-20.76,9.87-.48.23-1.12.63-1.31-.34-.43-2.21-1.86-3.26-3.76-2.11C376.12,267.52,377.08,269.35,378.47,270.72Zm24-85.93c6.13-14.86,20.69-21.71,36.1-17.18,23.3,6.85,35.59,37,23.46,57.76-5.54,9.5-14,14.31-26,14.58-14.76-1-25.51-9.38-32.19-23.18C398.84,206.42,398.07,195.6,402.52,184.79Zm-65-16.85c.53-.64.87-1.54,1.51-1.67q-13.47,86.89,61.58,132.37c-1.21,0-2.81.11-4.39,0-22.23-1.71-43.65,2.38-64.68,9.06a278,278,0,0,0-51.06,22.21c-2.1,1.17-2.93,1-4-1.26Q256.73,286.76,236.75,245c-1.12-2.33-.55-3,1.5-4,22.6-10.9,44.32-23.26,64.1-38.83A233.43,233.43,0,0,0,337.49,167.94Z"/><path class="cls-5" d="M199.42,284.46s-15.22-23.95,6-33.63,16.94,33.63,16.94,33.63Z"/><polygon class="cls-6" points="256.35 150.66 250.23 144.55 256.35 138.44 251.4 133.49 245.29 139.6 239.18 133.49 234.23 138.44 240.34 144.55 234.23 150.66 239.18 155.61 245.29 149.5 251.4 155.61 256.35 150.66"/><polygon class="cls-6" points="424.61 406.74 419.28 401.4 424.61 396.07 420.29 391.76 414.96 397.09 409.63 391.76 405.31 396.07 410.65 401.4 405.31 406.74 409.63 411.05 414.96 405.72 420.29 411.05 424.61 406.74"/><polygon class="cls-7" points="176.82 279.63 169.39 272.21 176.82 264.78 170.81 258.77 163.38 266.2 155.96 258.77 149.95 264.78 157.37 272.21 149.95 279.63 155.96 285.64 163.38 278.22 170.81 285.64 176.82 279.63"/><g class="cls-8"><path class="cls-9" d="M14.68,114.9H-39V61.25H14.68Zm-50.29-3.36H11.33V64.6H-35.61Z"/><path class="cls-9" d="M64.92,114.9H11.28V61.25H64.92Zm-50.29-3.36H61.57V64.6H14.63Z"/><path class="cls-9" d="M14.68,165.23H-39V111.58H14.68Zm-50.29-3.35H11.33V114.94H-35.61Z"/><path class="cls-9" d="M64.92,165.23H11.28V111.58H64.92Zm-50.29-3.35H61.57V114.94H14.63Z"/><path class="cls-9" d="M14.68,215.56H-39V161.92H14.68Zm-50.29-3.35H11.33V165.27H-35.61Z"/><path class="cls-9" d="M64.92,215.56H11.28V161.92H64.92Zm-50.29-3.35H61.57V165.27H14.63Z"/><path class="cls-9" d="M14.68,265.9H-39V212.25H14.68Zm-50.29-3.36H11.33V215.6H-35.61Z"/><path class="cls-9" d="M64.92,265.9H11.28V212.25H64.92Zm-50.29-3.36H61.57V215.6H14.63Z"/><path class="cls-9" d="M14.68,316.23H-39V262.58H14.68Zm-50.29-3.35H11.33V265.94H-35.61Z"/><path class="cls-9" d="M64.92,316.23H11.28V262.58H64.92Zm-50.29-3.35H61.57V265.94H14.63Z"/><path class="cls-9" d="M14.68,366.56H-39V312.92H14.68Zm-50.29-3.35H11.33V316.27H-35.61Z"/><path class="cls-9" d="M64.92,366.56H11.28V312.92H64.92Zm-50.29-3.35H61.57V316.27H14.63Z"/><path class="cls-9" d="M14.68,416.9H-39V363.25H14.68Zm-50.29-3.36H11.33V366.6H-35.61Z"/><path class="cls-9" d="M64.92,416.9H11.28V363.25H64.92Zm-50.29-3.36H61.57V366.6H14.63Z"/><path class="cls-9" d="M14.68,467.23H-39V413.58H14.68Zm-50.29-3.35H11.33V416.94H-35.61Z"/><path class="cls-9" d="M64.92,467.23H11.28V413.58H64.92Zm-50.29-3.35H61.57V416.94H14.63Z"/><path class="cls-9" d="M14.68,517.56H-39V463.92H14.68Zm-50.29-3.35H11.33V467.27H-35.61Z"/><path class="cls-9" d="M64.92,517.56H11.28V463.92H64.92Zm-50.29-3.35H61.57V467.27H14.63Z"/><path class="cls-9" d="M14.68,567.9H-39V514.25H14.68Zm-50.29-3.36H11.33V517.6H-35.61Z"/><path class="cls-9" d="M64.92,567.9H11.28V514.25H64.92Zm-50.29-3.36H61.57V517.6H14.63Z"/></g><path class="cls-5" d="M252.35,478.61c-.58.95-1.17,1.89-1.75,2.83-3.63,4.12-8.3,6-13.95,6.07.95,1,1.71,1.76,2.34,2.57,3.26,4.2,4.16,8.79,2.17,13.81a15.27,15.27,0,0,1-7,7.55A21.08,21.08,0,0,1,223,513.29q-21.57-1.77-43.15-3.41a53.48,53.48,0,0,0-8.39-.51l-21.11-1.84a8.59,8.59,0,0,0-2.94-.29l-11.22-1.05a93.52,93.52,0,0,1-10.81-2.75,76.71,76.71,0,0,1-12.18-5.87,62.72,62.72,0,0,1-15.91-15.13,72.28,72.28,0,0,1-8.31-15.5L88,463.89a105.73,105.73,0,0,1-2.16-11.84c.13-3,.07-6,.29-9,.36-4.74,1.72-9.25,2.84-13.82a14.23,14.23,0,0,0,.75-1.45,55.25,55.25,0,0,1,10.6-17.29c3.41-3.76,7-7.38,10.48-11.07l2.82-2.71L123,388a25,25,0,0,0,3.61-3.36c1.31-1.19,2.64-2.36,3.91-3.59A120.25,120.25,0,0,0,143,367.64a14.4,14.4,0,0,0,2.43-3.11,68,68,0,0,0,9.49-16.18c2-4.65,3.17-9.63,6.12-13.84a30.59,30.59,0,0,1,5.62-5.4,18.44,18.44,0,0,1,12.83-2.69c2.17.37,4.33.77,6.54.93a116.24,116.24,0,0,1,12.07,1.16l2.87,1.1a24.52,24.52,0,0,1,6.9,5.76l2.18,3.91c1.72,5.07,1.13,10-.72,14.91-2,5.26-3.83,10.58-5.73,15.88a8.93,8.93,0,0,0-1.11,2.82c-2.49,6.43-5,12.86-7.5,19.27-.51,1.3.25,1.31,1.09,1.37l30.72,2.22,3.31.3q13.56,1.21,27.12,2.44c1.33.12,2.65.39,4,.59l3.2,1.31a20.35,20.35,0,0,1,6.76,6.86,10.75,10.75,0,0,0,1.52,4.06c1.46,10.15-4,16.81-10.95,19.43l-3.2.78,2.88,2.83a18.25,18.25,0,0,1,3.88,10.7c-.1,1-.19,2-.28,2.95a18.66,18.66,0,0,1-5.78,9.64l-3.45,2.18a20.48,20.48,0,0,1-7.86,1.57C253.35,466.34,255,472,252.35,478.61Zm-49.29-81.27c-2.78-.25-5.28-.49-7.78-.69-5.07-.4-10.15-.84-15.23-1.12-2.69-.15-2.85.13-3.41,2.72a32.92,32.92,0,0,0-.44,8.05c.26,7.35,1,14.67.58,22-1,15.32-8.19,26.11-22.65,31.79a10.83,10.83,0,0,1-1.21.42,1.45,1.45,0,0,1-1.94-.91,1.47,1.47,0,0,1,.84-2c.67-.31,1.36-.55,2-.83,11.84-4.95,18.35-13.8,19.66-26.57.79-7.74-.06-15.43-.37-23.13-.16-4.17-.29-8.35,1.32-12.33,6.05-14.93,11.84-29.95,17.14-45.15,2.31-6.64.45-12.87-4.72-16.83-5.7-4.36-13-4.75-18.7-.91a20.68,20.68,0,0,0-7.94,11.19A84.78,84.78,0,0,1,143,372.56c-6.83,7.82-14.51,14.78-22.15,21.77s-15.2,14.15-21.54,22.35c-8,10.38-11.26,22.44-10.35,35.5,1,14,6.84,25.81,16.86,35.52,8.88,8.62,19.45,14,31.81,15.34,10.54,1.15,21.13,1.89,31.69,2.81.27,0,.62.18.77-.37a16.42,16.42,0,0,1-3.4-4.21c-4.68-8.58.81-19,11-20.82,1.33-.24,2.68-.33,4.21-.51-4.77-4.47-7-9.63-4.71-15.73,2.76-7.43,8.87-10.1,16.65-10.26-5.26-5-7.2-10.77-5.14-17.5s7-10.35,13.84-11.6C193,417.23,193.66,404.28,203.06,397.34Zm17.14,31.53,0,.32-7-.63c-2.32-.19-4.65-.37-7-.57a15.64,15.64,0,0,0-4.21.18,13.3,13.3,0,0,0-11,13.28c.29,7.19,5.49,12.53,12.88,13.12,9,.73,18.09,1.4,27.14,2.08a16.51,16.51,0,0,0,5.47-.33,13.3,13.3,0,0,0-1.89-26.13C229.85,429.66,225,429.3,220.2,428.87Zm5.25-3.11,0-.25c3.18.29,6.35.6,9.52.85a37.54,37.54,0,0,0,7.71.25,13.4,13.4,0,0,0,11.65-13.29,13.24,13.24,0,0,0-12-13.1c-9.77-.88-19.55-1.56-29.33-2.25a12.91,12.91,0,0,0-8.51,2.38,13.27,13.27,0,0,0,6.51,24.1C215.8,425,220.63,425.33,225.45,425.76Zm-19.34,56.12,0-.36c5.13.46,10.25,1,15.38,1.35a13,13,0,0,0,10.06-3.7,10.56,10.56,0,0,0,1.18-14.33,13.75,13.75,0,0,0-10.4-5.48q-14.21-1.14-28.42-2.16a14.31,14.31,0,0,0-9.89,2.72,10.73,10.73,0,0,0-1.71,16,13.37,13.37,0,0,0,8.93,4.6C196.21,481,201.16,481.43,206.11,481.88Zm-11.3,26,0-.35c4.95.45,9.89.91,14.83,1.33A13.83,13.83,0,0,0,218,506.9a10.82,10.82,0,0,0,1.48-18.1,13.81,13.81,0,0,0-7.86-3.25q-15-1.16-30.06-2.23a13.09,13.09,0,0,0-8.63,2.6,10.58,10.58,0,0,0-1.49,16.46,13.55,13.55,0,0,0,8.59,4.13C184.92,507,189.87,507.41,194.81,507.85Z"/><path class="cls-7" d="M203.06,397.34c-9.4,6.94-10,19.89-.47,27.51-6.86,1.25-11.78,4.87-13.84,11.6s-.12,12.53,5.14,17.5c-7.78.16-13.89,2.83-16.65,10.26-2.26,6.1-.06,11.26,4.71,15.73-1.53.18-2.88.27-4.21.51-10.21,1.85-15.7,12.24-11,20.82a16.42,16.42,0,0,0,3.4,4.21c-.15.55-.5.39-.77.37-10.56-.92-21.15-1.66-31.69-2.81-12.36-1.35-22.93-6.72-31.81-15.34C95.83,478,90,466.17,89,452.18c-.91-13.06,2.33-25.12,10.35-35.5,6.34-8.2,13.89-15.34,21.54-22.35S136.2,380.38,143,372.56a84.78,84.78,0,0,0,17.22-29.46,20.68,20.68,0,0,1,7.94-11.19c5.68-3.84,13-3.45,18.7.91,5.17,4,7,10.19,4.72,16.83-5.3,15.2-11.09,30.22-17.14,45.15-1.61,4-1.48,8.16-1.32,12.33.31,7.7,1.16,15.39.37,23.13-1.31,12.77-7.82,21.62-19.66,26.57-.68.28-1.37.52-2,.83a1.47,1.47,0,0,0-.84,2,1.45,1.45,0,0,0,1.94.91,10.83,10.83,0,0,0,1.21-.42c14.46-5.68,21.69-16.47,22.65-31.79.46-7.37-.32-14.69-.58-22a32.92,32.92,0,0,1,.44-8.05c.56-2.59.72-2.87,3.41-2.72,5.08.28,10.16.72,15.23,1.12C197.78,396.85,200.28,397.09,203.06,397.34Z"/><path class="cls-7" d="M220.2,428.87c4.82.43,9.65.79,14.46,1.32a13.3,13.3,0,0,1,1.89,26.13,16.51,16.51,0,0,1-5.47.33c-9.05-.68-18.1-1.35-27.14-2.08-7.39-.59-12.59-5.93-12.88-13.12a13.3,13.3,0,0,1,11-13.28,15.64,15.64,0,0,1,4.21-.18c2.32.2,4.65.38,7,.57l7,.63Z"/><path class="cls-7" d="M225.45,425.76c-4.82-.43-9.65-.81-14.47-1.31a13.27,13.27,0,0,1-6.51-24.1A12.91,12.91,0,0,1,213,398c9.78.69,19.56,1.37,29.33,2.25a13.24,13.24,0,0,1,12,13.1,13.4,13.4,0,0,1-11.65,13.29,37.54,37.54,0,0,1-7.71-.25c-3.17-.25-6.34-.56-9.52-.85Z"/><path class="cls-7" d="M206.11,481.88c-5-.45-9.9-.84-14.84-1.35a13.37,13.37,0,0,1-8.93-4.6,10.73,10.73,0,0,1,1.71-16,14.31,14.31,0,0,1,9.89-2.72q14.22,1,28.42,2.16a13.75,13.75,0,0,1,10.4,5.48,10.56,10.56,0,0,1-1.18,14.33,13,13,0,0,1-10.06,3.7c-5.13-.34-10.25-.89-15.38-1.35Z"/><path class="cls-7" d="M194.81,507.85c-4.94-.44-9.89-.85-14.83-1.34a13.55,13.55,0,0,1-8.59-4.13,10.58,10.58,0,0,1,1.49-16.46,13.09,13.09,0,0,1,8.63-2.6q15,1.05,30.06,2.23a13.81,13.81,0,0,1,7.86,3.25A10.82,10.82,0,0,1,218,506.9a13.83,13.83,0,0,1-8.28,1.93c-4.94-.42-9.88-.88-14.83-1.33Z"/><path class="cls-10" d="M264.12,370.72a.82.82,0,0,1-.07.31A.19.19,0,0,1,264.12,370.72Z"/><path class="cls-11" d="M542.53,393.26a50.27,50.27,0,0,1-50.27,50.27h0A50.27,50.27,0,0,1,442,393.26h0A50.27,50.27,0,0,1,492.26,343h0a50.27,50.27,0,0,1,50.27,50.27Z"/><circle class="cls-7" cx="492.26" cy="380.58" r="13.83"/><path class="cls-7" d="M492.26,394.42a25.35,25.35,0,0,0-25.36,25.36h50.72A25.36,25.36,0,0,0,492.26,394.42Z"/><path class="cls-12" d="M416.93,518.66a42.58,42.58,0,0,1-42.58,42.58h0a42.58,42.58,0,0,1-42.59-42.58h0a42.58,42.58,0,0,1,42.59-42.58h0a42.58,42.58,0,0,1,42.58,42.58Z"/><circle class="cls-7" cx="374.35" cy="507.92" r="11.72"/><path class="cls-7" d="M374.35,519.64a21.49,21.49,0,0,0-21.49,21.48h43A21.48,21.48,0,0,0,374.35,519.64Z"/><path class="cls-13" d="M305.24,505.36a8.88,8.88,0,0,1,.55.7,1.26,1.26,0,0,1-1.86,1.68,12.42,12.42,0,0,1-2.64-2.82c.49-1.76,1.33-2,2.63-.79C304.35,504.55,304.8,505,305.24,505.36Z"/><path class="cls-13" d="M287.78,446.18c-.46.54-.22,1.25-.43,1.86-.28.79-.75,1.39-1.64,1.18s-1.11-.92-.93-1.77c.1-.49.21-1,.31-1.46.27-.85.38-1.78,1.26-2.29l1,.11A2,2,0,0,1,287.78,446.18Z"/><path class="cls-13" d="M297.12,495.76c.43.66.86,1.33,1.3,2s.69,1.12.23,1.77-1.16.64-1.85.32L294.72,497c-.06-.19-.11-.37-.17-.55C295.12,494.8,295.71,494.63,297.12,495.76Z"/><path class="cls-13" d="M320.89,519.49a13.2,13.2,0,0,0-1.16-.65c-.85-.39-1.51-.92-1.05-1.94s1.21-.86,2-.46a2.92,2.92,0,0,0,.42.13c.81.64,2,.71,2.5,1.81l0,.65C322.87,520.22,321.89,519.91,320.89,519.49Z"/><path class="cls-13" d="M291.55,435.46c-.39.83-.85,2-1.43,3a1.06,1.06,0,0,1-1.45.43,1.13,1.13,0,0,1-.7-1.48,30.54,30.54,0,0,1,1.36-3.17,1.09,1.09,0,0,1,1.44-.49C291.41,434,291.69,434.48,291.55,435.46Z"/><path class="cls-13" d="M293.77,429.38c-.7-.16-1.24-.66-1-1.47a8.88,8.88,0,0,1,2.2-3.37,1.09,1.09,0,0,1,1.41,0,1,1,0,0,1,.47,1.32c-.62,1.09-1.33,2.13-2.05,3.15A1.12,1.12,0,0,1,293.77,429.38Z"/><path class="cls-13" d="M289,479.6c-.06.87-.34,1.32-1,1.48a1.12,1.12,0,0,1-1.4-.62,12.56,12.56,0,0,1-1-3.46,1.13,1.13,0,0,1,.86-1.27,1.06,1.06,0,0,1,1.42.53C288.33,477.42,288.66,478.63,289,479.6Z"/><path class="cls-13" d="M293.08,489.89a1.23,1.23,0,0,1-.92,1.07,1,1,0,0,1-1.21-.39,12.11,12.11,0,0,1-1.66-3.36,1.1,1.1,0,0,1,.57-1.27,1.17,1.17,0,0,1,1.28,0A10.16,10.16,0,0,1,293.08,489.89Z"/><path class="cls-13" d="M286.51,468.93c0,1.06-.36,1.59-1.12,1.68a1.19,1.19,0,0,1-1.38-1.1,27.26,27.26,0,0,1-.36-3.13,1.13,1.13,0,0,1,1-1.26,1.15,1.15,0,0,1,1.44,1C286.3,467.14,286.41,468.19,286.51,468.93Z"/><path class="cls-13" d="M286.1,457.42c0,.45,0,.91-.12,1.35-.14.71-.51,1.24-1.32,1.16a1.25,1.25,0,0,1-1.21-1.31,30.48,30.48,0,0,1,.21-3.16A1.12,1.12,0,0,1,285,454.4a1.11,1.11,0,0,1,1.09,1.21c0,.6-.1,1.2-.16,1.8Z"/><path class="cls-13" d="M314.44,513.6c-.15.91-.74,1.44-1.49,1.16a8.24,8.24,0,0,1-3.41-2.4,1.23,1.23,0,0,1,1.25-1.79,8.9,8.9,0,0,1,3.52,2.51C314.43,513.21,314.4,513.46,314.44,513.6Z"/></svg>