<?xml version="1.0" encoding="utf-8"?>
<!-- Generator: Adobe Illustrator 17.0.0, SVG Export Plug-In . SVG Version: 6.00 Build 0)  -->
<!DOCTYPE svg PUBLIC "-//W3C//DTD SVG 1.0//EN" "http://www.w3.org/TR/2001/REC-SVG-20010904/DTD/svg10.dtd">
<svg version="1.0" id="Calque_1" xmlns="http://www.w3.org/2000/svg" xmlns:xlink="http://www.w3.org/1999/xlink" x="0px" y="0px"
	 width="607.073px" height="607.073px" viewBox="0 0 607.073 607.073" enable-background="new 0 0 607.073 607.073"
	 xml:space="preserve">
<circle display="none" fill="#7FD6C2" cx="-3352.838" cy="-408.002" r="242.373"/>
<circle fill="#F5DF49" cx="303.536" cy="312.07" r="242.373"/>
<g>
	<g>
		<defs>
			<circle id="SVGID_1_" cx="303.536" cy="312.07" r="242.373"/>
		</defs>
		<clipPath id="SVGID_2_">
			<use xlink:href="#SVGID_1_"  overflow="visible"/>
		</clipPath>
		<g display="none" clip-path="url(#SVGID_2_)">
			
				<text transform="matrix(1 0 0 1 125.3636 99.7256)" display="inline" fill="#CCB73E" font-family="'TeutonWeiss-Bold'" font-size="60.1415">1011100011110000</text>
			
				<text transform="matrix(1 0 0 1 30.697 155.0208)" display="inline" fill="#CCB73E" font-family="'TeutonWeiss-Bold'" font-size="60.1415">1011100011110000</text>
			
				<text transform="matrix(1 0 0 1 91.0971 210.3165)" display="inline" fill="#CCB73E" font-family="'TeutonWeiss-Bold'" font-size="60.1415">1011100011110000</text>
			
				<text transform="matrix(1 0 0 1 30.697 265.6116)" display="inline" fill="#CCB73E" font-family="'TeutonWeiss-Bold'" font-size="60.1415">1011100011110000</text>
			
				<text transform="matrix(1 0 0 1 61.1636 320.9073)" display="inline" fill="#CCB73E" font-family="'TeutonWeiss-Bold'" font-size="60.1415">1011100011110000</text>
			
				<text transform="matrix(1 0 0 1 30.697 376.2024)" display="inline" fill="#CCB73E" font-family="'TeutonWeiss-Bold'" font-size="60.1415">1011100011110000</text>
			
				<text transform="matrix(1 0 0 1 61.3636 431.498)" display="inline" fill="#CCB73E" font-family="'TeutonWeiss-Bold'" font-size="60.1415">1011100011110000</text>
			
				<text transform="matrix(1 0 0 1 61.1632 486.7932)" display="inline" fill="#CCB73E" font-family="'TeutonWeiss-Bold'" font-size="60.1415">1011100011110000</text>
			
				<text transform="matrix(1 0 0 1 121.3636 542.0889)" display="inline" fill="#CCB73E" font-family="'TeutonWeiss-Bold'" font-size="60.1415">1011100011110000</text>
			
				<text transform="matrix(1 0 0 1 30.697 597.384)" display="inline" fill="#CCB73E" font-family="'TeutonWeiss-Bold'" font-size="60.1415">1011100011110000</text>
		</g>
	</g>
</g>
<polygon fill="#F3F6E6" points="225.985,263.438 217.218,263.438 217.218,254.671 210.122,254.671 210.122,263.438 201.355,263.438 
	201.355,270.534 210.122,270.534 210.122,279.301 217.218,279.301 217.218,270.534 225.985,270.534 "/>
<polygon fill="#F3F6E6" points="314.852,513.205 314.852,503.522 324.535,503.522 324.535,495.684 314.852,495.684 314.852,486.001 
	307.014,486.001 307.014,495.684 297.332,495.684 297.332,503.522 307.014,503.522 307.014,513.205 "/>
<polygon fill="#F3F6E6" points="289.551,295.96 289.551,288.179 297.332,288.179 297.332,281.88 289.551,281.88 289.551,274.099 
	283.252,274.099 283.252,281.88 275.471,281.88 275.471,288.179 283.252,288.179 283.252,295.96 "/>
<path fill="#393B49" d="M282.066,389.806c-0.404,1.022-1.196,1.324-2.238,1.309c-2.399-0.034-4.798-0.016-7.198-0.012
	c-0.894,0.002-1.693-0.105-1.733-1.265c1.514-3.724,3.053-7.438,4.516-11.182c0.237-0.608,0.905-1.335,0.2-2.013
	c-1.148-1.103-6.979,0.141-7.578,1.637c-1.532,3.828-2.996,7.684-4.488,11.529c-0.429,1.017-1.227,1.322-2.282,1.307
	c-2.53-0.037-5.062-0.014-7.593-0.013c-0.792,0-1.522-0.07-1.413-1.163c1.788-4.369,3.578-8.738,5.428-13.256
	c-2.566-0.192-5.461,0.429-6.556-0.698c-1.458-1.501,0.521-4.083,0.68-6.242c0.153-2.072,1.328-2.857,3.189-2.49
	c5.282,1.04,8.132-1.235,9.043-6.354c0.054-0.305,0.242-0.585,0.358-0.881c1.48-3.75,1.478-3.725-2.521-3.951
	c-1.018-0.058-2.395,0.5-2.403-1.529c-0.023-5.674,1.729-7.706,7.259-7.613c2.159,0.036,3.233-0.662,3.953-2.69
	c1.416-3.988,3.092-7.884,4.66-11.818c3.664,0.006,7.327,0.013,10.99,0.019c-1.608,4.036-3.224,8.069-4.815,12.112
	c-0.26,0.66-0.817,1.385-0.259,2.075c0.953,1.178,6.992,0.018,7.601-1.481c1.716-4.222,3.362-8.473,5.036-12.712
	c3.661,0.003,7.323,0.005,10.984,0.007c-1.589,4.04-3.165,8.085-4.774,12.118c-0.499,1.25-0.787,2.247,1.148,2.361
	c1.557,0.092,3.848-0.746,4.475,0.535c0.599,1.222-0.389,3.222-0.682,4.88c-0.092,0.522-0.227,1.039-0.287,1.564
	c-0.19,1.675-1.099,2.556-2.773,2.193c-5.515-1.196-8.154,1.518-9.206,6.557c-0.15,0.717-0.451,1.422-0.791,2.076
	c-1.091,2.1-0.134,2.639,1.823,2.51c0.634-0.042,1.275,0.033,1.909-0.003c1.676-0.096,2.18,0.485,1.859,2.261
	c-1.236,6.822-1.174,6.911-7.865,6.924c-1.91,0.004-2.832,0.647-3.45,2.41C284.974,382.523,283.479,386.15,282.066,389.806z
	 M284.592,355.968c-2.528,0-4.613,0.004-6.698-0.002c-0.82-0.003-1.412,0.29-1.724,1.104c-1.279,3.33-2.577,6.653-4.025,10.383
	c2.565,0,4.653-0.018,6.741,0.008c0.983,0.012,1.531-0.413,1.871-1.343C281.949,362.863,283.202,359.631,284.592,355.968z"/>
<g>
	<g>
		<path fill="#AAC6FC" d="M506.284,273.962c-2.021,11.38-11.47,19.218-21.106,17.506l-217.363-38.603
			c-9.635-1.711-15.808-12.324-13.787-23.703l22.87-128.772c2.021-11.38,11.47-19.218,21.106-17.506l217.363,38.603
			c9.635,1.711,15.808,12.324,13.787,23.703L506.284,273.962z"/>
		<path fill="#383A48" d="M262.116,254.786c-8.843-4.372-13.644-15.171-11.675-26.261l22.871-128.771
			c1.128-6.352,4.309-11.974,8.957-15.829c4.825-4.003,10.638-5.646,16.371-4.628L516.003,117.9c1.758,0.312,3.46,0.873,5.062,1.665
			c8.844,4.372,13.646,15.171,11.675,26.261l-22.869,128.772c-2.37,13.34-13.733,22.516-25.33,20.456l-217.363-38.603
			C265.421,256.14,263.718,255.578,262.116,254.786z M517.837,126.095c-0.983-0.486-2.029-0.83-3.107-1.022L297.366,86.47
			c-3.588-0.637-7.298,0.45-10.446,3.061c-3.324,2.758-5.61,6.84-6.436,11.496l-22.871,128.771
			c-1.406,7.922,1.773,15.512,7.731,18.458c0.985,0.487,2.029,0.83,3.107,1.022l217.363,38.603
			c7.642,1.358,15.217-5.173,16.883-14.556l22.869-128.772C526.975,136.63,523.796,129.041,517.837,126.095z"/>
	</g>
	
		<rect x="330.25" y="272.296" transform="matrix(-0.9846 -0.1749 0.1749 -0.9846 696.9202 628.282)" fill="#383A48" width="91.789" height="22.271"/>
	<g>
		
			<rect x="313.279" y="294.023" transform="matrix(-0.9846 -0.1749 0.1749 -0.9846 685.5956 656.736)" fill="#F3F6E6" width="116.914" height="8.269"/>
		<path fill="#383A48" d="M310.933,293.761l2.209-12.447l119.415,21.208l-2.21,12.445L310.933,293.761z M316.682,286.382
			l-0.682,3.84L426.808,309.9l0.682-3.839L316.682,286.382z"/>
	</g>
</g>
<g>
	<path fill="#383A48" d="M240.091,147.373c-19.372-21.406-48.645-29.932-87.007-25.366l-0.001-0.011
		c-0.192,0.024-0.379,0.052-0.57,0.077c-0.191,0.023-0.379,0.042-0.571,0.066l0.001,0.011c-38.304,5.035-64.57,20.517-78.065,46.039
		c-11.992,22.68-13.669,53.82-4.848,90.055c6.611,27.155,16.582,47.33,17.003,48.176l5.293-2.674
		c-0.1-0.202-10.132-20.515-16.574-47.042c-5.882-24.221-9.899-58.751,4.361-85.706c12.609-23.834,37.556-38.294,74.142-42.993
		c36.616-4.468,64.358,3.394,82.455,23.382c20.467,22.607,25.089,57.061,25.362,81.984c0.299,27.296-4.414,49.456-4.462,49.676
		l5.789,1.286c0.199-0.924,4.888-22.935,4.598-50.881C266.61,196.161,257.306,166.396,240.091,147.373z"/>
	<g>
		<path fill="#AAC6FC" stroke="#383A48" stroke-width="3" stroke-miterlimit="10" d="M109.876,247.696
			c-1.087,0.327-2.162,0.722-3.22,1.191c-16.38,7.27-22.594,29.08-13.879,48.716s29.057,29.66,45.437,22.391
			c1.058-0.47,2.072-1.002,3.043-1.589L109.876,247.696z"/>
		<path fill="#D74A83" stroke="#383A48" stroke-width="3" stroke-miterlimit="10" d="M136.757,326.152
			c0.271,0.61,0.888,0.929,1.378,0.711l17.751-7.878c0.49-0.218,0.668-0.889,0.397-1.499l-35.645-80.317
			c-0.271-0.61-0.888-0.929-1.378-0.711l-17.751,7.878c-0.49,0.218-0.668,0.889-0.397,1.499L136.757,326.152z"/>
		<path fill="#383A48" d="M98.888,305.502c0.291,0.656-0.005,1.423-0.66,1.714l-5.146,2.284c-0.656,0.291-1.423-0.005-1.714-0.66
			l-8.783-19.791c-0.291-0.656,0.005-1.423,0.66-1.714l5.146-2.284c0.656-0.291,1.423,0.005,1.714,0.66L98.888,305.502z"/>
	</g>
	<g>
		<path fill="#AAC6FC" stroke="#383A48" stroke-width="3" stroke-miterlimit="10" d="M222.914,235.731
			c1.134,0.049,2.273,0.166,3.414,0.36c17.667,3.006,29.067,22.611,25.464,43.789s-20.846,35.91-38.512,32.904
			c-1.141-0.194-2.255-0.46-3.341-0.789L222.914,235.731z"/>
		<path fill="#D74A83" stroke="#383A48" stroke-width="3" stroke-miterlimit="10" d="M216.21,318.394
			c-0.112,0.658-0.631,1.119-1.16,1.029l-19.146-3.257c-0.529-0.09-0.866-0.697-0.754-1.355l14.738-86.627
			c0.112-0.658,0.631-1.119,1.16-1.029l19.146,3.257c0.529,0.09,0.866,0.697,0.754,1.355L216.21,318.394z"/>
		<path fill="#383A48" d="M247.818,289.042c-0.12,0.707,0.355,1.378,1.063,1.499l5.55,0.944c0.707,0.12,1.378-0.356,1.499-1.063
			l3.632-21.346c0.12-0.707-0.355-1.378-1.063-1.499l-5.55-0.944c-0.707-0.12-1.378,0.355-1.499,1.063L247.818,289.042z"/>
	</g>
	<path fill="#383A48" stroke="#383A48" stroke-miterlimit="10" d="M340.056,398.716l-30.971,3.879
		c-16.403,2.054-15.753,15.746-15.179,27.825c0.605,12.751,1.178,24.795-14.673,26.78c-6.304,0.79-10.27-12.487-13.767-24.201
		c-3.439-11.516-6.409-21.461-12.063-20.753c-7.196,0.901-6.245,12.64-5.326,23.992c0.473,5.845,1.188,14.676-0.719,14.915
		c-0.263,0.033-0.464-0.027-0.692-0.207c-2.138-1.683-3.088-10.1-4.007-18.24c-1.479-13.109-3.156-27.966-10.19-33.503
		c-2.236-1.761-4.88-2.465-7.856-2.092c-1.196,0.15-2.216,0.778-2.952,1.817c-3.921,5.536,0.052,23.847,4.258,43.234
		c3.165,14.586,6.751,31.117,4.479,34.325c-0.155,0.218-0.274,0.25-0.374,0.262c-2.284,0.286-3.446-7.509-4.38-13.773
		c-1.635-10.965-3.488-23.392-12.185-22.303c-6.431,0.805-5.305,10.985-4.113,21.762c1.104,9.981,2.356,21.293-3.126,21.979
		c-0.662,0.083-1.214-0.075-1.736-0.499c-3.262-2.643-4.221-13.98-5.067-23.984c-1.058-12.504-2.057-24.314-6.848-28.195
		c-1.301-1.053-2.809-1.482-4.483-1.272c-5.946,0.745-5.164,7.984-4.408,14.985c0.924,8.551,1.157,14.202-3.805,14.823
		c-4.542,0.569-5.827-8.703-7.071-17.669c-1.637-11.804-3.492-25.182-13.521-23.926c-15.546,1.947-12.281,28.622-9.659,50.057
		c1.513,12.364,3.228,26.379-0.455,26.84c-6.574,0.823-8.448-7.798-10.557-21.046c-2.182-13.712-4.656-29.254-18.065-27.574
		c-13.883,1.739-14.544,11.105-15.183,20.162c-0.767,10.862-1.559,22.093-23.357,24.822c-11.971,1.499-21.481-3.656-28.268-15.324
		c-5.168-8.886-6.739-18.391-6.754-18.486l-0.025-0.154l-0.059-0.143c-0.053-0.129-5.214-12.94,1.759-24.922
		c6.292-10.813,20.25-17.644,41.484-20.303c2.589-0.324,5.094-0.667,7.557-1.019l-0.004,0.392c8.457,0.14,16.332-0.337,23.606-1.248
		c20.421-2.557,36.103-8.529,46.619-13.812c17.234-8.659,26.663-18.194,29.24-22.026c0.617-0.917,1.265-1.917,1.962-2.993
		c5.219-8.051,13.105-20.219,31.173-33.372c21.044-15.319,26.516-51.533,26.738-53.067l-3.2-0.509
		c-0.053,0.362-5.482,36.35-25.422,50.866c-18.553,13.505-26.638,25.979-31.988,34.233c-0.686,1.059-1.325,2.043-1.931,2.945
		c-4.225,6.282-28.947,28.789-73.317,34.4c12.41-2.759,22.356-6.025,29.697-9.778c13.09-6.692,15.157-13.529,14.586-18.085
		c-1.25-9.98-6.032-11.785-17.585-16.144c-4.862-1.834-10.913-4.117-18.637-7.675c-25.412-11.703-37.742-54.862-37.864-55.296
		l-2.559,0.715c0.509,1.823,12.779,44.774,39.312,56.993c7.81,3.597,13.91,5.899,18.811,7.748
		c11.397,4.3,14.837,5.598,15.887,13.989c0.667,5.326-3.884,10.647-13.16,15.39c-10.914,5.58-27.8,10.08-50.266,13.41
		c-0.56-0.004-1.106,0.008-1.67-0.002l-0.002,0.24c-2.573,0.37-5.197,0.73-7.912,1.07c-22.1,2.768-36.719,10.036-43.45,21.603
		c-7.295,12.535-2.606,25.518-1.976,27.126c0.227,1.32,1.921,10.394,7.02,19.188c7.27,12.54,17.966,18.311,30.931,16.687
		c23.964-3.001,24.913-16.458,25.676-27.271c0.64-9.077,1.146-16.246,12.864-17.713c10.86-1.36,13.021,12.222,15.112,25.356
		c1.914,12.029,3.894,24.469,13.51,23.264c6.312-0.79,4.823-12.958,2.762-29.799c-2.479-20.262-5.565-45.481,7.353-47.098
		c6.895-0.864,8.726,8.43,10.56,21.654c1.486,10.714,2.889,20.835,10.031,19.94c7.926-0.993,6.922-10.281,6.116-17.744
		c-0.76-7.034-1.024-11.673,2.097-12.064c0.955-0.12,1.743,0.103,2.48,0.7c3.911,3.169,4.954,15.487,5.873,26.356
		c1.02,12.056,1.901,22.469,6.042,25.823c1.092,0.885,2.35,1.245,3.739,1.071c8.079-1.012,6.736-13.16,5.437-24.908
		c-0.952-8.603-2.031-18.354,1.802-18.834c6.122-0.767,7.772,10.297,9.227,20.059c1.33,8.921,2.479,16.625,7.338,16.017
		c0.895-0.112,1.659-0.584,2.212-1.363c2.806-3.961,0.289-16.422-4.051-36.423c-3.534-16.286-7.931-36.555-4.687-41.135
		c0.31-0.438,0.654-0.659,1.115-0.717c2.277-0.285,4.202,0.219,5.883,1.543c6.162,4.851,7.843,19.746,9.194,31.714
		c1.114,9.867,1.993,17.659,5.003,20.03c0.781,0.615,1.703,0.876,2.665,0.755c4.431-0.555,3.815-8.15,3.037-17.765
		c-0.742-9.159-1.665-20.557,3.008-21.142c3.422-0.429,6.485,9.828,9.188,18.878c3.985,13.346,8.106,27.146,16.643,26.077
		c18.291-2.291,17.602-16.768,16.996-29.542c-0.594-12.51-1.107-23.314,12.856-25.063l30.971-3.879L340.056,398.716z"/>
	<path fill="#383A48" d="M354.06,398.696c0.091,0.728-0.425,1.392-1.153,1.483l-12.85,1.609c-0.728,0.091-1.392-0.425-1.483-1.153
		l-0.021-0.165c-0.091-0.728,0.425-1.392,1.153-1.483l12.85-1.609c0.728-0.091,1.392,0.425,1.483,1.153L354.06,398.696z"/>
	<path fill="#D74A83" stroke="#383A48" stroke-width="3" stroke-miterlimit="10" d="M342.91,403.187
		c0.091,0.728-0.425,1.392-1.153,1.483l-27.017,3.383c-0.728,0.091-1.392-0.425-1.483-1.153l-0.784-6.26
		c-0.091-0.728,0.425-1.392,1.153-1.483l27.017-3.384c0.728-0.091,1.392,0.425,1.483,1.153L342.91,403.187z"/>
</g>
<g>
	<g>
		<defs>
			<polygon id="SVGID_3_" points="320.626,263.023 493.003,291.703 504.152,281.119 528.408,137.445 514.423,119.959 
				469.867,113.204 447.626,129.334 440.626,146.001 430.023,149.001 423.287,168.334 401.959,177.667 389.959,198.334 
				380.293,207.001 370.307,206.334 365.001,225.667 353.74,229.781 347.959,246.001 334.777,248.817 			"/>
		</defs>
		<clipPath id="SVGID_4_">
			<use xlink:href="#SVGID_3_"  overflow="visible"/>
		</clipPath>
		<g clip-path="url(#SVGID_4_)">
			<circle fill="#383A48" cx="365.895" cy="106.652" r="2.274"/>
			<circle fill="#383A48" cx="378.462" cy="108.858" r="2.274"/>
			<circle fill="#383A48" cx="391.029" cy="111.065" r="2.274"/>
			<circle fill="#383A48" cx="403.595" cy="113.272" r="2.274"/>
			<circle fill="#383A48" cx="416.162" cy="115.478" r="2.274"/>
			<circle fill="#383A48" cx="428.729" cy="117.685" r="2.274"/>
			<circle fill="#383A48" cx="441.296" cy="119.892" r="2.274"/>
			<circle fill="#383A48" cx="453.863" cy="122.098" r="2.274"/>
			<circle fill="#383A48" cx="466.43" cy="124.305" r="2.274"/>
			<circle fill="#383A48" cx="478.997" cy="126.512" r="2.274"/>
			<circle fill="#383A48" cx="491.563" cy="128.718" r="2.274"/>
			<circle fill="#383A48" cx="504.13" cy="130.925" r="2.274"/>
			<circle fill="#383A48" cx="516.697" cy="133.132" r="2.274"/>
			<circle fill="#383A48" cx="529.264" cy="135.338" r="2.274"/>
			<circle fill="#383A48" cx="363.897" cy="118.028" r="2.274"/>
			<circle fill="#383A48" cx="376.464" cy="120.234" r="2.274"/>
			<circle fill="#383A48" cx="389.031" cy="122.441" r="2.274"/>
			<circle fill="#383A48" cx="401.598" cy="124.648" r="2.274"/>
			<circle fill="#383A48" cx="414.165" cy="126.854" r="2.274"/>
			<circle fill="#383A48" cx="426.732" cy="129.061" r="2.274"/>
			<circle fill="#383A48" cx="439.299" cy="131.268" r="2.274"/>
			<circle fill="#383A48" cx="451.865" cy="133.474" r="2.274"/>
			<circle fill="#383A48" cx="464.432" cy="135.681" r="2.274"/>
			<circle fill="#383A48" cx="476.999" cy="137.888" r="2.274"/>
			<circle fill="#383A48" cx="489.566" cy="140.094" r="2.274"/>
			<circle fill="#383A48" cx="502.133" cy="142.301" r="2.274"/>
			<circle fill="#383A48" cx="514.7" cy="144.508" r="2.274"/>
			<circle fill="#383A48" cx="527.267" cy="146.714" r="2.274"/>
			<circle fill="#383A48" cx="361.9" cy="129.403" r="2.274"/>
			<circle fill="#383A48" cx="374.467" cy="131.61" r="2.274"/>
			<circle fill="#383A48" cx="387.033" cy="133.817" r="2.274"/>
			<circle fill="#383A48" cx="399.6" cy="136.023" r="2.274"/>
			<circle fill="#383A48" cx="412.167" cy="138.23" r="2.274"/>
			<circle fill="#383A48" cx="424.734" cy="140.437" r="2.274"/>
			<circle fill="#383A48" cx="437.301" cy="142.643" r="2.274"/>
			<circle fill="#383A48" cx="449.868" cy="144.85" r="2.274"/>
			<circle fill="#383A48" cx="462.435" cy="147.057" r="2.274"/>
			<circle fill="#383A48" cx="475.001" cy="149.263" r="2.274"/>
			<circle fill="#383A48" cx="487.568" cy="151.47" r="2.274"/>
			<circle fill="#383A48" cx="500.135" cy="153.677" r="2.274"/>
			<circle fill="#383A48" cx="512.702" cy="155.884" r="2.274"/>
			<circle fill="#383A48" cx="525.269" cy="158.09" r="2.274"/>
			<circle fill="#383A48" cx="359.902" cy="140.779" r="2.274"/>
			<circle fill="#383A48" cx="372.469" cy="142.986" r="2.274"/>
			<circle fill="#383A48" cx="385.036" cy="145.193" r="2.274"/>
			<circle fill="#383A48" cx="397.603" cy="147.399" r="2.274"/>
			<circle fill="#383A48" cx="410.17" cy="149.606" r="2.274"/>
			<circle fill="#383A48" cx="422.737" cy="151.813" r="2.274"/>
			<circle fill="#383A48" cx="435.303" cy="154.019" r="2.274"/>
			<circle fill="#383A48" cx="447.87" cy="156.226" r="2.274"/>
			<circle fill="#383A48" cx="460.437" cy="158.433" r="2.274"/>
			<circle fill="#383A48" cx="473.004" cy="160.639" r="2.274"/>
			<circle fill="#383A48" cx="485.571" cy="162.846" r="2.274"/>
			<circle fill="#383A48" cx="498.138" cy="165.053" r="2.274"/>
			<circle fill="#383A48" cx="510.705" cy="167.259" r="2.274"/>
			<circle fill="#383A48" cx="523.271" cy="169.466" r="2.274"/>
			<circle fill="#383A48" cx="357.905" cy="152.155" r="2.274"/>
			<circle fill="#383A48" cx="370.472" cy="154.362" r="2.274"/>
			<circle fill="#383A48" cx="383.039" cy="156.569" r="2.274"/>
			<circle fill="#383A48" cx="395.605" cy="158.775" r="2.274"/>
			<circle fill="#383A48" cx="408.172" cy="160.982" r="2.274"/>
			<circle fill="#383A48" cx="420.739" cy="163.189" r="2.274"/>
			<circle fill="#383A48" cx="433.306" cy="165.395" r="2.274"/>
			<circle fill="#383A48" cx="445.873" cy="167.602" r="2.274"/>
			<circle fill="#383A48" cx="458.439" cy="169.809" r="2.274"/>
			<circle fill="#383A48" cx="471.006" cy="172.015" r="2.274"/>
			<circle fill="#383A48" cx="483.573" cy="174.222" r="2.274"/>
			<circle fill="#383A48" cx="496.14" cy="176.429" r="2.274"/>
			<circle fill="#383A48" cx="508.707" cy="178.635" r="2.274"/>
			<circle fill="#383A48" cx="521.274" cy="180.842" r="2.274"/>
			<circle fill="#383A48" cx="355.907" cy="163.531" r="2.274"/>
			<circle fill="#383A48" cx="368.474" cy="165.738" r="2.274"/>
			<circle fill="#383A48" cx="381.041" cy="167.945" r="2.274"/>
			<circle fill="#383A48" cx="393.608" cy="170.151" r="2.274"/>
			<circle fill="#383A48" cx="406.175" cy="172.358" r="2.274"/>
			<circle fill="#383A48" cx="418.741" cy="174.565" r="2.274"/>
			<circle fill="#383A48" cx="431.308" cy="176.771" r="2.274"/>
			<circle fill="#383A48" cx="443.875" cy="178.978" r="2.274"/>
			<circle fill="#383A48" cx="456.442" cy="181.185" r="2.274"/>
			<circle fill="#383A48" cx="469.009" cy="183.391" r="2.274"/>
			<circle fill="#383A48" cx="481.576" cy="185.598" r="2.274"/>
			<circle fill="#383A48" cx="494.143" cy="187.805" r="2.274"/>
			<circle fill="#383A48" cx="506.709" cy="190.011" r="2.274"/>
			<circle fill="#383A48" cx="519.276" cy="192.218" r="2.274"/>
			<circle fill="#383A48" cx="353.91" cy="174.907" r="2.274"/>
			<circle fill="#383A48" cx="366.477" cy="177.114" r="2.274"/>
			<circle fill="#383A48" cx="379.043" cy="179.321" r="2.274"/>
			<circle fill="#383A48" cx="391.61" cy="181.527" r="2.274"/>
			<circle fill="#383A48" cx="404.177" cy="183.734" r="2.274"/>
			<circle fill="#383A48" cx="416.744" cy="185.941" r="2.274"/>
			<circle fill="#383A48" cx="429.311" cy="188.147" r="2.274"/>
			<circle fill="#383A48" cx="441.878" cy="190.354" r="2.274"/>
			<circle fill="#383A48" cx="454.444" cy="192.561" r="2.274"/>
			<circle fill="#383A48" cx="467.011" cy="194.767" r="2.274"/>
			<circle fill="#383A48" cx="479.578" cy="196.974" r="2.274"/>
			<circle fill="#383A48" cx="492.145" cy="199.181" r="2.274"/>
			<circle fill="#383A48" cx="504.712" cy="201.387" r="2.274"/>
			<circle fill="#383A48" cx="517.279" cy="203.594" r="2.274"/>
			<circle fill="#383A48" cx="351.912" cy="186.283" r="2.274"/>
			<circle fill="#383A48" cx="364.479" cy="188.49" r="2.274"/>
			<circle fill="#383A48" cx="377.046" cy="190.697" r="2.274"/>
			<circle fill="#383A48" cx="389.613" cy="192.903" r="2.274"/>
			<circle fill="#383A48" cx="402.179" cy="195.11" r="2.274"/>
			<circle fill="#383A48" cx="414.746" cy="197.317" r="2.274"/>
			<circle fill="#383A48" cx="427.313" cy="199.523" r="2.274"/>
			<circle fill="#383A48" cx="439.88" cy="201.73" r="2.274"/>
			<circle fill="#383A48" cx="452.447" cy="203.937" r="2.274"/>
			<circle fill="#383A48" cx="465.014" cy="206.143" r="2.274"/>
			<circle fill="#383A48" cx="477.581" cy="208.35" r="2.274"/>
			<circle fill="#383A48" cx="490.147" cy="210.557" r="2.274"/>
			<circle fill="#383A48" cx="502.714" cy="212.763" r="2.274"/>
			<circle fill="#383A48" cx="515.281" cy="214.97" r="2.274"/>
			<circle fill="#383A48" cx="349.915" cy="197.659" r="2.274"/>
			<circle fill="#383A48" cx="362.481" cy="199.866" r="2.274"/>
			<circle fill="#383A48" cx="375.048" cy="202.072" r="2.274"/>
			<circle fill="#383A48" cx="387.615" cy="204.279" r="2.274"/>
			<circle fill="#383A48" cx="425.316" cy="210.899" r="2.274"/>
			<circle fill="#383A48" cx="400.182" cy="206.486" r="2.274"/>
			<circle fill="#383A48" cx="412.749" cy="208.692" r="2.274"/>
			<circle fill="#383A48" cx="437.883" cy="213.106" r="2.274"/>
			<circle fill="#383A48" cx="450.45" cy="215.312" r="2.274"/>
			<circle fill="#383A48" cx="463.016" cy="217.519" r="2.274"/>
			<circle fill="#383A48" cx="475.583" cy="219.726" r="2.274"/>
			<circle fill="#383A48" cx="488.15" cy="221.932" r="2.274"/>
			<circle fill="#383A48" cx="500.717" cy="224.139" r="2.274"/>
			<circle fill="#383A48" cx="513.284" cy="226.346" r="2.274"/>
			<circle fill="#383A48" cx="347.917" cy="209.035" r="2.274"/>
			<circle fill="#383A48" cx="360.484" cy="211.242" r="2.274"/>
			<circle fill="#383A48" cx="373.051" cy="213.448" r="2.274"/>
			<circle fill="#383A48" cx="385.618" cy="215.655" r="2.274"/>
			<circle fill="#383A48" cx="398.185" cy="217.862" r="2.274"/>
			<circle fill="#383A48" cx="410.751" cy="220.068" r="2.274"/>
			<circle fill="#383A48" cx="423.318" cy="222.275" r="2.274"/>
			<circle fill="#383A48" cx="435.885" cy="224.482" r="2.274"/>
			<circle fill="#383A48" cx="448.452" cy="226.688" r="2.274"/>
			<circle fill="#383A48" cx="461.019" cy="228.895" r="2.274"/>
			<circle fill="#383A48" cx="473.585" cy="231.102" r="2.274"/>
			<circle fill="#383A48" cx="486.152" cy="233.308" r="2.274"/>
			<circle fill="#383A48" cx="498.719" cy="235.515" r="2.274"/>
			<circle fill="#383A48" cx="511.286" cy="237.722" r="2.274"/>
			<circle fill="#383A48" cx="345.919" cy="220.411" r="2.274"/>
			<circle fill="#383A48" cx="358.486" cy="222.618" r="2.274"/>
			<circle fill="#383A48" cx="371.053" cy="224.824" r="2.274"/>
			<circle fill="#383A48" cx="383.62" cy="227.031" r="2.274"/>
			<circle fill="#383A48" cx="396.187" cy="229.238" r="2.274"/>
			<circle fill="#383A48" cx="408.754" cy="231.444" r="2.274"/>
			<circle fill="#383A48" cx="421.321" cy="233.651" r="2.274"/>
			<circle fill="#383A48" cx="433.887" cy="235.858" r="2.274"/>
			<circle fill="#383A48" cx="446.455" cy="238.064" r="2.274"/>
			<circle fill="#383A48" cx="459.021" cy="240.271" r="2.274"/>
			<circle fill="#383A48" cx="471.588" cy="242.478" r="2.274"/>
			<circle fill="#383A48" cx="484.155" cy="244.684" r="2.274"/>
			<circle fill="#383A48" cx="496.722" cy="246.891" r="2.274"/>
			<circle fill="#383A48" cx="509.289" cy="249.098" r="2.274"/>
			<circle fill="#383A48" cx="343.922" cy="231.787" r="2.274"/>
			<circle fill="#383A48" cx="356.489" cy="233.994" r="2.274"/>
			<circle fill="#383A48" cx="369.056" cy="236.2" r="2.274"/>
			<circle fill="#383A48" cx="381.623" cy="238.407" r="2.274"/>
			<circle fill="#383A48" cx="394.189" cy="240.614" r="2.274"/>
			<circle fill="#383A48" cx="406.756" cy="242.82" r="2.274"/>
			<circle fill="#383A48" cx="419.323" cy="245.027" r="2.274"/>
			<circle fill="#383A48" cx="431.89" cy="247.234" r="2.274"/>
			<circle fill="#383A48" cx="444.457" cy="249.44" r="2.274"/>
			<circle fill="#383A48" cx="457.024" cy="251.647" r="2.274"/>
			<circle fill="#383A48" cx="469.59" cy="253.854" r="2.274"/>
			<circle fill="#383A48" cx="482.157" cy="256.06" r="2.274"/>
			<circle fill="#383A48" cx="494.724" cy="258.267" r="2.274"/>
			<circle fill="#383A48" cx="507.291" cy="260.474" r="2.274"/>
			<circle fill="#383A48" cx="341.924" cy="243.163" r="2.274"/>
			<circle fill="#383A48" cx="354.491" cy="245.369" r="2.274"/>
			<circle fill="#383A48" cx="367.058" cy="247.576" r="2.274"/>
			<circle fill="#383A48" cx="379.625" cy="249.783" r="2.274"/>
			<circle fill="#383A48" cx="392.192" cy="251.989" r="2.274"/>
			<circle fill="#383A48" cx="404.759" cy="254.196" r="2.274"/>
			<circle fill="#383A48" cx="417.325" cy="256.403" r="2.274"/>
			<circle fill="#383A48" cx="429.892" cy="258.609" r="2.274"/>
			<circle fill="#383A48" cx="442.459" cy="260.816" r="2.274"/>
			<circle fill="#383A48" cx="455.026" cy="263.023" r="2.274"/>
			<circle fill="#383A48" cx="467.593" cy="265.23" r="2.274"/>
			<circle fill="#383A48" cx="480.16" cy="267.436" r="2.274"/>
			<circle fill="#383A48" cx="492.727" cy="269.643" r="2.274"/>
			<circle fill="#383A48" cx="505.293" cy="271.85" r="2.274"/>
			<circle fill="#383A48" cx="339.927" cy="254.539" r="2.274"/>
			<circle fill="#383A48" cx="352.494" cy="256.745" r="2.274"/>
			<circle fill="#383A48" cx="365.061" cy="258.952" r="2.274"/>
			<circle fill="#383A48" cx="377.627" cy="261.159" r="2.274"/>
			<circle fill="#383A48" cx="390.194" cy="263.365" r="2.274"/>
			<circle fill="#383A48" cx="402.761" cy="265.572" r="2.274"/>
			<circle fill="#383A48" cx="415.328" cy="267.779" r="2.274"/>
			<circle fill="#383A48" cx="427.895" cy="269.985" r="2.274"/>
			<circle fill="#383A48" cx="440.462" cy="272.192" r="2.274"/>
			<circle fill="#383A48" cx="453.029" cy="274.399" r="2.274"/>
			<circle fill="#383A48" cx="465.596" cy="276.605" r="2.274"/>
			<circle fill="#383A48" cx="478.162" cy="278.812" r="2.274"/>
			<circle fill="#383A48" cx="490.729" cy="281.019" r="2.274"/>
			<circle fill="#383A48" cx="503.296" cy="283.225" r="2.274"/>
			<circle fill="#383A48" cx="337.929" cy="265.915" r="2.274"/>
			<circle fill="#383A48" cx="350.496" cy="268.121" r="2.274"/>
			<circle fill="#383A48" cx="363.063" cy="270.328" r="2.274"/>
			<circle fill="#383A48" cx="375.63" cy="272.535" r="2.274"/>
			<circle fill="#383A48" cx="388.197" cy="274.741" r="2.274"/>
			<circle fill="#383A48" cx="400.764" cy="276.948" r="2.274"/>
			<circle fill="#383A48" cx="413.331" cy="279.155" r="2.274"/>
			<circle fill="#383A48" cx="425.897" cy="281.361" r="2.274"/>
			<circle fill="#383A48" cx="438.464" cy="283.568" r="2.274"/>
			<circle fill="#383A48" cx="451.031" cy="285.775" r="2.274"/>
			<circle fill="#383A48" cx="463.598" cy="287.981" r="2.274"/>
			<circle fill="#383A48" cx="476.165" cy="290.188" r="2.274"/>
			<circle fill="#383A48" cx="488.731" cy="292.395" r="2.274"/>
			<circle fill="#383A48" cx="501.298" cy="294.601" r="2.274"/>
			<circle fill="#383A48" cx="335.932" cy="277.291" r="2.274"/>
			<circle fill="#383A48" cx="348.499" cy="279.497" r="2.274"/>
			<circle fill="#383A48" cx="361.065" cy="281.704" r="2.274"/>
			<circle fill="#383A48" cx="373.632" cy="283.911" r="2.274"/>
			<circle fill="#383A48" cx="386.199" cy="286.117" r="2.274"/>
			<circle fill="#383A48" cx="398.766" cy="288.324" r="2.274"/>
			<circle fill="#383A48" cx="411.333" cy="290.531" r="2.274"/>
			<circle fill="#383A48" cx="423.9" cy="292.737" r="2.274"/>
			<circle fill="#383A48" cx="436.467" cy="294.944" r="2.274"/>
			<circle fill="#383A48" cx="449.034" cy="297.151" r="2.274"/>
			<circle fill="#383A48" cx="461.601" cy="299.357" r="2.274"/>
			<circle fill="#383A48" cx="474.167" cy="301.564" r="2.274"/>
			<circle fill="#383A48" cx="486.734" cy="303.771" r="2.274"/>
			<circle fill="#383A48" cx="499.301" cy="305.977" r="2.274"/>
		</g>
	</g>
</g>
<g>
	<path fill="#3C3D4A" d="M325.68,350.912c-0.743-0.255-1.692-0.565-2.629-0.905c-2.523-0.915-5.048-1.826-7.559-2.774
		c-0.996-0.376-1.585-1.075-1.109-2.187c0.417-0.976,1.204-1.163,2.176-0.81c3.286,1.192,6.578,2.37,9.868,3.553
		c0.958,0.344,1.455,0.998,1.19,2.021C327.399,350.654,326.754,350.985,325.68,350.912z"/>
	<path fill="#3C3D4A" d="M358.012,332.208c0.123,0.626-0.048,1.743-1.412,1.905c-1.385,0.164-1.694-0.939-1.828-2.1
		c-0.366-3.177-0.77-6.35-1.174-9.523c-0.138-1.08-0.114-2.141,1.217-2.331c1.395-0.198,1.78,0.766,1.92,1.973
		C357.104,325.309,357.534,328.478,358.012,332.208z"/>
	<path fill="#3C3D4A" d="M340.857,337.515c-0.05,0.81-0.41,1.306-1.048,1.533c-0.629,0.224-1.294,0.156-1.707-0.413
		c-2.202-3.034-4.405-6.069-6.532-9.155c-0.5-0.725-0.349-1.582,0.465-2.142c0.734-0.505,1.515-0.419,2.01,0.258
		c2.249,3.077,4.44,6.196,6.636,9.311C340.814,337.097,340.819,337.377,340.857,337.515z"/>
	<path fill="#F2F5E5" d="M436.085,453.953c-13.953,0-27.905,0.005-41.858-0.001c-17.753-0.007-31.515-11.472-34.673-28.951
		c-0.344-1.905-0.447-3.875-0.451-5.815c-0.035-15.775-0.073-31.55-0.005-47.325c0.073-16.882,11.147-30.536,27.492-34.059
		c2.47-0.532,4.976-0.654,7.495-0.653c28.156,0.005,56.313-0.02,84.469,0.011c17.639,0.019,31.396,11.573,34.501,28.929
		c0.297,1.662,0.433,3.374,0.436,5.063c0.031,16.278,0.175,32.558-0.029,48.833c-0.204,16.346-11.202,29.611-27.093,33.223
		c-2.59,0.589-5.217,0.745-7.86,0.745C464.367,453.953,450.226,453.953,436.085,453.953z M436.201,429.249
		c10.118,0,20.235,0.015,30.353-0.004c13.822-0.026,24.305-10.482,24.38-24.32c0.034-6.284,0.035-12.569,0-18.853
		c-0.078-13.85-10.563-24.279-24.401-24.284c-20.172-0.008-40.345-0.008-60.517,0c-13.806,0.006-24.334,10.501-24.385,24.31
		c-0.023,6.221-0.017,12.443-0.001,18.664c0.036,14.031,10.527,24.472,24.597,24.484
		C416.217,429.256,426.209,429.249,436.201,429.249z"/>
	<path fill="#F5DF49" d="M436.315,479.044c15.214,0,30.427-0.01,45.641,0.003c14.616,0.012,25.247,10.593,25.285,25.166
		c0.02,7.67,0.037,15.34-0.006,23.009c-0.063,11.175-7.563,20.256-18.514,22.199c-3.839,0.681-7.78,0.199-11.674,0.244
		c-1.812,0.021-4.236,0.61-5.278-0.31c-1.204-1.063-0.324-3.543-0.393-5.405c-0.194-5.208,0.498-10.456-0.355-15.623
		c-1.264-7.665-7.727-13.35-15.478-13.439c-12.822-0.148-25.65-0.168-38.472,0.001c-8.823,0.116-15.74,7.338-15.855,16.183
		c-0.073,5.657-0.06,11.316,0.013,16.973c0.017,1.35-0.409,1.683-1.7,1.658c-4.273-0.08-8.55,0.005-12.824-0.056
		c-11.204-0.16-21.028-9.606-21.329-20.832c-0.238-8.857-0.24-17.731-0.008-26.589c0.327-12.486,11.109-23.035,23.608-23.137
		c15.778-0.128,31.558-0.031,47.338-0.031C436.315,479.054,436.315,479.049,436.315,479.044z"/>
	<path fill="#F2F5E5" d="M436.366,549.676c-10.049,0-20.097-0.024-30.146,0.028c-1.337,0.007-1.851-0.244-1.824-1.727
		c0.096-5.337,0-10.676,0.048-16.014c0.076-8.455,5.669-13.995,14.121-14.007c11.807-0.017,23.614-0.016,35.421,0
		c8.55,0.011,14.186,5.601,14.237,14.121c0.031,5.212-0.053,10.426,0.042,15.637c0.028,1.533-0.34,2.012-1.942,2
		C456.338,549.639,446.352,549.676,436.366,549.676z"/>
	<path fill="#A9C4FA" d="M376.516,479.066c-1.568,1.123-2.816,1.916-3.952,2.846c-6.884,5.634-10.348,12.947-10.49,21.813
		c-0.078,4.836-0.049,9.674,0.007,14.511c0.015,1.275-0.242,1.598-1.562,1.2c-9.485-2.863-15.641-12.48-14.344-22.526
		c1.267-9.809,9.806-17.596,19.631-17.831C369.227,478.997,372.652,479.066,376.516,479.066z"/>
	<path fill="#A9C4FA" d="M496.511,479.395c4.521-0.176,8.972-0.738,13.393,0.039c9.084,1.596,16.218,9.841,16.587,19.152
		c0.391,9.851-5.863,18.594-14.999,20.966c-0.236,0.061-0.48,0.094-0.913,0.177c0-4.096-0.016-8.099,0.005-12.101
		c0.019-3.709,0.083-7.419-0.919-11.041c-1.941-7.019-5.939-12.528-12.081-16.465C497.22,479.889,496.868,479.638,496.511,479.395z"
		/>
	<path fill="#393B48" d="M436.201,429.249c-9.992,0-19.984,0.007-29.976-0.002c-14.07-0.012-24.561-10.453-24.597-24.484
		c-0.016-6.221-0.021-12.443,0.001-18.664c0.051-13.809,10.578-24.304,24.385-24.31c20.172-0.008,40.345-0.008,60.517,0
		c13.838,0.005,24.323,10.434,24.401,24.284c0.035,6.284,0.034,12.569,0,18.853c-0.074,13.838-10.558,24.294-24.38,24.32
		C456.436,429.264,446.318,429.249,436.201,429.249z M458.77,395.371c0.002,0,0.004,0,0.006,0c0,2.262-0.084,4.528,0.018,6.785
		c0.188,4.147,3.223,7.094,7.246,7.167c4.223,0.077,7.495-2.675,7.684-6.881c0.206-4.577,0.204-9.176,0.011-13.754
		c-0.181-4.307-3.462-7.08-7.783-6.976c-4.003,0.096-6.992,3.074-7.167,7.251C458.697,391.095,458.77,393.234,458.77,395.371z
		 M398.826,395.555c-0.003,0-0.005,0-0.008,0c0,2.199-0.081,4.402,0.017,6.597c0.189,4.219,3.289,7.164,7.427,7.176
		c4.169,0.011,7.375-2.852,7.528-7.072c0.164-4.518,0.166-9.052-0.005-13.57c-0.159-4.193-3.397-7.014-7.601-6.975
		c-4.062,0.037-7.137,2.937-7.338,7.059C398.735,391.026,398.826,393.293,398.826,395.555z M436.224,405.811
		c5.382,0.055,10.228-4.556,10.29-9.746c0.013-1.07-0.224-1.961-1.391-2.074c-1.139-0.11-1.676,0.606-1.745,1.738
		c-0.07,1.135-0.353,2.226-0.912,3.233c-1.474,2.654-4.436,4.04-7.509,3.506c-3.002-0.521-5.214-2.961-5.695-6.427
		c-0.152-1.098-0.366-2.097-1.665-2.059c-1.284,0.037-1.543,0.985-1.522,2.135C426.166,401.249,430.862,405.756,436.224,405.811z"/>
	<path fill="#F3DD49" d="M458.77,395.371c0-2.136-0.073-4.276,0.016-6.409c0.174-4.176,3.164-7.155,7.167-7.251
		c4.321-0.104,7.602,2.67,7.783,6.976c0.192,4.578,0.195,9.177-0.011,13.754c-0.189,4.206-3.461,6.958-7.684,6.881
		c-4.023-0.073-7.058-3.02-7.246-7.167c-0.102-2.257-0.018-4.523-0.018-6.785C458.774,395.371,458.772,395.371,458.77,395.371z"/>
	<path fill="#F3DD49" d="M398.826,395.555c0-2.262-0.091-4.529,0.02-6.785c0.201-4.123,3.276-7.022,7.338-7.059
		c4.205-0.038,7.442,2.782,7.601,6.975c0.171,4.518,0.169,9.052,0.005,13.57c-0.153,4.221-3.358,7.084-7.528,7.072
		c-4.138-0.011-7.239-2.957-7.427-7.176c-0.098-2.195-0.017-4.398-0.017-6.597C398.821,395.555,398.823,395.555,398.826,395.555z"/>
	<path fill="#F2DD4A" d="M436.224,405.811c-5.361-0.055-10.058-4.561-10.151-9.693c-0.021-1.15,0.238-2.098,1.522-2.135
		c1.299-0.038,1.513,0.961,1.665,2.059c0.481,3.466,2.694,5.905,5.695,6.427c3.073,0.534,6.036-0.852,7.509-3.506
		c0.559-1.007,0.842-2.098,0.912-3.233c0.07-1.132,0.606-1.848,1.745-1.738c1.167,0.113,1.404,1.004,1.391,2.074
		C446.451,401.255,441.606,405.866,436.224,405.811z"/>
	<path fill="#3C3D4A" d="M528.277,491.293c-3.583-9.523-12.419-15.462-23.208-15.49c-14.393-0.038-28.787-0.031-43.18,0.023
		c-1.47,0.006-1.902-0.368-1.874-1.864c0.096-5.09,0.079-10.183,0.007-15.274c-0.018-1.255,0.361-1.56,1.574-1.55
		c6.16,0.052,12.322,0.113,18.479-0.019c7.468-0.16,14.37-2.33,20.451-6.699c10.372-7.453,15.891-17.601,16.097-30.415
		c0.172-10.744,0.085-21.493,0.113-32.24c-0.028-5.592-0.023-11.185-0.09-16.777c-0.242-20.229-16.403-36.841-36.648-37.015
		c-29.162-0.251-58.329-0.199-87.491,0.006c-11.353,0.08-20.779,4.927-28.044,13.675c-6.07,7.308-8.812,15.825-8.519,25.305
		c0.01,0.323-0.002,0.599-0.046,0.839l-0.346,6.291c0.11-0.101,0.231-0.201,0.37-0.299c0,0.646,0,1.292,0,1.937
		c0,12.443-0.02,24.886,0.006,37.329c0.039,19.054,12.789,34.265,31.522,37.609c3.104,0.554,6.253,0.525,9.398,0.508
		c4.65-0.025,9.302,0.055,13.95-0.043c1.449-0.031,1.772,0.416,1.749,1.795c-0.083,5.026-0.106,10.056,0.01,15.081
		c0.037,1.599-0.576,1.81-1.935,1.807c-14.39-0.038-28.78-0.056-43.17-0.012c-11.443,0.035-20.675,6.838-23.743,17.355
		c-0.764,2.62-0.942,5.304-0.986,8.009c0.655,5.566,2.564,10.573,6.461,14.726c3.129,3.335,6.866,5.689,11.285,6.809
		c1.361,0.345,1.663,0.907,1.613,2.17c-0.167,4.24,0.293,8.397,1.969,12.353c1.427,3.369,3.436,6.241,6.091,8.734l0,0l0,0
		c0.781,0.734,1.618,1.434,2.514,2.105c2.795,1.953,7.966,4.603,15.728,4.936c32.603,0.002,65.206,0.003,97.809,0.005
		c5.686-0.278,10.049-2.397,12.774-4.196c0.746-0.537,1.456-1.045,2.121-1.603c0.386-0.324,0.759-0.655,1.12-0.99l2.76-2.944
		c4.127-5.114,5.9-11.243,5.585-18.238c-0.065-1.435,0.33-1.994,1.791-2.402C525.857,518.863,533.191,504.352,528.277,491.293z
		 M394.227,453.952c-17.753-0.007-31.515-11.472-34.673-28.951c-0.344-1.905-0.447-3.875-0.451-5.815
		c-0.035-15.775-0.073-31.55-0.005-47.325c0.073-16.882,11.147-30.536,27.492-34.059c2.47-0.532,4.976-0.654,7.495-0.653
		c28.156,0.005,56.313-0.02,84.469,0.011c17.639,0.019,31.396,11.573,34.501,28.929c0.297,1.662,0.433,3.374,0.436,5.063
		c0.031,16.278,0.175,32.558-0.029,48.833c-0.204,16.346-11.202,29.611-27.094,33.223c-2.59,0.589-5.217,0.745-7.861,0.745
		c-14.141,0.001-28.282,0.001-42.423,0.001C422.132,453.953,408.18,453.957,394.227,453.952z M362.074,503.724
		c-0.078,4.836-0.049,9.674,0.007,14.511c0.015,1.275-0.242,1.598-1.562,1.2c-9.485-2.863-15.641-12.48-14.344-22.526
		c1.267-9.809,9.806-17.596,19.631-17.831c3.421-0.082,6.846-0.013,10.71-0.013c-1.569,1.123-2.816,1.916-3.952,2.846
		C365.68,487.545,362.216,494.858,362.074,503.724z M466.323,549.714c-9.985-0.076-19.971-0.038-29.957-0.038
		c-10.049,0-20.097-0.024-30.146,0.028c-1.337,0.007-1.851-0.243-1.824-1.727c0.096-5.337,0-10.676,0.048-16.014
		c0.076-8.455,5.669-13.995,14.121-14.007c11.807-0.017,23.614-0.016,35.421,0c8.55,0.011,14.186,5.601,14.237,14.121
		c0.031,5.213-0.053,10.426,0.042,15.637C468.293,549.247,467.925,549.726,466.323,549.714z M507.236,527.222
		c-0.063,11.175-7.563,20.256-18.514,22.199c-3.839,0.681-7.78,0.199-11.674,0.244c-1.812,0.021-4.236,0.61-5.278-0.31
		c-1.204-1.063-0.324-3.543-0.393-5.405c-0.194-5.208,0.498-10.456-0.355-15.623c-1.264-7.665-7.727-13.35-15.478-13.439
		c-12.823-0.148-25.65-0.167-38.472,0.001c-8.822,0.116-15.74,7.338-15.855,16.183c-0.073,5.657-0.06,11.316,0.013,16.973
		c0.017,1.35-0.409,1.683-1.7,1.658c-4.273-0.08-8.55,0.005-12.824-0.056c-11.204-0.16-21.028-9.606-21.329-20.832
		c-0.238-8.857-0.24-17.731-0.008-26.589c0.327-12.486,11.109-23.035,23.608-23.137c15.778-0.128,31.559-0.031,47.338-0.031
		c0-0.005,0-0.011,0-0.016c15.214,0,30.427-0.01,45.641,0.003c14.616,0.012,25.247,10.593,25.285,25.166
		C507.262,511.882,507.279,519.552,507.236,527.222z M511.492,519.552c-0.236,0.061-0.48,0.094-0.913,0.177
		c0-4.096-0.016-8.099,0.005-12.101c0.019-3.709,0.083-7.419-0.919-11.041c-1.941-7.019-5.939-12.528-12.081-16.465
		c-0.364-0.233-0.716-0.484-1.073-0.727c4.521-0.176,8.972-0.738,13.393,0.039c9.084,1.596,16.218,9.841,16.587,19.152
		C526.882,508.437,520.628,517.18,511.492,519.552z"/>
</g>
</svg>
